<?xml version="1.0" standalone="no"?>
<!DOCTYPE svg PUBLIC "-//W3C//DTD SVG 20010904//EN"
 "http://www.w3.org/TR/2001/REC-SVG-20010904/DTD/svg10.dtd">
<svg version="1.0" xmlns="http://www.w3.org/2000/svg"
 width="225.000000pt" height="225.000000pt" viewBox="0 0 225.000000 225.000000"
 preserveAspectRatio="xMidYMid meet">
<metadata>
Created by potrace 1.15, written by Peter Selinger 2001-2017
</metadata>
<g transform="translate(0.000000,225.000000) scale(0.100000,-0.100000)"
fill="#000000" stroke="none">
<path d="M1290 2128 c-33 -54 -24 -103 28 -155 39 -38 82 -102 82 -119 0 -11
-12 -9 -52 7 -32 12 -68 19 -97 17 l-46 -3 46 -21 c62 -29 67 -40 26 -57 -63
-27 -98 -96 -77 -153 l12 -29 14 40 c7 22 14 41 14 42 0 5 59 33 69 33 6 0 7
-15 4 -35 -6 -38 1 -43 28 -19 42 38 119 8 119 -47 0 -48 -47 -76 -80 -46 -11
9 -10 6 1 -13 8 -14 40 -37 69 -52 63 -30 82 -60 57 -85 -13 -14 -21 -14 -42
-5 -38 17 -33 -12 9 -54 29 -29 41 -34 79 -34 49 0 77 7 77 20 0 5 -12 10 -27
12 -27 3 -28 4 -25 61 2 50 -1 63 -23 89 -24 29 -34 68 -16 68 5 0 15 -7 22
-17 25 -30 75 -44 134 -37 65 8 85 -4 105 -66 12 -38 14 -39 31 -24 51 46 29
130 -57 224 -36 40 -65 81 -69 100 -6 26 -11 31 -29 26 -17 -4 -26 1 -39 23
-9 16 -17 39 -17 50 0 25 -12 27 -30 6 -11 -14 -15 -12 -30 13 -22 36 -61 63
-122 86 -70 26 -115 97 -98 155 7 27 6 31 -11 31 -11 0 -28 -14 -39 -32z"/>
<path d="M500 1900 c0 -5 13 -16 29 -24 45 -24 94 -85 87 -110 -4 -11 -12 -43
-19 -69 -12 -43 -15 -47 -27 -32 -26 32 -88 55 -145 55 -70 0 -112 -21 -131
-65 -21 -51 -17 -59 15 -32 44 37 119 52 164 34 35 -15 76 -62 64 -74 -4 -3
-18 2 -33 11 -31 21 -58 15 -96 -18 -48 -43 -68 -86 -68 -148 0 -31 5 -69 12
-85 l11 -28 8 46 c15 97 63 159 124 159 36 0 54 -16 82 -75 11 -22 26 -50 34
-63 13 -21 12 -24 -9 -40 -18 -14 -20 -20 -10 -30 21 -21 57 -14 70 13 9 20 9
34 0 59 -15 42 -15 46 3 46 8 0 19 -9 25 -20 16 -30 28 -24 40 21 14 50 13 52
-29 81 -20 14 -38 38 -46 60 -11 32 -9 42 11 90 30 68 30 106 1 149 -40 61
-167 128 -167 89z"/>
<path d="M1012 1821 c-40 -7 -82 -31 -54 -31 27 0 8 -17 -53 -49 -36 -18 -80
-47 -98 -64 l-32 -31 24 -5 c22 -6 22 -7 7 -20 -9 -8 -27 -28 -38 -44 l-22
-30 28 7 27 7 -24 -48 c-24 -47 -39 -91 -52 -147 -5 -22 -3 -27 8 -23 10 4 17
-9 26 -49 15 -67 28 -76 37 -27 11 64 19 68 38 19 14 -37 22 -46 42 -46 13 0
24 -4 24 -10 0 -5 14 -17 31 -26 31 -16 32 -15 26 5 -6 26 -6 26 35 2 18 -11
65 -25 103 -31 101 -17 128 -27 160 -60 38 -40 47 -118 17 -148 -27 -27 -84
-37 -138 -25 -48 11 -52 8 -28 -25 9 -13 13 -26 10 -30 -17 -17 -123 -13 -173
6 -52 20 -70 13 -41 -16 16 -16 0 -15 -77 3 -67 16 -143 19 -163 6 -10 -6 -3
-10 22 -15 39 -7 59 -26 28 -26 -63 0 -212 -82 -182 -100 8 -5 3 -16 -16 -36
-46 -50 -72 -134 -40 -134 8 0 17 6 19 13 3 6 6 -20 6 -59 1 -63 6 -82 41
-151 22 -44 49 -88 61 -99 l21 -19 -6 31 c-7 29 -4 28 58 -33 36 -34 70 -63
75 -63 6 0 -10 28 -35 63 -56 76 -77 115 -98 189 -45 156 7 258 164 320 46 19
74 22 180 23 l126 0 19 29 c40 59 140 86 232 62 27 -7 33 -5 44 15 7 13 13 57
14 99 0 63 -5 84 -28 132 -35 72 -80 109 -177 148 -142 58 -192 85 -225 122
-44 48 -61 109 -45 161 14 47 71 112 110 126 37 12 38 2 4 -30 -64 -60 -82
-154 -41 -221 32 -53 61 -71 169 -107 156 -52 223 -109 262 -225 20 -57 23
-171 6 -221 -9 -28 -9 -39 4 -57 9 -12 16 -32 16 -43 0 -17 7 -13 40 21 41 44
70 120 70 181 0 20 4 32 10 28 6 -3 10 -15 10 -26 0 -37 18 -19 22 24 3 26 -2
60 -13 89 l-17 48 24 -6 c13 -3 24 -2 24 4 0 19 -80 92 -136 123 -39 23 -52
34 -42 40 35 22 -87 65 -212 75 -102 8 -158 30 -194 76 -56 74 -12 178 90 213
30 10 41 20 51 51 7 21 20 45 28 54 14 16 12 18 -27 28 -64 17 -118 21 -166
13z"/>
<path d="M1650 1472 c44 -30 59 -50 70 -94 36 -148 45 -173 71 -202 23 -26 35
-31 71 -31 26 0 55 8 72 18 37 25 27 32 -13 10 -28 -16 -33 -17 -58 -3 -40 23
-70 73 -99 167 -30 98 -71 153 -113 152 l-26 0 25 -17z"/>
<path d="M1749 956 c-19 -7 -46 -20 -60 -29 -13 -9 -32 -17 -41 -17 -21 0 -38
-37 -38 -80 0 -19 8 -33 25 -44 33 -22 32 -46 -4 -81 -26 -24 -35 -27 -72 -22
-24 3 -49 1 -60 -6 -29 -18 -50 1 -78 74 -23 56 -31 67 -71 87 -88 44 -165 24
-232 -59 -33 -41 -48 -110 -28 -134 11 -13 14 -12 30 7 17 21 17 21 23 -18 7
-41 31 -84 48 -84 5 0 9 13 9 29 0 16 3 37 7 46 5 15 8 15 24 -6 l18 -24 28
28 c37 35 51 34 99 -4 36 -29 43 -31 97 -25 61 6 60 7 57 -50 -1 -33 34 -85
73 -106 20 -10 20 -10 -1 17 -32 41 -29 74 8 86 17 6 30 17 30 24 0 7 11 20
25 29 14 9 25 23 25 31 0 8 11 22 25 31 28 18 57 12 98 -22 16 -13 34 -24 41
-24 23 0 56 -47 64 -91 8 -42 9 -43 21 -21 17 31 6 93 -22 129 -12 15 -26 41
-32 58 -9 26 -15 30 -52 33 -49 4 -51 9 -23 45 43 55 130 43 184 -25 38 -48
32 -20 -7 36 -82 115 -186 138 -223 50 -17 -40 -23 -42 -53 -10 -43 45 0 108
85 127 29 7 51 16 48 21 -7 12 -53 9 -95 -6z"/>
</g>
</svg>
