<?xml version="1.0" standalone="no"?>
<!DOCTYPE svg PUBLIC "-//W3C//DTD SVG 20010904//EN"
 "http://www.w3.org/TR/2001/REC-SVG-20010904/DTD/svg10.dtd">
<svg version="1.0" xmlns="http://www.w3.org/2000/svg"
 width="225.000000pt" height="225.000000pt" viewBox="0 0 225.000000 225.000000"
 preserveAspectRatio="xMidYMid meet">
<metadata>
Created by potrace 1.15, written by Peter Selinger 2001-2017
</metadata>
<g transform="translate(0.000000,225.000000) scale(0.100000,-0.100000)"
fill="#000000" stroke="none">
<path d="M864 2060 c35 -55 6 -121 -74 -164 l-50 -27 0 31 c0 38 -15 69 -44
92 -34 28 -39 20 -6 -9 22 -20 33 -40 37 -69 l5 -42 -63 -33 c-67 -36 -109
-84 -109 -126 0 -14 -9 -36 -20 -50 -27 -34 -25 -74 3 -101 35 -33 79 -29 124
12 21 18 51 36 67 40 34 8 26 21 -13 21 -19 0 -28 -5 -27 -15 2 -34 -98 5
-110 42 -5 16 0 27 19 42 14 12 44 36 67 55 23 19 49 49 56 68 9 20 26 38 42
44 41 16 90 57 107 89 21 40 19 74 -6 101 l-21 24 16 -25z"/>
<path d="M1213 1963 c-12 -2 -33 -16 -45 -31 -26 -30 -77 -66 -84 -59 -3 3 10
14 29 26 30 18 47 39 47 57 0 3 -10 -2 -22 -10 -12 -9 -34 -16 -49 -16 -15 0
-32 -7 -39 -15 -7 -8 -16 -12 -21 -9 -5 3 -15 2 -21 -3 -13 -7 -18 -8 -71 -11
-27 -2 -77 -41 -77 -61 0 -5 24 3 54 19 29 16 57 26 61 22 5 -4 5 -2 2 4 -4 7
7 11 30 12 19 1 42 7 49 13 11 9 14 7 15 -12 1 -13 1 -27 0 -31 0 -3 15 -4 34
-2 26 3 35 0 35 -11 0 -21 11 -19 43 10 15 15 27 36 27 50 0 14 9 34 20 45 11
11 17 19 13 19 -5 -1 -18 -4 -30 -6z"/>
<path d="M1273 1870 c-32 -30 -50 -40 -76 -40 -25 0 -41 -9 -68 -37 -24 -26
-28 -34 -14 -29 11 5 25 9 31 10 6 1 23 9 37 19 15 9 32 17 39 17 7 0 -1 -8
-17 -19 -17 -10 -38 -30 -47 -43 l-17 -26 41 11 c23 6 50 19 60 29 10 10 25
18 34 18 14 0 14 3 4 15 -7 8 -20 15 -29 15 -14 0 -14 2 -1 10 8 5 30 10 49
10 28 0 43 -9 78 -45 38 -40 43 -51 42 -88 l-2 -42 -7 44 c-9 55 -73 121 -117
121 l-28 -1 28 -20 c58 -44 82 -138 53 -214 -7 -17 -5 -17 13 4 12 13 21 32
21 44 0 11 3 18 6 14 18 -18 -49 -127 -79 -127 -5 0 -3 8 6 18 8 9 16 22 17
27 0 6 5 28 11 49 15 56 4 106 -24 107 -17 1 -18 2 -4 6 21 6 21 12 1 34 -15
17 -19 17 -45 3 -34 -17 -37 -30 -8 -39 29 -10 59 -63 59 -107 0 -28 -8 -47
-31 -73 -37 -41 -65 -55 -169 -80 -41 -10 -77 -19 -79 -21 -3 -3 4 -11 15 -19
17 -13 16 -13 -12 -3 -24 9 -42 8 -80 -2 l-48 -14 34 -9 c19 -5 39 -13 44 -18
5 -5 -6 -4 -25 1 -58 17 -84 12 -125 -24 l-39 -34 45 5 c29 3 51 0 63 -9 15
-11 8 -13 -47 -10 -63 4 -65 3 -80 -27 -9 -16 -16 -32 -16 -34 0 -2 20 2 45
10 29 10 55 12 72 7 24 -7 20 -9 -32 -15 -82 -9 -92 -15 -99 -57 -10 -64 -8
-68 22 -39 16 15 44 32 63 37 62 18 65 10 6 -14 -80 -33 -97 -50 -90 -90 16
-87 67 -162 135 -197 51 -26 58 -24 58 14 0 30 36 105 45 95 3 -2 -4 -22 -15
-43 -11 -22 -20 -51 -20 -66 0 -26 4 -28 55 -34 63 -8 85 -3 85 22 0 23 36 83
50 83 6 0 2 -12 -9 -27 -11 -16 -22 -38 -26 -50 -5 -19 -2 -23 14 -23 23 0 33
10 61 58 11 17 25 32 30 32 6 0 -1 -16 -16 -35 -25 -34 -26 -35 -6 -35 12 0
27 7 34 16 7 8 21 24 30 34 16 18 16 19 0 24 -9 2 -53 7 -97 11 -79 7 -153 31
-186 61 -16 14 -20 12 -45 -20 -16 -20 -34 -50 -41 -68 -6 -19 -12 -25 -12
-15 -2 31 26 85 52 102 l25 16 -20 45 c-41 95 -17 213 55 268 31 24 177 89
184 82 2 -1 -35 -20 -81 -40 -46 -21 -95 -50 -109 -64 -54 -56 -71 -146 -43
-225 30 -83 84 -113 242 -132 63 -8 123 -20 132 -26 15 -9 15 -10 -2 -4 -18 5
-66 -28 -66 -45 0 -10 49 0 56 11 3 5 13 9 22 8 14 0 14 -2 -2 -8 -17 -6 -16
-9 11 -20 51 -21 68 -85 36 -131 -20 -30 -34 -40 -45 -34 -4 3 -5 -2 -2 -10 3
-9 2 -16 -4 -16 -5 0 -26 -7 -47 -16 -34 -14 -36 -16 -19 -28 26 -19 49 -9 32
13 -11 14 -11 14 2 4 19 -14 50 6 80 52 11 17 20 24 20 17 0 -21 -85 -99 -137
-125 -26 -14 -80 -34 -118 -46 -105 -31 -157 -68 -190 -135 -31 -64 -30 -117
6 -175 26 -44 18 -52 -10 -9 -11 18 -21 28 -21 21 0 -7 17 -30 39 -53 28 -29
43 -39 56 -34 14 6 16 4 10 -6 -6 -9 -4 -11 5 -5 8 5 35 7 62 6 40 -2 48 1 48
16 0 13 -3 14 -12 5 -19 -19 -44 -14 -78 14 -24 20 -28 29 -18 35 9 6 10 9 1
9 -17 0 -36 37 -44 85 -6 38 -7 37 -8 -17 -1 -53 2 -61 36 -100 l37 -43 -37
35 c-65 60 -70 150 -13 225 35 46 143 97 286 135 63 17 129 38 147 47 41 19
100 84 109 119 5 19 9 22 15 13 5 -8 6 10 4 41 -3 36 -1 50 5 40 7 -11 10 -6
10 18 0 20 -4 31 -10 27 -6 -4 -7 -11 -4 -17 4 -6 3 -9 -2 -5 -5 3 -25 2 -44
-2 -64 -14 -102 21 -114 106 -5 32 -4 30 9 -12 16 -57 44 -85 86 -85 21 0 45
15 90 56 33 30 66 53 72 51 30 -11 -6 -114 -37 -109 -26 5 -39 -19 -19 -33 14
-10 14 -19 3 -64 -7 -29 -10 -55 -6 -58 7 -7 26 40 27 70 1 13 4 8 8 -12 3
-19 11 -36 18 -38 8 -3 10 3 7 19 -4 13 -8 37 -10 53 l-4 30 10 -31 c11 -35
29 -47 51 -33 11 7 11 9 -3 9 -10 0 -18 4 -18 9 0 5 8 12 18 14 12 4 11 5 -6
6 -32 1 -36 21 -21 111 7 44 10 83 6 86 -3 4 -26 -5 -51 -20 -61 -36 -76 -34
-76 9 0 45 -46 98 -106 121 -60 23 -115 15 -247 -35 -75 -29 -116 -39 -139
-36 -26 4 -29 3 -13 -4 37 -18 108 -12 164 14 29 14 72 27 95 30 34 4 36 3 11
-4 -16 -4 -62 -22 -102 -39 -39 -18 -83 -32 -97 -32 -72 0 -146 65 -146 127 0
55 57 107 135 123 131 27 181 41 204 58 29 22 38 42 19 42 -35 0 -88 96 -65
119 8 8 8 11 0 11 -7 0 -15 -5 -18 -10 -3 -6 -21 -17 -38 -25 -18 -9 -23 -10
-12 -3 11 7 34 27 52 45 36 34 49 30 33 -13 -13 -33 3 -90 30 -104 45 -24 86
-12 154 45 35 30 69 55 75 55 18 0 12 -33 -14 -87 -34 -67 -50 -81 -77 -64
-17 10 -23 10 -39 -5 -10 -9 -19 -22 -18 -28 0 -6 3 -6 6 2 2 6 14 12 25 12
18 0 20 -4 13 -32 -4 -18 -9 -44 -12 -58 -4 -24 -4 -24 11 -6 9 11 16 27 16
35 0 9 5 23 10 31 6 10 7 -2 3 -37 -4 -37 -2 -53 6 -53 6 0 11 17 11 42 0 47
9 45 19 -3 4 -18 11 -34 17 -36 11 -4 11 32 -1 60 -12 29 3 80 45 149 45 76
57 113 41 132 -10 12 -19 12 -64 0 -70 -19 -83 -18 -63 1 58 59 16 267 -66
328 -25 18 -92 49 -102 47 -1 0 -20 -18 -43 -40z"/>
<path d="M1025 1877 c-38 -12 -53 -24 -58 -45 -2 -9 -3 -5 -1 10 l3 27 -29
-17 c-20 -12 -25 -19 -17 -25 8 -6 4 -7 -11 -4 -12 3 -20 1 -17 -3 3 -5 -1
-10 -7 -13 -7 -2 -9 -8 -5 -13 4 -5 12 -2 17 6 5 8 12 11 16 7 9 -9 -15 -37
-32 -37 -8 0 -14 8 -14 18 0 14 -2 15 -10 2 -5 -8 -10 -10 -10 -5 -1 6 -8 -3
-17 -20 -10 -16 -16 -33 -15 -36 0 -4 -4 -6 -11 -6 -7 0 -21 -1 -32 -2 -17 -2
-16 -4 8 -17 15 -8 31 -12 36 -9 5 3 8 -8 7 -24 -3 -39 25 -30 58 19 17 27 34
39 55 42 31 5 36 -2 32 -42 -1 -8 -24 -35 -51 -60 -27 -25 -52 -58 -56 -73 -6
-27 -6 -27 20 -16 15 7 29 23 33 37 3 13 23 44 44 69 22 24 39 54 40 66 0 21
1 21 9 2 7 -16 9 -13 9 18 1 24 -6 44 -19 57 -11 11 -15 21 -10 21 6 1 15 2
21 3 15 1 52 51 48 63 -3 6 -15 6 -34 0z"/>
<path d="M860 872 c0 -13 23 -37 53 -55 15 -10 27 -22 27 -27 0 -14 -49 -36
-97 -44 -55 -8 -86 -23 -102 -48 -11 -17 -10 -23 3 -36 15 -15 16 -14 16 13
l1 30 14 -32 c16 -38 34 -44 28 -9 -3 13 0 27 6 30 7 5 11 -2 11 -18 0 -14 5
-28 10 -31 6 -4 10 6 10 22 l0 28 19 -24 c18 -23 18 -23 24 -2 7 28 25 27 36
-1 9 -22 9 -22 16 6 10 37 -6 62 -36 58 -17 -1 -8 7 28 28 28 16 59 40 67 52
16 22 15 23 -31 33 -27 6 -58 17 -70 23 -26 14 -33 15 -33 4z"/>
<path d="M1540 535 c-8 -8 -43 -29 -78 -47 -69 -36 -83 -54 -107 -140 -9 -33
-29 -73 -46 -93 -21 -23 -26 -35 -16 -35 29 0 69 44 107 120 27 55 53 89 85
116 26 20 53 50 61 66 16 32 15 35 -6 13z"/>
</g>
</svg>
