<?xml version="1.0" standalone="no"?>
<!DOCTYPE svg PUBLIC "-//W3C//DTD SVG 20010904//EN"
 "http://www.w3.org/TR/2001/REC-SVG-20010904/DTD/svg10.dtd">
<svg version="1.0" xmlns="http://www.w3.org/2000/svg"
 width="225.000000pt" height="225.000000pt" viewBox="0 0 225.000000 225.000000"
 preserveAspectRatio="xMidYMid meet">
<metadata>
Created by potrace 1.15, written by Peter Selinger 2001-2017
</metadata>
<g transform="translate(0.000000,225.000000) scale(0.100000,-0.100000)"
fill="#000000" stroke="none">
<path d="M955 2160 c-3 -5 8 -18 25 -30 28 -20 77 -97 67 -106 -2 -3 -16 0
-31 6 -15 5 -37 10 -49 10 -20 -1 -19 -2 6 -16 33 -18 31 -41 -3 -36 -36 6
-130 -8 -130 -19 0 -5 14 -9 30 -9 20 0 30 -5 30 -15 0 -8 -7 -15 -16 -15 -19
0 -133 -53 -134 -62 0 -4 12 -8 28 -10 l27 -3 -32 -17 c-17 -10 -45 -39 -63
-64 l-31 -47 25 5 c32 6 32 -6 1 -57 -14 -22 -25 -51 -25 -64 0 -23 1 -23 19
-7 18 16 19 15 23 -51 3 -42 14 -93 31 -134 17 -42 27 -84 27 -117 0 -29 -2
-52 -4 -52 -18 0 -98 45 -106 60 -14 26 -1 112 21 133 11 10 19 21 19 25 -1
12 -29 57 -30 47 0 -5 -4 -4 -9 4 -6 9 -11 -2 -15 -34 -10 -62 -32 -55 -28 10
1 26 -2 53 -8 60 -14 17 -57 16 -71 -1 -8 -10 -8 -14 0 -14 6 0 11 5 11 10 0
6 3 10 8 10 9 0 15 -97 6 -111 -11 -18 -34 12 -34 46 0 32 -13 45 -44 45 -14
0 -10 -46 5 -65 9 -13 29 -85 36 -135 3 -21 15 -44 31 -58 21 -17 24 -24 14
-31 -11 -7 -11 -9 2 -14 9 -4 15 -3 15 1 -3 19 2 25 11 12 8 -12 10 -11 10 8
0 12 4 22 9 22 15 0 33 -57 29 -97 -2 -26 1 -37 10 -36 7 2 12 -7 12 -20 0
-13 11 -34 25 -47 14 -13 25 -30 25 -39 0 -11 3 -12 12 -3 9 9 9 18 0 37 -15
33 -15 35 1 35 7 0 18 -20 25 -44 8 -33 19 -48 39 -58 16 -7 29 -23 31 -36 5
-31 22 -17 22 18 0 21 -8 33 -35 49 -19 11 -35 25 -35 31 0 17 46 11 74 -11
20 -16 26 -30 27 -62 1 -23 4 -53 8 -67 6 -21 8 -18 14 24 12 82 8 102 -23
141 -31 39 -35 65 -12 73 7 2 12 -6 13 -20 l0 -23 10 24 c12 31 2 66 -15 52
-17 -14 -29 -1 -15 15 9 11 19 8 53 -14 22 -15 53 -34 68 -41 30 -16 47 -73
27 -97 -7 -9 -8 -14 -1 -14 15 0 42 40 42 62 0 21 11 23 28 6 19 -19 14 -47
-14 -75 -56 -56 -52 -133 6 -133 12 1 11 3 -2 11 -11 6 -18 22 -18 39 0 24 8
35 40 55 23 14 49 39 58 54 17 28 19 29 50 15 30 -12 52 -46 52 -79 0 -43
-109 -125 -167 -125 -39 -1 -106 -29 -70 -30 33 0 8 -18 -44 -30 -29 -7 -66
-25 -85 -42 -35 -31 -46 -62 -19 -52 21 9 19 -5 -10 -51 -16 -26 -24 -54 -24
-80 0 -22 3 -34 6 -27 7 18 23 5 23 -19 0 -30 20 -64 29 -50 6 8 20 5 51 -13
46 -26 46 -26 -7 -42 -7 -2 -13 -13 -13 -24 0 -14 4 -19 12 -14 7 5 9 2 5 -8
-9 -26 5 -30 17 -5 6 12 23 24 36 25 l25 4 -29 -30 c-26 -28 -27 -33 -16 -66
6 -20 16 -36 21 -36 6 0 8 8 4 19 -3 12 0 21 10 25 8 3 15 12 15 21 0 8 5 15
10 15 11 0 13 -12 11 -46 -3 -32 22 -48 48 -32 12 7 21 20 21 28 0 12 -2 12
-9 2 -6 -10 -10 -10 -20 2 -11 13 -9 20 8 42 12 15 21 35 21 45 0 23 7 23 51
5 100 -42 101 -149 2 -235 -54 -48 -137 -79 -165 -62 -23 14 -61 15 -52 0 4
-7 -1 -10 -12 -7 -10 2 -29 19 -42 38 -22 33 -78 68 -90 56 -3 -3 3 -15 13
-26 10 -11 14 -20 9 -20 -5 0 -21 14 -36 30 -19 22 -35 30 -60 30 -37 0 -52 8
-61 30 -3 9 -6 3 -6 -13 -1 -23 5 -30 37 -43 53 -21 65 -29 70 -45 2 -9 -1 -8
-11 4 -21 25 -30 21 -22 -10 11 -47 22 -53 101 -53 48 0 74 -4 74 -11 0 -7
-10 -9 -27 -5 l-28 6 29 -16 c23 -13 34 -14 53 -5 14 6 57 16 96 21 39 6 87
20 106 31 21 12 37 17 39 11 6 -19 31 -1 54 39 12 21 26 39 30 39 5 0 6 -4 3
-10 -3 -5 -2 -10 4 -10 16 0 31 36 31 75 0 29 3 36 15 31 22 -8 19 46 -5 94
-13 26 -16 40 -8 42 6 2 9 9 5 15 -10 16 -115 63 -142 63 -42 0 -59 65 -34
127 l12 28 10 -27 c13 -34 42 -49 31 -15 -14 42 -5 62 51 113 30 28 55 59 55
68 0 14 56 75 71 76 3 0 11 -23 18 -50 10 -40 10 -54 1 -65 -16 -19 -30 -19
-30 0 0 8 -4 15 -10 15 -5 0 -10 -4 -10 -9 0 -5 -12 -23 -26 -40 -17 -21 -21
-31 -12 -31 8 0 19 5 26 12 14 14 27 4 19 -16 -3 -8 -19 -17 -36 -21 -31 -7
-61 -38 -61 -63 0 -10 4 -10 16 2 8 9 24 16 35 16 11 0 30 5 41 11 19 10 20 9
14 -15 -3 -14 -2 -26 3 -26 14 0 30 25 37 58 8 39 23 43 17 5 -4 -27 -4 -27
11 -9 9 11 16 30 16 43 0 15 10 28 31 39 25 13 30 20 26 41 -4 20 1 27 24 35
16 5 29 14 29 19 0 5 5 9 10 9 6 0 10 -6 9 -12 -1 -7 0 -20 1 -28 5 -33 18 39
19 104 1 53 -2 66 -11 59 -7 -6 -23 -13 -35 -16 -21 -5 -22 -3 -16 39 4 32 1
50 -11 69 l-17 26 -18 -22 c-27 -34 -47 -19 -54 41 -4 29 -17 71 -31 94 -23
39 -108 129 -151 160 -17 13 -18 18 -7 35 6 12 12 31 12 43 0 18 -2 20 -9 8
-6 -8 -8 -17 -6 -20 2 -4 -2 -7 -10 -7 -15 0 -19 17 -17 67 1 21 -1 20 -10 -7
-13 -41 -28 -43 -28 -4 0 16 -6 31 -15 35 -10 4 -15 -1 -15 -14 0 -11 -9 -29
-19 -39 -19 -19 -20 -19 -83 7 -83 36 -86 38 -102 75 -46 111 26 235 139 239
44 2 71 -20 37 -28 -33 -9 -16 -24 29 -24 29 0 39 -4 39 -16 0 -10 -6 -14 -15
-10 -9 3 -15 0 -15 -9 0 -11 11 -15 36 -15 31 0 35 -2 24 -15 -7 -8 -20 -15
-29 -16 -11 0 -9 -3 7 -9 12 -5 28 -7 36 -4 7 3 16 -2 19 -10 8 -21 24 -20 30
2 4 16 5 16 6 0 1 -24 -38 -58 -68 -58 -16 0 -39 15 -68 46 -24 26 -43 44 -43
40 0 -19 49 -78 78 -93 32 -17 34 -17 71 3 34 19 39 19 50 5 9 -12 13 -13 17
-3 8 18 24 4 24 -22 0 -17 5 -23 18 -22 13 1 16 -6 14 -29 -3 -29 -3 -29 12
-10 16 23 21 20 44 -26 20 -40 48 -54 37 -19 -6 19 -4 22 10 16 12 -4 16 -2
12 7 -3 8 2 21 11 30 44 42 51 53 42 66 -4 8 -6 30 -3 50 l6 36 -22 -27 c-24
-30 -61 -38 -61 -13 0 8 -7 15 -15 15 -24 0 -17 15 13 27 l27 11 -26 1 c-32 1
-60 54 -40 74 8 8 11 8 11 -2 0 -8 6 -11 15 -7 14 5 20 -6 15 -29 -1 -5 8 -1
19 9 22 20 20 22 35 -28 3 -7 -1 -20 -7 -27 -10 -11 -9 -11 4 -1 10 8 14 21
11 37 -2 14 0 25 7 25 5 0 8 -8 4 -17 -5 -15 -3 -14 10 2 13 17 19 18 36 8 18
-11 19 -10 14 5 -6 14 -4 15 8 5 11 -9 14 -23 11 -45 -5 -30 -3 -32 12 -19 9
7 16 19 16 25 0 6 -5 4 -10 -4 -9 -13 -10 -13 -10 0 0 16 20 51 20 36 0 -5 6
-3 14 3 8 7 13 26 13 44 -2 30 -4 32 -48 37 -71 8 -124 53 -89 75 18 11 11 64
-11 86 l-21 21 7 -21 c12 -39 -22 -23 -90 44 -36 36 -70 65 -76 65 -5 0 -31
20 -58 45 -50 47 -104 75 -143 75 -21 -1 -21 -2 -5 -11 9 -5 22 -7 29 -3 7 4
8 3 4 -4 -4 -6 5 -17 21 -26 22 -11 103 -106 91 -106 -2 0 -18 4 -36 10 -29 8
-32 7 -21 -6 22 -27 1 -27 -45 0 -47 27 -58 31 -53 19 1 -5 -2 -10 -8 -12 -5
-2 -24 21 -42 51 -30 52 -56 76 -95 91 -10 3 -20 2 -23 -3z m61 -27 c11 -7 35
-40 54 -73 32 -56 74 -91 112 -90 7 1 -2 7 -20 15 -18 8 -31 19 -28 24 3 5 24
0 46 -11 39 -20 78 -18 65 2 -12 20 13 10 50 -20 49 -39 60 -39 15 0 -19 16
-30 29 -25 30 6 0 25 -13 43 -30 39 -35 38 -35 45 -11 3 15 -5 23 -37 37 -34
16 -165 134 -147 134 13 0 63 -38 77 -59 9 -12 33 -30 55 -42 42 -21 119 -92
119 -109 0 -21 -20 -9 -35 21 -9 17 -19 28 -22 25 -9 -8 24 -54 48 -67 15 -8
19 -8 15 0 -11 17 10 13 24 -4 10 -12 10 -15 0 -15 -10 0 -10 -3 -1 -14 8 -10
1 -9 -24 4 -20 10 -43 27 -49 36 -9 12 -15 14 -20 6 -5 -9 -18 -6 -47 8 -21
11 -39 18 -39 14 0 -4 -7 -1 -16 6 -8 8 -30 15 -47 16 -18 1 -25 0 -17 -3 38
-15 70 -46 70 -69 0 -32 -41 -34 -55 -2 -6 12 -40 37 -77 55 -51 26 -70 42
-82 68 -9 19 -23 51 -32 70 -9 19 -19 35 -23 35 -3 0 -17 9 -31 20 -20 16 -21
19 -5 13 11 -3 29 -12 41 -20z m18 -123 c14 -5 30 -19 36 -31 7 -12 8 -19 3
-16 -5 3 -31 0 -59 -8 -27 -7 -42 -14 -34 -14 25 -2 -11 -21 -40 -21 -14 0
-38 -7 -54 -15 -15 -8 -36 -15 -45 -15 -12 0 -13 -2 -4 -8 15 -9 -20 -63 -57
-89 -11 -8 -17 -19 -14 -25 5 -7 2 -8 -6 -3 -10 6 -12 4 -7 -9 4 -9 0 -33 -8
-53 -12 -28 -12 -33 -2 -24 12 9 14 -3 14 -66 0 -49 4 -78 12 -81 13 -4 15
-32 1 -32 -10 0 -28 58 -32 105 -2 22 -8 30 -20 29 -23 -2 -23 8 2 48 25 41
27 80 4 71 -31 -12 29 65 63 81 34 16 42 31 21 39 -16 5 50 47 73 47 9 0 22 7
29 15 11 13 10 18 -6 31 -17 14 -14 15 43 11 69 -6 77 -3 62 24 -11 22 -9 22
25 9z"/>
</g>
</svg>
