<?xml version="1.0" standalone="no"?>
<!DOCTYPE svg PUBLIC "-//W3C//DTD SVG 20010904//EN"
 "http://www.w3.org/TR/2001/REC-SVG-20010904/DTD/svg10.dtd">
<svg version="1.0" xmlns="http://www.w3.org/2000/svg"
 width="225.000000pt" height="225.000000pt" viewBox="0 0 225.000000 225.000000"
 preserveAspectRatio="xMidYMid meet">
<metadata>
Created by potrace 1.15, written by Peter Selinger 2001-2017
</metadata>
<g transform="translate(0.000000,225.000000) scale(0.100000,-0.100000)"
fill="#000000" stroke="none">
<path d="M1505 1789 c-211 -125 -417 -276 -439 -323 -10 -22 -16 -61 -16 -108
0 -88 -7 -98 -92 -122 -71 -20 -94 -20 -102 0 -9 23 11 43 34 37 32 -9 26 33
-7 49 -33 16 -45 58 -16 58 10 0 29 -7 41 -16 21 -15 22 -14 22 16 0 25 -7 35
-35 52 -56 32 -40 64 23 44 19 -6 22 -4 22 19 0 18 -9 31 -30 43 -38 22 -38
32 0 32 40 0 38 16 -5 41 -66 39 -67 73 -6 114 19 14 30 25 22 25 -10 0 -12 9
-8 35 6 35 -7 46 -29 26 -5 -5 -34 -16 -64 -26 -30 -10 -59 -20 -65 -23 -5 -3
-56 -6 -113 -6 -93 -1 -106 -3 -121 -22 -12 -15 -33 -23 -73 -27 -63 -8 -136
-36 -157 -61 -16 -19 -16 -19 69 -16 61 1 67 0 93 -29 l27 -31 -92 1 c-51 0
-87 3 -80 6 23 9 12 22 -25 29 -47 9 -118 39 -127 53 -13 20 -28 12 -20 -11
12 -40 62 -105 106 -137 49 -36 63 -39 48 -11 -10 19 -8 20 48 20 104 0 120
-7 134 -54 6 -22 17 -47 24 -55 11 -12 15 -9 28 20 8 19 15 28 15 22 2 -22 19
-14 25 10 6 27 51 53 62 36 3 -6 -1 -18 -10 -28 -9 -10 -16 -27 -16 -38 0 -11
-7 -26 -15 -33 -8 -7 -15 -23 -15 -36 0 -13 -4 -24 -9 -24 -5 0 -14 -15 -21
-32 -7 -18 -18 -47 -26 -63 -7 -17 -12 -39 -10 -50 2 -11 -4 -30 -12 -42 -14
-22 -13 -59 2 -94 10 -23 -20 -51 -42 -39 -9 5 -36 17 -59 27 -26 11 -43 25
-43 35 0 10 -9 22 -20 28 -13 7 -20 21 -20 41 0 17 -7 47 -17 66 -16 34 -16
35 9 56 27 23 44 90 32 121 -9 24 -18 19 -33 -16 l-14 -33 -7 38 c-8 42 -32
71 -68 82 -23 7 -23 6 -8 -18 12 -18 15 -36 10 -66 l-7 -42 -29 35 c-22 27
-37 36 -60 36 -31 0 -31 0 -12 -21 10 -11 19 -26 20 -32 0 -7 2 -24 2 -38 1
-15 13 -37 26 -50 21 -21 24 -29 19 -79 -4 -41 -13 -65 -35 -93 -16 -20 -27
-41 -23 -46 3 -5 -6 -18 -20 -29 -30 -24 -32 -32 -5 -32 30 0 89 33 90 51 0 8
6 24 14 34 12 17 15 15 35 -29 12 -29 43 -69 76 -99 64 -58 111 -135 121 -195
8 -53 21 -50 54 11 26 48 56 64 109 55 20 -3 20 -5 6 -32 -8 -15 -15 -35 -15
-43 0 -8 -7 -21 -15 -29 -8 -9 -15 -26 -15 -39 0 -26 -48 -72 -85 -81 -13 -3
-42 3 -67 14 -70 31 -113 36 -134 15 -17 -17 -17 -18 9 -21 33 -4 37 -32 5
-32 -26 0 -36 -7 -58 -34 -14 -18 -13 -19 10 -13 29 7 70 -1 70 -14 0 -5 -6
-9 -14 -9 -14 0 -26 -21 -26 -46 0 -13 3 -13 20 -1 14 10 36 13 65 9 31 -3 52
0 69 12 14 9 42 16 61 16 20 0 45 5 56 11 16 8 30 5 66 -12 39 -19 51 -20 76
-11 20 8 36 8 48 1 14 -7 19 -6 19 3 -1 31 -44 58 -93 58 -44 0 -51 14 -28 58
25 49 150 183 151 162 0 -8 10 -35 21 -60 l21 -45 18 35 c11 19 19 42 20 51 0
19 46 43 75 40 12 -1 38 10 58 24 45 30 87 34 87 7 0 -28 89 -104 130 -111 26
-5 36 -12 38 -29 2 -12 -1 -22 -7 -22 -5 0 -16 -6 -23 -13 -7 -7 -35 -18 -61
-25 -45 -11 -52 -11 -82 8 -18 11 -38 27 -45 35 -25 30 -120 13 -120 -22 0
-11 7 -14 26 -10 16 3 28 0 31 -9 3 -8 13 -14 22 -14 23 -1 65 -26 54 -33 -5
-3 -22 1 -37 9 -42 21 -113 19 -126 -5 -15 -29 -12 -40 10 -34 32 8 51 -13 38
-43 -14 -30 -6 -39 21 -24 12 6 26 8 32 5 5 -4 27 1 47 11 55 26 176 27 226 2
26 -13 49 -18 69 -14 16 3 36 1 43 -4 8 -8 14 -8 19 0 10 17 -11 36 -62 55
l-47 18 52 25 c31 14 74 48 107 83 l54 59 41 -16 c48 -19 54 -16 45 24 -6 31
-28 45 -90 57 -48 9 -95 42 -95 66 0 12 13 36 29 55 l29 33 46 -30 c26 -16 56
-29 66 -29 11 0 28 -4 38 -9 9 -6 62 -14 116 -20 58 -6 105 -16 113 -24 19
-19 24 -128 6 -145 -7 -7 -13 -24 -13 -37 0 -30 -41 -59 -70 -50 -11 4 -41 22
-66 41 -42 33 -47 34 -84 24 -29 -8 -40 -16 -40 -30 0 -13 5 -18 15 -14 8 4
23 3 32 0 14 -6 10 -11 -22 -29 -26 -15 -41 -31 -43 -46 -4 -22 -3 -23 19 -8
15 11 27 13 40 7 10 -6 26 -7 36 -4 11 4 6 -5 -14 -25 -36 -35 -45 -68 -15
-56 9 4 36 13 58 20 23 7 51 19 62 26 16 10 29 10 57 2 29 -9 43 -8 71 3 33
14 39 13 80 -6 24 -12 48 -19 54 -15 5 3 19 1 31 -5 25 -14 33 -8 25 18 -4 11
-28 29 -55 41 -57 24 -66 41 -49 90 7 20 12 80 13 133 0 54 2 98 3 98 2 0 15
-9 28 -19 23 -18 64 -18 64 -1 0 15 -67 67 -150 116 -69 40 -80 50 -59 52 66
8 155 49 205 95 66 60 88 110 74 173 -8 37 -7 57 6 99 l17 54 34 -29 c53 -47
64 -41 47 23 -8 30 -14 100 -14 165 l0 113 -125 -127 c-69 -70 -122 -130 -119
-133 3 -3 28 -5 55 -4 52 2 57 -2 35 -32 -12 -16 -17 -17 -45 -6 -42 18 -130
10 -164 -15 -31 -22 -52 -81 -43 -117 3 -14 22 -35 42 -47 30 -19 45 -22 95
-17 65 6 75 -4 29 -28 -38 -19 -142 -20 -217 0 -31 8 -88 15 -125 15 -37 0
-68 4 -68 10 0 21 87 60 133 60 l47 0 -20 33 c-37 60 -19 130 48 188 40 34 66
50 107 64 18 6 17 9 -12 23 -66 32 -53 82 43 167 36 32 63 59 61 61 -2 2 -77
-25 -167 -61 -89 -36 -171 -65 -181 -65 -10 0 -25 7 -33 16 -18 18 -21 85 -5
115 20 39 3 38 -66 -2z"/>
</g>
</svg>
