<?xml version="1.0" standalone="no"?>
<!DOCTYPE svg PUBLIC "-//W3C//DTD SVG 20010904//EN"
 "http://www.w3.org/TR/2001/REC-SVG-20010904/DTD/svg10.dtd">
<svg version="1.0" xmlns="http://www.w3.org/2000/svg"
 width="225.000000pt" height="225.000000pt" viewBox="0 0 225.000000 225.000000"
 preserveAspectRatio="xMidYMid meet">
<metadata>
Created by potrace 1.15, written by Peter Selinger 2001-2017
</metadata>
<g transform="translate(0.000000,225.000000) scale(0.100000,-0.100000)"
fill="#000000" stroke="none">
<path d="M1661 2077 c-1 -10 -7 -17 -13 -14 -18 5 -51 -35 -79 -97 -13 -28
-26 -53 -29 -56 -3 -3 -6 -18 -7 -35 -17 -213 5 -290 151 -515 96 -149 122
-222 114 -318 -3 -32 -15 -77 -27 -100 l-21 -41 -47 29 c-26 17 -53 30 -60 30
-7 0 -13 6 -13 13 0 8 -10 13 -22 13 -24 -1 -25 1 -14 47 l7 28 -27 -18 c-26
-17 -27 -17 -20 5 6 16 3 22 -8 22 -14 0 -16 24 -15 193 0 199 -12 290 -47
344 -8 12 -14 27 -14 33 0 6 -11 23 -24 37 -14 15 -23 30 -20 34 2 4 -12 17
-31 29 -31 19 -33 24 -24 42 11 20 9 21 -25 15 -33 -5 -36 -4 -36 19 0 27 -12
31 -30 9 -19 -23 -26 -19 -44 25 -9 22 -19 40 -23 40 -5 -1 -19 -14 -33 -30
-30 -37 -40 -38 -40 -2 -1 26 -2 25 -27 -16 l-26 -43 -18 28 c-11 15 -19 34
-19 42 0 23 -10 6 -15 -25 -12 -84 -33 -112 -54 -72 -6 13 -9 15 -7 6 3 -10 1
-20 -4 -23 -4 -3 -7 -13 -5 -23 1 -9 -2 -25 -7 -35 -9 -18 -11 -18 -29 -1 -18
16 -19 16 -19 0 0 -11 5 -14 12 -10 8 5 9 2 5 -10 -4 -10 -7 -26 -7 -36 0 -10
-6 -25 -14 -33 -13 -12 -9 -16 25 -26 26 -8 39 -18 39 -29 -1 -16 -1 -16 -11
1 -6 10 -22 17 -38 17 -23 0 -29 -5 -34 -27 -13 -70 -7 -181 14 -258 12 -44
22 -87 23 -95 0 -8 4 -17 7 -20 27 -24 64 -290 40 -290 -6 0 -11 -7 -11 -15 0
-8 4 -15 8 -15 5 0 7 -14 4 -30 -2 -17 -10 -30 -19 -30 -8 0 -11 -5 -7 -12 5
-8 2 -9 -9 -5 -12 4 -17 1 -17 -11 -1 -16 -2 -16 -14 1 -13 17 -15 17 -24 1
-9 -16 -10 -15 -16 4 -7 21 -8 21 -31 -6 -21 -23 -24 -24 -25 -8 0 18 -1 18
-20 1 -19 -17 -20 -17 -20 1 -1 16 -3 15 -15 -7 -7 -14 -25 -30 -39 -37 -24
-11 -26 -9 -36 26 -14 52 -12 95 5 118 11 15 15 16 15 4 1 -8 8 1 15 20 12 32
14 33 15 10 1 -21 5 -18 24 22 17 36 26 44 34 36 9 -9 12 -3 12 25 0 25 5 37
14 37 8 0 16 15 20 38 3 20 8 55 11 77 4 22 9 47 12 55 4 8 5 19 4 25 -1 5 -3
23 -3 40 0 16 -11 49 -23 73 -13 23 -20 42 -15 42 15 0 -34 44 -63 57 -24 11
-73 90 -63 101 3 2 29 8 58 12 29 4 41 8 26 9 -33 1 -38 21 -5 22 18 0 19 2 5
7 -13 5 -15 11 -8 22 19 30 15 30 -75 7 -5 -2 -21 -9 -34 -16 -14 -8 -21 -9
-17 -2 4 6 3 11 -1 11 -5 0 -14 9 -21 21 -12 19 -11 19 8 9 11 -6 20 -15 20
-21 0 -6 5 -7 11 -3 7 4 1 13 -16 24 -20 13 -36 15 -68 9 -48 -8 -65 -3 -21 6
46 10 51 13 24 14 -14 1 -35 -6 -46 -14 -12 -8 -24 -11 -28 -8 -3 3 -6 2 -6
-3 0 -5 -15 -9 -34 -9 -19 0 -32 3 -29 8 2 4 0 7 -5 7 -15 0 -40 -33 -47 -62
-4 -16 -13 -28 -21 -28 -7 0 -16 -11 -19 -25 -3 -14 -7 -36 -10 -49 -4 -18
-11 -23 -32 -24 -89 0 -104 -3 -123 -22 -21 -21 -27 -60 -9 -60 6 0 19 -10 30
-22 16 -20 20 -21 29 -8 7 11 10 11 10 2 0 -7 5 -10 10 -7 6 3 10 2 10 -3 0
-5 27 -8 61 -6 51 3 60 1 55 -12 -3 -9 -6 -20 -6 -25 0 -5 -26 -9 -57 -10
l-58 -1 40 -12 40 -13 -30 -8 -30 -9 35 -6 35 -7 -31 -2 c-16 0 -34 3 -40 7
-5 4 -27 5 -49 2 l-40 -6 35 -22 c19 -12 41 -22 48 -22 6 0 12 -6 12 -12 0 -7
8 -22 16 -33 16 -20 16 -20 9 2 -5 18 -3 22 9 17 9 -3 16 -1 16 5 0 6 6 11 13
11 7 0 28 11 47 25 18 13 37 22 42 19 5 -3 14 -1 21 4 7 5 19 10 27 10 8 0 53
7 99 16 46 9 88 13 94 9 13 -8 1 -88 -20 -121 -9 -15 -42 -54 -73 -87 -110
-117 -140 -203 -114 -328 8 -38 20 -77 28 -88 13 -19 11 -69 -3 -69 -17 0
-120 33 -156 51 -35 16 -46 17 -73 7 -55 -21 -74 -94 -28 -111 10 -4 18 5 26
29 13 39 30 45 30 12 0 -44 -12 -68 -36 -74 -27 -7 -23 -25 4 -19 38 7 71 25
84 44 17 24 38 23 140 -6 51 -14 60 -14 80 -1 21 14 26 13 60 -10 21 -13 57
-29 81 -35 67 -16 184 -10 252 13 103 36 95 36 85 -1 -6 -19 -10 -47 -9 -64 1
-29 1 -29 20 13 22 48 38 55 32 15 l-5 -28 16 29 c9 15 13 33 10 40 -4 6 0 4
8 -4 9 -8 20 -30 26 -48 10 -28 8 -35 -10 -52 -12 -11 -25 -20 -30 -20 -4 0
-8 -4 -8 -10 0 -16 33 -11 56 8 11 9 28 29 37 44 l17 27 47 -15 c79 -26 89
-27 106 -9 27 26 19 35 -150 169 -41 33 -42 34 -23 51 11 10 20 24 20 31 0 7
8 27 17 46 9 18 20 41 25 50 4 9 10 59 13 110 4 51 8 98 9 103 3 9 -4 68 -18
165 -7 45 -37 170 -57 235 -18 57 -14 194 5 213 14 14 16 14 22 -4 4 -10 12
-26 19 -34 26 -34 36 -102 39 -270 2 -194 7 -219 67 -334 20 -37 20 -43 7 -98
-19 -75 -6 -98 53 -98 21 0 39 -4 39 -9 0 -13 -62 -87 -92 -111 -15 -12 -46
-27 -69 -33 -44 -13 -54 -32 -16 -31 12 0 25 -5 29 -10 5 -7 8 -7 8 2 0 6 7
12 16 12 10 0 14 -5 10 -15 -5 -13 -2 -14 22 -1 16 8 34 21 41 29 10 13 16 13
38 2 14 -8 30 -20 34 -27 7 -11 9 -11 9 1 0 7 -12 27 -26 44 -22 26 -24 33
-12 41 8 6 22 25 31 42 28 54 41 59 141 56 50 -1 105 1 121 6 22 6 36 5 53 -6
13 -9 40 -18 60 -21 34 -6 39 -11 59 -61 24 -60 19 -85 -20 -100 -17 -6 -19
-9 -7 -14 13 -5 61 -14 98 -18 6 -1 12 -5 12 -10 0 -5 5 -6 11 -3 5 4 19 -1
29 -10 33 -30 29 0 -6 39 -19 21 -37 49 -40 61 -3 13 -17 44 -30 71 -13 26
-24 55 -24 64 0 17 -29 53 -56 68 -15 8 -14 15 14 64 49 86 65 161 54 262 -12
106 -44 177 -141 311 -132 181 -178 304 -167 442 6 77 19 115 50 151 25 28 78
30 105 3 11 -11 21 -17 23 -15 9 9 69 -77 89 -128 17 -43 21 -76 23 -175 0
-67 4 -125 9 -129 4 -4 7 0 7 9 0 8 4 17 10 19 14 5 22 195 10 254 -11 52 -61
141 -102 182 -12 12 -18 22 -13 23 23 2 -93 29 -127 29 -20 0 -39 6 -41 13 -3
7 -6 4 -6 -6z"/>
</g>
</svg>
