<?xml version="1.0" standalone="no"?>
<!DOCTYPE svg PUBLIC "-//W3C//DTD SVG 20010904//EN"
 "http://www.w3.org/TR/2001/REC-SVG-20010904/DTD/svg10.dtd">
<svg version="1.0" xmlns="http://www.w3.org/2000/svg"
 width="225.000000pt" height="225.000000pt" viewBox="0 0 225.000000 225.000000"
 preserveAspectRatio="xMidYMid meet">
<metadata>
Created by potrace 1.15, written by Peter Selinger 2001-2017
</metadata>
<g transform="translate(0.000000,225.000000) scale(0.100000,-0.100000)"
fill="#000000" stroke="none">
<path d="M1581 2081 c-20 -25 -29 -46 -26 -61 3 -16 -1 -24 -15 -27 -18 -5
-24 -15 -21 -35 0 -5 -4 -8 -10 -8 -5 0 -8 -4 -5 -9 4 -5 2 -11 -3 -13 -5 -1
-11 -19 -13 -38 -1 -19 -7 -38 -12 -42 -15 -10 -14 -88 0 -103 11 -11 11 -14
-1 -19 -10 -3 -15 1 -16 12 -4 51 -18 -78 -18 -166 -1 -98 0 -102 18 -90 15 9
17 16 10 30 -7 13 -6 18 2 16 16 -4 20 34 5 46 -8 6 -16 23 -20 38 -5 23 -2
28 18 34 15 3 27 17 34 37 9 31 9 31 8 -13 -1 -25 -7 -54 -13 -65 -13 -24 -12
-57 2 -68 6 -5 5 -12 -5 -20 -8 -6 -16 -23 -18 -36 -1 -13 -16 -39 -32 -58
-17 -18 -30 -37 -30 -41 0 -9 -95 -45 -117 -45 -7 0 -13 -4 -13 -9 0 -5 -8 -8
-17 -7 -10 1 -38 -4 -63 -11 -25 -7 -50 -13 -57 -11 -6 1 -14 -3 -18 -9 -4 -6
6 -10 24 -10 16 0 32 4 35 9 8 13 46 21 46 10 0 -6 -16 -17 -35 -25 -28 -12
-44 -12 -76 -4 -23 6 -44 9 -47 6 -3 -3 0 -6 6 -6 7 0 12 -12 13 -27 1 -16 5
-39 10 -53 6 -20 8 -17 6 19 -1 25 3 46 9 48 11 4 19 -26 31 -112 3 -22 14
-51 25 -65 l20 -25 -6 35 c-3 19 -8 63 -11 98 -5 53 -4 62 10 62 9 0 26 -11
39 -25 23 -25 30 -55 13 -55 -5 0 -4 -7 3 -15 10 -12 10 -15 -4 -15 -9 0 -16
5 -16 11 0 5 -5 7 -11 3 -8 -4 -3 -12 12 -20 13 -7 18 -13 10 -14 -10 0 -11
-3 -2 -14 9 -11 7 -15 -9 -19 -11 -3 -20 -11 -20 -17 0 -10 3 -10 15 0 10 8
15 9 15 1 0 -6 -12 -14 -26 -17 -14 -4 -22 -9 -17 -13 18 -12 22 -40 8 -51 -8
-7 -13 -16 -10 -20 3 -5 -4 -6 -15 -3 -11 3 -23 10 -27 16 -3 5 -1 7 4 4 6 -4
13 -1 16 7 3 8 -1 17 -9 20 -23 9 -36 7 -29 -4 3 -5 2 -10 -4 -10 -5 0 -11 14
-13 32 -3 34 -15 43 -37 29 -12 -8 -10 -16 12 -45 15 -19 27 -45 27 -58 1 -13
8 -34 16 -48 l15 -25 -4 25 c-2 19 1 26 14 26 10 0 15 -4 13 -8 -3 -4 0 -8 6
-8 6 0 13 6 16 13 3 8 11 14 19 14 11 0 12 -4 3 -14 -8 -11 -7 -12 6 -7 9 3
16 10 16 15 0 5 5 9 11 9 5 0 7 -4 4 -10 -3 -6 1 -7 10 -4 9 4 14 11 12 18 -2
6 6 18 17 28 12 10 16 17 9 18 -6 0 -14 -6 -16 -12 -3 -7 -6 -4 -6 8 -1 11 5
27 12 36 14 18 47 31 47 19 0 -4 16 -29 35 -55 21 -26 30 -46 23 -46 -9 0 -9
-3 2 -11 12 -8 10 -9 -9 -4 -16 5 -21 4 -17 -4 4 -6 2 -11 -3 -11 -6 0 -11 -4
-11 -10 0 -5 6 -9 13 -7 7 1 12 -9 12 -25 0 -14 4 -30 8 -34 4 -5 5 0 1 10 -5
14 -4 17 5 12 8 -5 10 -18 7 -35 -5 -17 -4 -21 2 -12 8 11 10 11 15 0 3 -8 5
-6 5 6 0 11 6 42 14 70 12 46 16 50 58 63 66 19 254 61 259 57 6 -7 -63 -45
-81 -45 -10 0 -18 -6 -18 -14 0 -8 -7 -22 -16 -30 -14 -15 -12 -16 18 -16 l33
-1 -25 -13 c-13 -8 -29 -29 -36 -47 -7 -21 -17 -33 -28 -33 -8 1 -13 -2 -10
-7 3 -5 11 -9 19 -9 11 0 30 -29 23 -35 -2 -2 -23 -5 -48 -9 -34 -4 -40 -3
-25 4 16 8 12 9 -17 5 -30 -5 -38 -3 -38 10 0 8 -5 15 -11 15 -5 0 -8 -4 -5
-9 4 -5 -3 -7 -15 -4 -16 5 -18 8 -7 15 9 6 5 7 -11 3 -14 -4 -21 -3 -18 2 3
5 -4 9 -16 8 -13 -1 -22 -8 -22 -18 0 -8 -4 -19 -9 -24 -5 -4 -6 -3 -2 5 4 7
2 12 -5 12 -8 0 -9 3 0 13 6 8 8 17 4 20 -3 4 -12 -1 -19 -11 -10 -14 -15 -15
-25 -5 -18 18 -25 16 -26 -8 -2 -16 3 -20 17 -16 11 3 25 -2 32 -12 11 -14 11
-14 -2 -4 -23 17 -48 0 -31 -21 7 -8 10 -19 7 -25 -3 -5 1 -11 9 -15 8 -3 15
-16 15 -28 0 -17 3 -19 9 -9 6 9 11 10 15 2 9 -13 -18 -25 -38 -18 -10 4 -13
1 -10 -7 3 -7 -3 -16 -13 -20 -9 -4 -14 -4 -11 0 4 3 -2 15 -12 26 -19 21 -34
62 -19 52 5 -3 8 -2 7 3 -1 4 4 19 11 33 l12 25 -20 -25 c-20 -25 -20 -25 -35
-5 -9 11 -13 26 -11 33 2 6 0 12 -5 12 -6 0 -10 -9 -10 -19 0 -11 -3 -28 -6
-38 -6 -17 -6 -17 7 0 14 17 15 16 17 -15 4 -51 57 -118 94 -118 12 0 19 3 16
6 -3 3 4 15 16 28 19 21 23 21 41 7 20 -16 20 -16 2 6 -13 15 -17 29 -11 45 4
12 7 35 6 50 0 22 4 28 21 28 20 0 20 0 1 15 -26 20 -14 19 59 -6 42 -14 74
-19 99 -15 24 4 38 2 38 -4 0 -6 -4 -8 -10 -5 -5 3 -10 2 -10 -4 0 -5 6 -11
13 -14 6 -2 -5 -6 -25 -8 -20 -3 -34 -1 -32 3 3 4 -2 8 -11 8 -11 0 -15 -5
-11 -15 3 -8 0 -15 -7 -15 -7 0 -4 -5 7 -11 14 -9 21 -8 28 2 8 11 9 11 5 -1
-2 -8 -15 -16 -29 -18 -15 -2 -29 -10 -32 -18 -3 -9 -1 -12 4 -9 6 3 10 -5 10
-18 0 -14 -7 -28 -17 -31 -15 -6 -15 -8 -3 -17 11 -8 9 -9 -8 -4 -15 4 -33 0
-50 -11 -15 -10 -30 -17 -34 -16 -5 1 -8 -4 -8 -12 0 -22 -31 -48 -48 -41 -12
5 -12 1 3 -15 10 -11 14 -20 9 -20 -5 0 0 -7 10 -15 11 -8 18 -15 15 -15 -2 0
-36 -9 -74 -20 -135 -39 -183 -42 -235 -15 -17 9 -30 13 -30 9 0 -3 -12 8 -26
25 -14 17 -30 29 -34 26 -5 -3 -11 3 -13 12 -3 12 -5 9 -6 -8 0 -14 2 -29 6
-33 4 -3 9 -17 11 -29 2 -12 5 -28 6 -35 1 -7 8 -18 14 -24 12 -12 16 0 15 40
-1 6 3 12 8 12 5 0 9 -6 9 -14 0 -17 11 -25 41 -31 28 -6 33 -11 24 -25 -5 -7
-22 -9 -49 -5 -22 3 -46 6 -53 7 -7 1 -10 5 -7 10 3 5 2 8 -3 7 -28 -5 -45 2
-39 17 3 8 2 12 -4 9 -19 -11 -10 -25 28 -44 32 -16 67 -23 155 -30 4 -1 7 -7
6 -14 -1 -6 -1 -24 0 -38 l1 -26 35 32 c37 35 143 68 188 58 19 -4 20 -3 5 7
-27 17 -22 28 21 49 39 20 39 20 44 1 3 -11 1 -18 -4 -14 -5 3 -8 -16 -7 -43
1 -39 2 -42 5 -14 3 19 11 40 19 48 17 18 44 10 44 -13 0 -8 10 -24 23 -35 19
-16 20 -18 4 -19 -10 0 -15 5 -12 10 3 6 1 10 -4 10 -17 0 -13 -14 9 -33 25
-21 30 -21 30 -3 0 8 6 17 13 19 7 3 5 6 -5 6 -22 1 -23 24 -2 56 13 20 14 28
4 40 -18 21 -6 29 38 27 30 -2 34 0 24 10 -24 24 -14 56 31 85 54 37 70 44
141 57 l60 12 -21 19 c-35 33 -55 84 -51 127 4 39 3 40 -27 34 -20 -4 -25 -3
-16 3 12 7 11 10 -5 14 -10 2 -1 2 21 0 36 -4 42 -1 57 26 9 16 35 42 59 58
23 15 53 36 68 45 24 16 24 18 5 18 -41 0 -58 24 -64 93 l-5 65 30 7 c17 3 25
9 19 13 -6 4 -13 15 -17 25 -3 9 -17 17 -29 17 -18 0 -20 2 -8 10 10 6 20 4
30 -5 13 -11 19 -11 40 1 l25 14 -28 -6 c-21 -5 -32 -2 -42 12 -7 11 -17 16
-21 12 -13 -13 -54 59 -54 95 0 37 17 94 34 116 6 7 11 20 11 28 0 8 11 21 25
29 14 9 17 13 8 10 -10 -3 -18 -1 -18 4 0 4 -13 11 -29 15 -27 6 -29 8 -19 30
6 14 19 27 29 30 9 3 23 13 31 22 11 15 11 16 -7 10 -20 -7 -20 -7 -1 8 21 16
13 18 -19 6 -26 -10 -81 5 -106 30 -11 11 -33 19 -53 19 -19 0 -36 5 -38 11
-2 7 -18 12 -36 13 -28 1 -30 3 -15 13 13 10 18 10 25 0 6 -9 8 -9 8 0 0 16
-37 36 -53 28 -6 -3 -2 2 11 11 21 16 32 42 13 29 -5 -3 -11 7 -13 22 -2 23
-7 27 -25 25 -17 -2 -21 1 -17 12 3 9 10 13 15 10 13 -7 -1 79 -14 87 -5 4 -5
9 2 13 6 4 11 13 11 19 0 7 -4 6 -10 -3 -11 -18 -15 -14 -24 25 -7 29 -7 29 9
10 9 -11 14 -15 11 -9 -3 6 1 22 9 37 8 15 10 27 4 27 -6 0 -7 5 -4 10 4 6 11
8 16 5 5 -4 9 0 9 9 0 8 3 22 7 32 4 12 3 15 -5 10 -20 -12 -26 23 -7 44 10
11 16 20 12 20 -3 0 -19 -17 -36 -39z m16 -490 c-2 -24 1 -38 7 -34 5 4 7 -1
3 -11 -4 -11 -3 -15 4 -11 6 4 8 13 6 19 -3 7 -1 19 5 27 8 11 9 11 4 -3 -3
-10 -1 -20 4 -23 6 -4 10 -1 10 6 0 15 15 2 15 -14 1 -7 6 -11 13 -9 7 1 12
-8 12 -19 0 -19 2 -20 16 -8 21 17 44 20 41 6 -3 -17 66 -11 106 8 6 3 1 -2
-13 -12 -23 -17 -78 -63 -143 -120 -15 -13 -25 -28 -22 -34 4 -5 1 -8 -7 -7
-8 2 -12 -5 -11 -17 1 -11 0 -14 -3 -7 -4 8 -25 -4 -66 -38 -33 -27 -65 -47
-70 -43 -7 3 -8 1 -4 -5 6 -11 -6 -16 -27 -13 -4 0 -6 -5 -5 -12 2 -6 -5 -11
-14 -11 -10 1 -16 -2 -15 -7 1 -5 -29 -23 -68 -39 -74 -32 -106 -39 -65 -14
21 13 22 14 4 9 -14 -4 -24 0 -27 9 -4 11 -1 13 10 9 11 -4 14 -2 9 5 -5 8 0
12 13 12 11 0 23 5 27 12 5 8 1 9 -12 5 -18 -7 -18 -6 1 8 39 28 44 35 39 50
-5 11 -11 12 -27 4 -21 -10 -21 -9 -3 5 10 9 23 13 27 10 5 -3 9 -1 9 5 0 5 8
8 18 7 16 -3 43 21 98 86 21 25 22 53 1 41 -7 -3 -8 -2 -4 3 5 5 16 9 24 9 9
0 18 6 21 14 3 8 0 11 -7 7 -16 -10 -14 8 7 51 11 21 27 57 38 80 10 24 20 43
21 43 2 0 2 -18 0 -39z m103 -321 c0 -5 -6 -14 -12 -20 -7 -6 -24 -20 -38 -31
l-25 -20 27 3 c15 2 30 7 34 11 12 12 24 8 24 -8 0 -8 -4 -15 -10 -15 -5 0
-14 -9 -20 -20 -10 -19 -9 -19 15 -8 16 7 29 8 33 2 11 -14 33 -16 48 -3 8 6
14 9 14 5 0 -3 0 -9 0 -13 0 -5 -6 -8 -12 -8 -7 0 -13 -9 -12 -21 0 -16 -5
-19 -26 -16 -27 4 -65 -22 -55 -38 3 -4 -5 -6 -17 -2 -13 3 -19 1 -15 -5 4 -6
-4 -8 -21 -6 -22 4 -24 2 -12 -7 12 -8 9 -9 -14 -4 -19 5 -27 3 -23 -3 4 -6 0
-14 -9 -17 -25 -10 -41 -6 -19 5 14 7 9 7 -20 3 -72 -11 -90 -10 -107 8 -10
10 -15 18 -11 18 3 0 -2 9 -11 19 -17 19 -17 20 11 24 15 2 11 3 -9 2 -21 -2
-38 0 -38 4 0 15 29 46 36 38 4 -4 1 -7 -7 -7 -12 0 -12 -2 0 -9 17 -11 43 -3
35 10 -3 5 0 9 6 9 6 0 8 4 5 10 -3 5 0 7 9 4 20 -8 91 27 76 36 -9 5 -9 9 -1
14 6 4 16 4 23 0 6 -4 8 -3 5 2 -3 6 4 16 16 24 20 12 21 12 8 -3 -12 -15 -11
-17 3 -17 9 0 16 6 16 13 0 7 19 20 43 29 53 20 57 20 57 8z"/>
<path d="M1418 1744 c-5 -4 -8 -15 -8 -24 0 -9 -7 -25 -15 -36 -14 -18 -15
-18 -12 3 2 12 6 26 10 29 4 4 7 12 7 18 -1 15 -40 -36 -40 -52 0 -7 -10 -17
-22 -22 -13 -5 -17 -9 -10 -9 6 -1 12 -5 12 -9 0 -5 -6 -9 -12 -10 -7 -1 -24
-3 -38 -5 -17 -3 -29 2 -37 17 -9 14 -12 16 -13 6 0 -13 -2 -13 -11 0 -9 12
-10 12 -5 -4 4 -10 -1 -30 -9 -43 -9 -13 -13 -29 -9 -36 4 -7 -2 -3 -14 7 -25
22 -28 28 -8 20 7 -3 16 1 19 9 6 16 -9 17 -31 3 -9 -5 -12 -18 -8 -35 3 -14
3 -20 0 -13 -5 10 -9 10 -20 1 -12 -10 -13 -8 -8 7 5 17 5 18 -6 2 -11 -18
-94 -61 -117 -61 -7 0 -10 -4 -7 -9 6 -10 -9 -11 -22 0 -5 4 -6 3 -1 -3 13
-17 7 -28 -8 -15 -13 11 -14 10 -10 -2 8 -19 -39 -50 -79 -54 -29 -2 -49 10
-57 34 -3 9 -16 2 -37 -19 l-33 -32 6 34 c6 31 3 29 -29 -23 -39 -66 -54 -82
-78 -86 -13 -2 -18 4 -19 20 l0 23 -11 -22 c-6 -13 -15 -23 -20 -23 -4 0 -8
-9 -8 -20 0 -11 -4 -20 -10 -20 -5 0 -7 -6 -4 -14 4 -10 0 -13 -13 -10 -14 4
-23 -2 -31 -21 -17 -36 -15 -53 3 -29 8 10 15 14 15 8 0 -21 -25 -35 -39 -21
-11 10 -12 8 -7 -10 6 -20 4 -21 -27 -17 -25 3 -37 0 -41 -11 -7 -18 5 -20 23
-2 11 10 13 9 8 -4 -3 -9 -1 -22 5 -30 8 -11 9 -11 5 3 -3 9 0 19 8 22 36 14
-54 -170 -108 -220 -42 -39 -43 -57 -1 -30 14 10 28 15 31 12 3 -2 14 4 26 15
11 10 32 19 46 19 26 1 61 21 61 35 0 4 -6 2 -13 -4 -8 -6 -17 -8 -20 -4 -4 3
-7 1 -7 -5 0 -7 -4 -12 -10 -12 -5 0 -10 7 -10 16 0 10 7 14 23 12 12 -2 21 2
20 8 -1 8 6 10 19 6 16 -4 19 -2 13 8 -6 10 -4 12 8 7 11 -4 17 1 19 15 3 21
4 21 20 4 10 -10 18 -13 18 -7 0 6 7 11 15 11 8 0 15 6 15 13 0 7 9 13 21 14
18 2 19 0 8 -15 -8 -9 -1 -6 14 7 30 27 44 23 28 -7 -6 -12 -11 -33 -11 -49 0
-37 -91 -159 -125 -167 -14 -4 -25 -10 -25 -15 0 -12 29 -23 41 -16 12 8 -1
-27 -15 -40 -14 -13 -19 -35 -7 -35 5 0 11 6 14 14 3 7 27 16 54 20 57 8 125
35 117 47 -3 5 2 9 10 9 9 0 16 5 16 11 0 5 -4 7 -10 4 -5 -3 -7 0 -4 8 4 12
-3 13 -38 7 l-43 -8 30 24 c17 13 26 24 22 24 -5 0 -1 7 7 16 9 8 31 16 50 17
31 2 34 4 30 30 -2 15 -6 31 -8 36 -3 5 1 11 9 15 8 3 15 12 15 21 0 13 4 14
23 4 12 -7 35 -15 52 -19 19 -4 31 -13 34 -25 2 -11 20 -45 41 -75 51 -73 57
-96 33 -123 -11 -12 -20 -33 -21 -47 -1 -19 1 -21 8 -10 8 12 10 11 10 -5 0
-18 2 -18 20 5 11 14 19 18 18 10 -2 -8 3 -15 10 -16 26 -3 27 -5 12 -15 -12
-8 -10 -9 10 -7 21 3 25 8 25 36 -1 17 3 32 8 32 5 0 7 -9 4 -20 -3 -13 0 -20
10 -20 8 0 11 -4 8 -10 -3 -5 -1 -10 4 -10 14 0 11 79 -2 87 -6 4 -7 1 -2 -8
5 -8 4 -11 0 -6 -5 4 -11 19 -12 32 -2 13 -19 65 -37 115 -34 90 -63 130 -95
130 -9 0 -29 14 -44 30 -27 28 -56 42 -42 20 3 -5 1 -10 -4 -10 -6 0 -11 -5
-11 -11 0 -5 4 -7 10 -4 6 3 7 -1 4 -10 -5 -12 -10 -13 -20 -4 -8 6 -21 8 -30
5 -14 -5 -15 -4 -4 9 7 8 9 15 5 15 -4 0 -2 6 4 13 6 8 17 30 26 50 13 32 13
36 0 31 -8 -4 -13 -10 -10 -14 3 -4 -2 -13 -10 -20 -8 -7 -12 -16 -9 -21 3 -5
0 -9 -7 -9 -11 0 -10 8 6 70 6 25 6 25 -10 5 l-17 -20 4 20 c3 14 11 19 26 18
16 -2 22 3 22 16 0 21 25 45 38 37 5 -3 21 3 34 14 14 11 28 17 31 14 3 -3 16
2 30 11 14 9 51 18 82 20 32 2 60 7 63 10 5 5 -4 6 -75 8 -16 0 -33 7 -39 15
-9 12 -13 13 -19 2 -6 -9 -4 -11 6 -5 8 5 3 -3 -10 -18 -21 -23 -59 -28 -45
-5 4 7 9 6 14 -1 5 -9 10 -8 20 4 11 13 10 15 -6 12 -11 -1 -25 -6 -31 -10 -7
-5 -13 -5 -13 -2 0 4 -14 -5 -31 -20 -18 -14 -38 -24 -45 -21 -7 3 -15 -2 -18
-11 -4 -9 -9 -13 -12 -10 -6 6 16 51 49 99 14 21 29 32 40 30 9 -2 17 2 17 8
0 6 14 16 30 21 17 6 30 14 30 18 0 18 -15 20 -39 4 -25 -16 -26 -16 -11 3 25
32 34 34 50 9 13 -19 19 -22 28 -13 7 7 12 8 12 3 0 -6 4 -4 8 3 5 7 18 14 30
17 16 3 20 0 16 -13 -5 -14 -2 -13 10 2 16 20 16 20 16 0 0 -18 2 -17 18 4 16
21 18 21 42 6 14 -10 19 -11 13 -4 -15 16 -17 34 -4 25 5 -3 12 -1 15 4 4 5
-2 8 -11 6 -10 -2 -18 -4 -18 -5 0 -1 -12 -3 -27 -5 -16 -2 -28 0 -28 5 0 15
42 39 58 33 10 -4 13 -2 8 6 -4 6 2 22 16 36 29 31 38 31 38 3 0 -13 4 -29 9
-36 7 -11 9 -10 14 3 5 11 3 14 -6 9 -6 -4 2 7 20 26 18 18 30 37 27 41 -3 5
3 6 12 2 13 -5 15 -3 9 7 -6 10 -4 12 7 7 11 -4 21 6 33 33 16 36 18 80 3 64z"/>
</g>
</svg>
