<?xml version="1.0" standalone="no"?>
<!DOCTYPE svg PUBLIC "-//W3C//DTD SVG 20010904//EN"
 "http://www.w3.org/TR/2001/REC-SVG-20010904/DTD/svg10.dtd">
<svg version="1.0" xmlns="http://www.w3.org/2000/svg"
 width="224.000000pt" height="224.000000pt" viewBox="0 0 224.000000 224.000000"
 preserveAspectRatio="xMidYMid meet">
<metadata>
Created by potrace 1.15, written by Peter Selinger 2001-2017
</metadata>
<g transform="translate(0.000000,224.000000) scale(0.100000,-0.100000)"
fill="#000000" stroke="none">
<path d="M1000 1992 c-14 -19 -25 -38 -26 -41 -3 -19 -17 -40 -25 -36 -4 3
-13 -4 -19 -15 -6 -11 -14 -18 -19 -16 -4 3 -12 -4 -19 -14 -7 -11 -8 -21 -2
-25 5 -3 14 3 20 14 15 30 47 44 68 32 15 -9 12 -11 -14 -17 -33 -6 -62 -43
-50 -63 4 -6 2 -9 -6 -6 -8 3 -22 -2 -33 -11 -20 -15 -20 -15 2 -11 12 3 22 2
21 -2 -2 -20 4 -20 21 0 12 15 15 26 9 30 -15 9 0 29 16 23 15 -6 16 -21 3
-40 -8 -13 22 -24 68 -24 23 0 26 -3 15 -10 -8 -5 -22 -7 -30 -5 -8 2 -22 0
-30 -5 -13 -8 -12 -10 3 -10 19 0 23 -15 5 -26 -6 -4 -8 -3 -5 3 10 16 -18 23
-34 10 -11 -10 -11 -9 -1 4 16 21 6 28 -26 20 -19 -6 -30 -3 -39 8 -9 13 -14
14 -24 4 -17 -17 -26 -16 -26 2 0 8 6 15 13 15 6 0 14 7 18 15 3 8 12 15 21
15 17 0 20 25 5 35 -8 5 -8 11 -1 19 8 10 3 11 -20 8 -30 -4 -31 -6 -26 -43 5
-35 3 -40 -19 -45 -13 -3 -31 -3 -40 0 -13 5 -15 2 -11 -14 3 -13 -1 -21 -13
-25 -9 -3 -25 -14 -35 -25 -17 -19 -17 -21 0 -40 17 -19 17 -20 -18 -35 -20
-8 -39 -20 -42 -26 -4 -6 20 4 54 21 34 18 65 39 70 48 8 14 11 14 27 2 11 -9
15 -10 10 -2 -10 17 19 15 34 -3 7 -8 16 -12 21 -9 5 3 19 -2 31 -12 13 -9 16
-14 7 -11 -9 3 -22 0 -28 -6 -9 -9 -11 -8 -5 6 5 13 2 16 -10 11 -9 -3 -13
-10 -10 -15 3 -5 -2 -9 -11 -9 -10 0 -32 -15 -51 -34 -28 -28 -34 -41 -34 -78
0 -24 -7 -54 -16 -66 -18 -27 -4 -29 19 -4 10 10 17 33 17 51 0 36 15 70 39
88 20 15 61 17 61 2 0 -5 -4 -7 -10 -4 -5 3 -10 1 -10 -4 0 -6 9 -11 20 -11
11 0 20 -5 20 -11 0 -6 -9 -9 -20 -6 -10 3 -27 -2 -37 -10 -10 -8 -12 -11 -4
-7 10 5 12 0 6 -27 -7 -31 -6 -33 10 -19 9 8 38 16 63 18 26 1 52 3 59 4 6 1
9 7 7 13 -3 6 2 12 11 12 8 0 15 -4 15 -9 0 -4 4 -8 10 -8 5 0 7 6 4 14 -5 14
60 46 94 46 14 0 12 -4 -8 -21 -14 -11 -19 -18 -12 -14 7 4 12 0 12 -9 0 -25
25 -19 40 10 12 22 12 27 0 34 -12 8 -10 10 8 10 20 0 22 4 16 23 -8 28 -7 26
-30 29 -10 2 -20 -1 -22 -6 -1 -6 5 -11 14 -12 9 -2 21 -7 27 -13 6 -6 -3 -7
-27 -1 -27 6 -36 5 -36 -5 0 -17 -50 -29 -64 -15 -7 7 -3 17 14 33 l24 22 -19
-25 -20 -25 28 24 c20 18 24 27 15 32 -16 10 21 41 40 34 7 -3 22 0 32 5 13 7
21 7 25 0 9 -15 25 -12 25 5 0 16 12 20 23 8 4 -3 -1 -16 -10 -27 -10 -12 -11
-15 -3 -8 20 17 27 15 35 -10 7 -22 7 -22 12 -3 2 11 16 31 31 44 15 13 22 20
16 17 -7 -3 -14 1 -18 9 -3 8 -12 15 -20 15 -25 0 -25 27 0 39 40 18 57 14 52
-12 -4 -20 -1 -23 17 -19 19 3 23 -2 27 -27 2 -17 0 -36 -5 -43 -6 -9 -7 -8
-3 5 3 11 2 16 -4 12 -6 -3 -10 -14 -10 -23 0 -13 -2 -13 -14 4 -12 15 -17 16
-27 7 -10 -10 -10 -15 0 -27 10 -12 8 -17 -11 -27 -13 -7 -26 -12 -30 -11 -4
1 -10 -9 -14 -23 -5 -20 -11 -24 -30 -19 -15 4 -24 2 -24 -6 0 -6 -4 -8 -10
-5 -5 3 -10 -1 -10 -9 0 -9 -5 -16 -12 -16 -6 0 -9 -3 -6 -6 4 -3 18 2 32 11
14 9 26 16 28 14 8 -5 48 14 48 23 0 6 6 6 15 -2 19 -16 19 -30 -1 -30 -8 0
-13 -4 -10 -9 7 -11 -41 -24 -55 -16 -5 4 -9 3 -8 -2 7 -41 2 -45 -114 -87
-26 -10 -45 -21 -42 -25 2 -4 -12 -15 -31 -24 -41 -20 -48 -21 -38 -5 4 7 3 8
-4 4 -6 -4 -8 -14 -5 -22 5 -13 1 -15 -16 -9 -12 3 -20 3 -19 -2 2 -4 -18 -28
-44 -52 -26 -24 -45 -47 -42 -52 3 -5 0 -9 -6 -9 -8 0 -10 -9 -6 -25 4 -17 2
-25 -6 -25 -9 0 -10 -3 -2 -8 20 -13 26 -62 10 -77 -11 -11 -16 -12 -19 -2 -4
9 -6 9 -6 0 -2 -25 17 -21 45 8 25 26 27 32 14 42 -22 18 -24 39 -3 35 11 -2
17 -11 15 -21 -2 -9 2 -17 8 -17 5 0 10 -9 10 -20 0 -13 7 -20 20 -20 12 0 29
-15 44 -39 30 -47 75 -84 94 -76 8 3 20 1 26 -4 6 -5 29 -12 51 -14 68 -8 107
-19 112 -32 2 -7 12 -11 22 -8 10 2 25 -3 34 -11 9 -10 17 -12 19 -5 6 19 78
-58 77 -83 0 -13 -3 -17 -6 -10 -2 6 -10 9 -15 6 -7 -5 -8 -2 -3 5 4 8 -2 21
-16 34 -29 27 -143 67 -160 56 -8 -5 -21 -2 -32 8 -17 16 -17 16 -11 -1 5 -14
3 -17 -7 -14 -8 3 -13 12 -11 19 2 8 0 11 -4 7 -4 -4 -13 -3 -21 4 -11 8 -12
7 -7 -6 6 -16 -10 -23 -20 -8 -2 4 -26 23 -53 41 l-48 34 38 -35 c20 -20 37
-41 37 -47 0 -5 12 -18 28 -26 23 -14 24 -16 5 -12 -14 3 -23 0 -23 -6 0 -7
19 -13 48 -13 36 -1 42 1 25 7 -13 5 -23 10 -23 13 0 7 125 -6 134 -15 16 -15
1 -19 -34 -9 -19 5 -29 6 -24 1 5 -5 24 -12 42 -16 25 -5 32 -3 32 8 0 10 7
13 20 10 23 -6 35 -21 25 -31 -3 -3 -10 0 -14 7 -6 8 -11 9 -15 3 -3 -6 4 -14
16 -18 27 -8 49 -35 40 -49 -3 -5 4 -2 15 8 11 9 26 17 33 17 9 0 7 -5 -6 -15
-13 -10 -15 -14 -5 -15 19 0 -14 -37 -42 -46 -12 -4 -29 -16 -39 -28 -9 -11
-17 -18 -18 -13 0 4 -9 -2 -20 -13 -11 -11 -28 -20 -37 -20 -16 0 -16 2 -3 11
13 9 13 10 0 6 -8 -2 -14 -12 -12 -21 2 -11 -5 -20 -17 -23 -12 -3 -18 -10
-14 -16 4 -6 0 -8 -10 -4 -10 4 -16 2 -14 -5 1 -6 -4 -13 -12 -16 -9 -3 -11 0
-6 8 5 8 4 11 -3 6 -6 -4 -8 -14 -5 -23 3 -9 0 -21 -8 -27 -8 -6 -15 -20 -17
-31 -2 -11 -11 -25 -20 -32 -57 -41 -56 -38 -44 -72 6 -17 7 -29 2 -26 -5 3
-12 1 -15 -5 -4 -6 -1 -9 7 -8 9 2 12 -8 10 -34 -2 -31 0 -37 13 -32 12 5 15
-1 15 -27 0 -49 10 -79 26 -79 10 0 14 -13 14 -42 1 -40 2 -42 13 -20 7 12 16
20 19 16 4 -3 10 11 14 32 l8 39 7 -30 c7 -30 7 -30 8 -3 0 15 -4 30 -10 33
-6 4 -8 13 -5 21 3 8 1 14 -5 14 -6 0 -3 8 7 17 11 11 13 18 5 21 -6 2 -8 9
-5 14 4 6 2 8 -4 4 -12 -7 -44 33 -36 46 3 4 1 8 -4 8 -5 0 -8 10 -8 22 3 37
17 78 26 73 4 -3 11 2 14 11 3 8 11 12 17 8 7 -4 9 -3 6 3 -9 15 17 35 36 27
16 -6 71 29 61 38 -2 3 3 11 13 19 15 12 16 12 10 -4 -4 -11 -3 -16 3 -12 6 3
10 12 10 18 0 13 70 63 83 59 5 -1 5 3 1 9 -5 8 -2 10 8 6 11 -4 14 -1 11 12
-2 10 3 23 11 30 19 16 21 48 4 53 -8 3 -7 14 5 38 9 18 17 41 17 52 0 10 5
18 10 18 20 0 9 21 -15 30 -27 10 -31 20 -14 37 8 8 1 14 -25 23 -36 12 -45
23 -26 35 15 9 1 27 -16 21 -17 -7 -67 11 -61 21 3 5 -6 9 -19 9 -13 1 -24 -2
-24 -6 0 -4 -11 -5 -25 -2 -14 2 -23 7 -21 11 2 3 -16 7 -41 7 -24 1 -50 7
-56 13 -9 9 -8 10 7 5 14 -5 17 -4 11 5 -4 8 -18 11 -35 7 -20 -3 -30 -1 -34
10 -3 8 -10 13 -15 9 -5 -3 -13 0 -17 6 -4 7 -3 9 3 6 6 -4 14 0 17 9 3 8 2
13 -3 10 -12 -8 -37 25 -39 51 -1 27 53 71 61 51 4 -8 6 -7 6 3 1 9 8 19 16
23 16 6 20 -4 8 -20 -5 -5 1 1 12 13 22 24 43 32 29 10 -5 -7 0 -3 11 10 12
13 28 23 37 23 9 0 20 5 23 10 3 6 11 10 17 10 6 0 5 -7 -3 -17 -7 -10 2 -3
20 16 32 33 57 37 30 5 -13 -16 -12 -16 8 -3 12 7 20 15 18 18 -7 6 15 31 27
31 6 0 5 -6 -2 -15 -19 -23 37 8 75 41 l30 26 -38 -27 c-52 -37 -55 -27 -7 20
22 22 40 33 40 26 0 -11 3 -11 15 -1 8 7 15 18 15 24 0 6 -5 4 -10 -4 -17 -27
-11 1 12 51 22 47 48 66 48 34 0 -8 5 -15 11 -15 6 0 9 -7 5 -15 -3 -8 -1 -15
4 -15 6 0 10 5 10 11 0 7 8 18 18 26 16 13 16 13 -2 11 -13 -2 -20 4 -23 21
-2 14 -7 29 -12 35 -5 6 -11 20 -14 31 -4 19 -5 19 -6 -2 0 -12 -9 -24 -18
-26 -17 -4 -17 -5 0 -6 16 -1 26 -31 9 -31 -12 0 -33 40 -27 50 4 6 2 10 -3
10 -11 0 -22 -34 -22 -67 0 -14 -6 -23 -15 -23 -8 0 -15 -5 -15 -11 0 -5 5 -7
12 -3 7 5 8 2 3 -7 -23 -40 -62 -84 -98 -110 -38 -27 -42 -28 -48 -12 -7 16
-8 15 -8 -4 -1 -27 -26 -42 -64 -37 -15 1 -25 -1 -22 -7 4 -5 -6 -14 -22 -19
-15 -6 -39 -16 -53 -22 -44 -21 -45 -21 -17 6 28 28 38 47 12 26 -8 -7 -15
-10 -15 -6 0 3 -9 -3 -20 -14 -11 -11 -27 -20 -35 -20 -8 0 -15 -7 -15 -15 0
-8 -8 -15 -17 -15 -14 1 -11 7 13 28 17 15 44 36 59 47 16 11 34 26 41 33 18
17 24 15 24 -10 0 -12 3 -18 7 -14 4 4 8 15 8 24 0 13 9 17 40 16 22 -1 35 1
28 3 -8 3 -5 11 8 24 11 11 26 18 33 16 7 -3 18 4 24 14 14 23 32 25 32 4 0
-8 -8 -15 -17 -16 -13 0 -11 -3 6 -10 13 -5 26 -7 29 -4 3 3 0 5 -7 5 -7 0 -2
12 11 30 12 17 28 30 35 30 7 0 12 3 11 8 -1 4 6 21 15 39 9 18 17 39 17 48 0
8 4 15 9 15 5 0 7 9 4 20 -4 15 0 20 14 20 10 0 24 -5 30 -11 7 -7 12 -3 15
15 3 15 1 24 -6 23 -6 -1 -10 4 -8 11 1 6 -2 12 -8 12 -5 0 -10 -9 -10 -20 0
-11 -7 -20 -15 -20 -11 0 -14 7 -11 26 6 32 -20 88 -36 78 -7 -4 -8 -3 -4 5 4
6 12 9 17 6 5 -4 9 -1 9 5 0 6 5 8 13 4 9 -6 8 -3 -1 8 -8 10 -21 14 -30 11
-9 -3 -14 -3 -10 2 4 4 0 14 -8 22 -12 12 -12 18 -2 31 10 12 10 14 1 8 -7 -4
-13 -2 -13 3 0 6 -12 11 -27 11 l-26 0 24 27 c13 14 17 22 9 18 -8 -5 -21 -17
-28 -27 -7 -10 -23 -18 -35 -19 -21 0 -21 -1 -2 -8 19 -8 19 -8 -4 -20 -18
-10 -25 -10 -31 -1 -5 7 -7 2 -7 -13 0 -19 4 -24 16 -20 12 5 13 3 5 -7 -15
-15 -54 -4 -54 15 0 7 5 15 12 17 7 3 5 7 -6 11 -9 4 -15 3 -12 -2 3 -5 -1
-11 -9 -15 -10 -4 -15 1 -15 16 0 21 -1 21 -14 3 -16 -22 -47 -29 -39 -9 3 8
0 14 -7 14 -6 0 -8 5 -4 12 5 7 3 8 -5 4 -7 -5 -10 -10 -7 -13 3 -3 1 -14 -5
-24 -8 -16 -12 -17 -23 -7 -12 11 -12 14 0 21 8 4 14 15 14 22 0 14 -5 17 -39
19 -18 1 -27 26 -11 26 7 0 21 10 31 22 26 30 24 36 -4 10 -13 -12 -30 -22
-39 -22 -10 0 -15 -7 -13 -17 2 -10 4 -21 4 -25 1 -5 10 -8 21 -8 22 0 23 -5
10 -35 -8 -19 -9 -19 -9 1 -1 29 -34 37 -55 13 -8 -10 -22 -16 -31 -13 -22 9
-18 27 4 21 12 -3 27 3 37 14 11 12 13 19 5 19 -7 0 -9 4 -6 10 3 6 -1 7 -9 4
-9 -3 -16 -2 -16 3 0 19 41 92 56 101 9 5 12 12 7 15 -5 3 -20 -11 -33 -31z"/>
<path d="M910 1105 c0 -6 6 -17 13 -24 6 -7 -2 -4 -20 6 -31 17 -33 17 -50 -1
-10 -10 -13 -16 -8 -13 24 13 58 -44 35 -58 -5 -3 -10 1 -10 9 0 9 -4 16 -9
16 -5 0 -7 -9 -4 -20 4 -15 11 -19 24 -15 11 4 19 2 19 -5 0 -6 5 -8 12 -4 7
4 8 3 4 -5 -4 -6 -12 -9 -17 -6 -14 9 -11 -5 5 -20 10 -11 16 -11 26 -2 10 9
11 9 8 -3 -8 -26 -35 -16 -66 23 -17 21 -33 33 -36 28 -4 -5 0 -16 8 -24 8 -8
13 -17 10 -19 -13 -13 40 -40 79 -39 9 0 17 -4 17 -10 0 -5 -5 -9 -10 -9 -7 0
-7 -6 -1 -19 8 -15 7 -21 -7 -27 -9 -4 -20 -6 -24 -6 -5 1 -8 -5 -8 -13 0 -8
5 -15 11 -15 5 0 7 -5 4 -11 -4 -6 -13 -8 -21 -5 -7 3 -16 0 -20 -6 -4 -7 -3
-8 4 -4 7 4 12 1 12 -8 0 -8 -6 -16 -12 -19 -7 -2 -10 -8 -6 -12 3 -3 20 3 37
16 22 16 31 31 31 51 0 17 4 27 10 23 6 -3 10 -15 10 -26 0 -10 5 -19 12 -19
6 0 3 -6 -8 -14 -10 -8 -17 -16 -14 -19 3 -2 16 7 30 21 14 13 19 21 11 17
-10 -6 -12 0 -7 26 4 22 3 27 -2 14 -8 -16 -10 -14 -15 15 -4 18 -5 35 -2 38
3 3 5 -3 5 -14 0 -11 3 -15 8 -8 4 6 14 13 22 16 11 3 8 11 -14 33 -18 18 -30
43 -33 67 -3 21 -10 38 -15 38 -5 0 -7 8 -4 18 4 10 -1 27 -9 38 -8 10 -15 14
-15 9z"/>
</g>
</svg>
