<?xml version="1.0" standalone="no"?>
<!DOCTYPE svg PUBLIC "-//W3C//DTD SVG 20010904//EN"
 "http://www.w3.org/TR/2001/REC-SVG-20010904/DTD/svg10.dtd">
<svg version="1.0" xmlns="http://www.w3.org/2000/svg"
 width="225.000000pt" height="225.000000pt" viewBox="0 0 225.000000 225.000000"
 preserveAspectRatio="xMidYMid meet">
<metadata>
Created by potrace 1.15, written by Peter Selinger 2001-2017
</metadata>
<g transform="translate(0.000000,225.000000) scale(0.100000,-0.100000)"
fill="#000000" stroke="none">
<path d="M1350 2090 c-8 -5 -29 -10 -46 -10 -17 0 -37 -6 -44 -14 -6 -8 -17
-13 -24 -10 -8 3 -17 -10 -25 -36 -6 -22 -18 -40 -26 -40 -14 0 -31 -72 -20
-90 3 -5 1 -10 -4 -10 -6 0 -11 9 -11 21 0 11 -5 17 -10 14 -6 -4 -8 -10 -5
-15 3 -5 1 -11 -5 -15 -15 -9 0 -27 17 -21 11 4 13 2 9 -9 -3 -8 -1 -15 5 -15
5 0 14 10 19 23 5 12 9 18 9 13 1 -5 7 -4 14 2 6 6 37 15 67 20 60 11 66 8 77
-41 4 -21 8 -25 14 -15 7 10 9 10 8 -2 -1 -24 -15 -55 -25 -55 -16 0 -91 -80
-95 -100 -2 -11 -14 -25 -27 -31 -12 -6 -19 -13 -16 -17 3 -3 -4 -10 -15 -17
-12 -6 -21 -17 -21 -25 0 -8 -4 -15 -8 -15 -4 0 -9 -14 -10 -31 -1 -17 -6 -39
-11 -48 -4 -9 -7 -38 -6 -66 1 -27 -3 -58 -8 -69 -6 -12 -6 -16 1 -12 14 8 25
-25 12 -38 -5 -5 -19 -10 -31 -11 -15 -1 -19 3 -16 17 3 10 1 16 -3 13 -11 -7
-21 70 -15 115 3 19 6 40 7 47 1 7 5 10 9 8 3 -3 12 1 18 9 9 10 0 18 -42 36
-48 21 -56 29 -80 80 -28 59 -35 126 -17 160 16 30 46 43 71 30 36 -20 42 -5
9 27 -60 59 -210 72 -373 33 -88 -22 -94 -25 -144 -78 -29 -31 -51 -58 -48
-61 3 -2 12 4 19 15 26 35 12 -9 -16 -49 -17 -26 -28 -34 -32 -25 -3 7 -4 0
-2 -15 2 -15 1 -25 -2 -22 -3 2 -12 -1 -20 -8 -13 -10 -14 -9 -8 2 5 8 3 17
-5 23 -11 8 -10 9 3 4 12 -3 15 -1 11 10 -5 13 -10 11 -29 -7 -24 -23 -32 -35
-15 -25 5 3 12 -1 15 -9 4 -13 2 -14 -15 -5 -17 9 -27 5 -67 -31 -26 -23 -46
-46 -44 -51 1 -5 -2 -7 -8 -3 -17 10 -73 -161 -73 -223 0 -20 -4 -28 -8 -20
-10 15 -11 -8 -10 -128 1 -83 20 -161 39 -157 5 1 15 -31 21 -71 7 -41 20 -89
29 -107 15 -29 15 -38 4 -61 -14 -31 -20 -21 98 -148 28 -30 63 -74 77 -97 25
-43 31 -47 65 -44 10 1 18 -2 18 -7 0 -6 20 -33 45 -60 l46 -51 -12 -44 c-14
-56 -1 -83 46 -103 19 -7 40 -26 47 -41 14 -30 57 -46 123 -45 99 1 134 1 188
1 31 0 69 0 85 1 15 0 60 -1 100 -1 44 -2 77 2 84 9 7 7 27 12 45 12 18 0 33
4 33 8 0 12 47 32 75 32 24 0 49 21 143 123 40 43 55 67 59 96 3 21 1 41 -5
45 -5 3 -32 1 -58 -4 -119 -25 -114 -25 -114 -1 0 27 31 63 38 43 7 -22 21
-13 30 20 5 21 20 41 40 53 25 16 31 25 27 43 -6 23 13 82 26 82 3 0 4 11 1
25 -5 27 7 32 26 13 9 -9 12 -8 12 7 1 18 4 17 25 -8 29 -33 31 -56 8 -100 -9
-18 -16 -35 -15 -39 1 -5 -1 -7 -6 -5 -4 1 -8 -2 -10 -8 -9 -26 22 -11 67 34
71 71 113 159 166 353 16 61 70 141 99 146 10 2 28 1 42 -2 29 -8 33 -49 7
-78 -18 -20 -4 -25 28 -8 61 33 72 222 25 465 -25 132 -32 153 -57 178 -15 15
-32 26 -36 26 -14 -3 -43 13 -43 24 0 5 9 2 20 -8 29 -26 25 -11 -6 22 -31 33
-114 157 -114 171 0 28 -212 132 -277 136 -13 0 -23 4 -23 7 0 6 -74 29 -110
34 -8 1 -31 5 -50 9 -19 3 -42 2 -50 -4z m120 -97 c68 -73 84 -120 85 -243 0
-93 -3 -111 -25 -154 -29 -58 -61 -84 -113 -93 -57 -9 -83 10 -85 58 -1 27 3
42 13 45 8 4 15 12 15 20 0 8 7 14 15 14 8 0 15 7 15 16 0 28 32 119 47 130
15 12 11 49 -9 91 -8 17 -8 26 2 38 7 8 10 15 7 15 -3 0 -13 3 -23 7 -12 4
-15 3 -10 -5 5 -8 2 -10 -9 -5 -10 3 -13 8 -6 12 7 5 6 15 -3 33 -11 20 -11
28 -3 32 7 2 2 5 -10 5 -26 1 -27 4 -13 31 15 28 59 9 110 -47z m-182 -859
l42 -35 -28 -35 c-33 -41 -64 -44 -96 -9 -13 14 -28 25 -35 25 -18 0 -13 28
11 60 29 39 55 38 106 -6z m-533 0 c-1 -5 -7 -42 -14 -82 -13 -72 -9 -101 9
-72 8 12 10 9 11 -10 0 -14 3 -19 6 -13 3 10 8 9 20 -2 8 -8 23 -15 33 -15 11
0 30 -16 44 -36 24 -36 25 -36 30 -13 3 13 7 51 10 84 3 33 9 79 13 103 8 40
9 42 27 29 17 -13 20 -25 18 -93 -3 -94 -9 -129 -30 -169 -9 -16 -15 -34 -14
-38 1 -5 -2 -6 -8 -2 -5 3 -10 -2 -11 -12 -1 -13 -3 -11 -9 7 -5 17 -8 19 -9
8 -1 -11 -9 -18 -20 -18 -11 0 -21 -6 -24 -12 -3 -10 -8 -10 -21 1 -9 8 -20
11 -24 7 -4 -4 0 -13 9 -19 20 -15 31 -58 20 -76 -7 -11 -15 -11 -44 -2 -28
10 -36 18 -40 44 -2 18 -1 33 4 35 14 6 10 22 -4 22 -8 0 -20 12 -28 26 -7 14
-25 36 -39 48 -15 12 -25 27 -22 34 2 7 -1 12 -8 12 -6 0 -8 5 -4 12 4 7 3 8
-5 4 -6 -4 -23 -1 -36 8 -30 20 -33 20 -37 -1 -2 -13 8 -23 34 -35 31 -14 38
-23 45 -60 8 -38 7 -45 -11 -56 -21 -13 -21 -13 2 -9 28 6 79 -18 93 -45 8
-15 7 -24 -7 -39 -10 -11 -24 -17 -31 -15 -7 3 -13 0 -13 -7 0 -7 -6 -1 -13
13 -10 20 -19 24 -45 22 -25 -3 -39 3 -62 27 -36 35 -39 61 -8 61 20 0 21 1 3
20 -22 24 -50 27 -41 4 5 -13 -4 -15 -70 -11 -82 4 -97 14 -125 80 -15 34 -9
40 25 28 34 -14 33 -8 -9 36 -41 43 -52 75 -39 112 21 59 74 32 142 -72 44
-69 87 -117 102 -117 13 0 20 31 11 48 -33 66 -12 145 52 192 44 32 73 39 64
16 -32 -83 -31 -152 3 -152 14 0 20 10 25 44 9 60 42 135 58 129 6 -2 12 -8
12 -13z"/>
</g>
</svg>
