<?xml version="1.0" standalone="no"?>
<!DOCTYPE svg PUBLIC "-//W3C//DTD SVG 20010904//EN"
 "http://www.w3.org/TR/2001/REC-SVG-20010904/DTD/svg10.dtd">
<svg version="1.0" xmlns="http://www.w3.org/2000/svg"
 width="225.000000pt" height="225.000000pt" viewBox="0 0 225.000000 225.000000"
 preserveAspectRatio="xMidYMid meet">
<metadata>
Created by potrace 1.15, written by Peter Selinger 2001-2017
</metadata>
<g transform="translate(0.000000,225.000000) scale(0.100000,-0.100000)"
fill="#000000" stroke="none">
<path d="M1485 2072 c-58 -32 -97 -57 -132 -84 -20 -16 -47 -28 -61 -28 -23 0
-24 -1 -10 -17 23 -26 31 -75 17 -109 -7 -16 -13 -49 -13 -74 -1 -34 -6 -47
-21 -55 -21 -10 -22 -40 -4 -59 18 -19 10 -74 -13 -90 -19 -13 -20 -19 -10
-41 17 -36 15 -60 -7 -97 -11 -17 -18 -35 -15 -40 3 -4 -2 -5 -10 -2 -19 7
-19 4 -6 -31 15 -38 -6 -101 -42 -126 -15 -11 -28 -28 -28 -38 0 -10 -9 -26
-20 -36 -11 -10 -17 -22 -14 -26 3 -5 1 -9 -4 -9 -18 0 -19 19 -11 148 1 18 7
32 15 32 7 0 16 5 20 12 5 7 3 8 -5 4 -7 -5 -21 0 -32 10 -10 9 -22 14 -26 11
-3 -4 -14 0 -23 8 -14 12 -19 12 -43 0 -15 -7 -27 -11 -27 -7 0 10 -20 -21
-20 -31 0 -5 4 -6 9 -2 5 3 12 1 16 -5 4 -6 11 -8 16 -5 10 7 12 -8 2 -18 -3
-4 -12 1 -19 11 -9 11 -13 13 -14 4 0 -7 -4 -10 -10 -7 -6 4 -10 -7 -10 -24 0
-17 -4 -31 -10 -31 -28 0 -25 -5 -29 50 -1 18 -4 21 -10 11 -5 -8 -11 -9 -15
-3 -3 6 -2 13 4 17 15 9 12 25 -4 19 -17 -7 -58 36 -52 53 3 7 0 13 -6 13 -7
0 -22 10 -35 22 l-24 23 15 -30 c22 -42 19 -55 -5 -25 l-20 25 17 -35 c10 -19
18 -47 19 -62 2 -24 -1 -26 -17 -17 -11 6 -21 16 -22 22 -18 64 -42 127 -48
127 -5 0 -4 -9 2 -21 7 -11 9 -23 6 -26 -3 -3 1 -20 9 -38 7 -19 11 -36 8 -39
-6 -5 45 -86 54 -86 2 0 -1 10 -7 23 -11 21 -11 21 4 3 9 -12 13 -28 10 -39
-4 -12 -2 -17 4 -13 6 3 8 -1 6 -12 -3 -10 13 -40 40 -76 26 -32 46 -67 46
-77 0 -27 20 -34 21 -7 0 13 6 -4 13 -36 7 -33 21 -65 30 -72 11 -7 13 -13 6
-16 -7 -2 -1 -15 14 -31 14 -15 21 -27 16 -27 -4 0 -7 -6 -5 -12 19 -85 17
-82 32 -63 7 11 13 15 13 9 0 -5 -11 -21 -24 -35 -13 -14 -29 -35 -35 -47 -11
-21 -13 -21 -42 -6 -29 15 -57 11 -31 -5 6 -4 14 -30 18 -59 4 -42 2 -52 -9
-52 -11 0 -14 -8 -11 -29 4 -23 1 -29 -11 -27 -9 1 -20 8 -25 15 -4 8 -12 11
-18 7 -5 -3 -12 4 -15 16 -4 12 -9 19 -12 16 -4 -3 1 -20 9 -37 15 -29 15 -31
-4 -41 -11 -6 -20 -15 -20 -21 0 -6 4 -7 10 -4 5 3 34 6 65 6 30 1 55 5 55 9
0 10 80 -9 98 -23 9 -7 12 -4 12 12 0 17 -6 21 -37 21 -57 0 -86 5 -90 17 -2
6 8 9 23 7 15 -1 38 2 51 7 16 6 22 5 18 -1 -8 -14 5 -13 54 5 37 13 41 13 41
-2 0 -9 -3 -13 -7 -10 -3 4 -15 0 -24 -9 -18 -16 -17 -18 16 -35 19 -10 42
-16 51 -12 12 4 15 3 10 -6 -6 -9 -1 -12 15 -9 16 2 25 11 27 25 2 12 12 25
23 28 37 12 10 22 -41 15 -58 -7 -68 0 -46 32 l16 22 0 -23 c0 -20 2 -21 15
-11 8 7 15 19 15 27 0 8 4 12 9 8 5 -3 13 0 17 6 7 12 -55 8 -91 -7 -17 -7
-18 -6 -5 7 8 9 19 16 25 16 5 0 26 4 46 8 28 5 38 3 42 -9 4 -9 12 -16 19
-16 9 0 8 3 -2 10 -12 8 -10 10 8 10 13 0 21 -4 18 -9 -3 -5 12 -5 36 1 23 5
47 7 54 4 8 -3 30 1 51 9 l38 15 -32 -4 c-18 -2 -35 0 -39 5 -3 5 -17 6 -31 3
-19 -5 -24 -4 -19 5 6 8 0 10 -21 6 -16 -3 -21 -2 -13 2 8 5 16 16 18 26 3 15
-2 16 -25 11 -28 -7 -28 -7 -9 15 11 11 14 21 8 21 -6 0 -13 -4 -17 -9 -3 -6
-14 -9 -25 -8 -10 1 -16 5 -14 9 3 4 0 8 -5 8 -6 0 -11 -4 -11 -9 0 -5 -9 -11
-20 -14 -15 -4 -20 0 -20 14 0 10 4 19 9 19 5 0 8 11 5 25 -6 34 4 49 22 34
10 -8 11 -15 4 -24 -8 -10 -3 -17 20 -28 26 -14 30 -14 30 -1 0 8 13 21 30 28
22 9 27 15 19 23 -22 22 0 32 36 17 38 -15 58 -18 37 -5 -11 7 -11 9 2 14 9 4
15 1 13 -6 -4 -22 51 -20 62 2 7 13 8 22 1 26 -5 3 -10 3 -10 0 0 -4 -7 0 -15
9 -9 8 -22 13 -31 9 -9 -3 -14 0 -12 8 2 8 -4 13 -12 12 -10 -2 -16 5 -16 17
0 13 7 20 19 20 10 0 26 9 35 20 13 15 31 21 70 23 53 2 53 2 31 20 -32 26
-39 115 -12 139 21 20 82 30 98 18 6 -5 9 8 7 38 -2 38 3 53 22 77 23 26 32
30 98 34 49 3 64 7 44 10 -36 7 -58 37 -37 50 11 7 3 12 -27 20 -50 14 -98 52
-88 70 5 8 18 10 35 6 l26 -7 -23 25 c-28 30 -39 87 -23 125 13 30 52 59 68
49 5 -3 15 -2 23 4 11 6 1 9 -30 9 -54 0 -94 24 -87 51 3 10 -1 24 -9 30 -12
10 -12 15 0 34 10 15 13 35 9 58 -4 30 0 40 30 74 20 21 60 50 89 63 29 14 55
28 56 33 2 4 9 7 14 7 16 0 158 68 158 76 0 3 -8 3 -17 -1 -47 -19 -242 -65
-278 -65 -39 0 -42 -3 -63 -45 -29 -61 -108 -98 -155 -74 -31 17 -35 25 -28
63 6 34 72 114 121 148 32 22 14 22 -25 0z"/>
</g>
</svg>
