<?xml version="1.0" standalone="no"?>
<!DOCTYPE svg PUBLIC "-//W3C//DTD SVG 20010904//EN"
 "http://www.w3.org/TR/2001/REC-SVG-20010904/DTD/svg10.dtd">
<svg version="1.0" xmlns="http://www.w3.org/2000/svg"
 width="225.000000pt" height="225.000000pt" viewBox="0 0 225.000000 225.000000"
 preserveAspectRatio="xMidYMid meet">
<metadata>
Created by potrace 1.15, written by Peter Selinger 2001-2017
</metadata>
<g transform="translate(0.000000,225.000000) scale(0.100000,-0.100000)"
fill="#000000" stroke="none">
<path d="M0 2188 c0 -72 14 -109 25 -65 9 35 25 35 26 0 l1 -28 13 30 c8 17
14 40 15 52 l0 22 25 -23 c14 -13 25 -28 25 -34 0 -6 10 -17 23 -23 12 -7 28
-20 35 -31 7 -10 22 -18 33 -18 11 0 22 -7 25 -15 4 -8 10 -13 14 -10 5 3 6
-4 3 -14 -4 -16 0 -20 16 -18 19 1 21 5 15 43 -4 26 -2 44 5 48 15 10 14 26
-2 20 -15 -6 -83 21 -92 37 -9 14 4 27 13 13 11 -17 48 -34 74 -34 17 0 19 3
9 9 -10 6 -10 10 -1 16 6 4 18 -1 25 -11 13 -18 14 -17 15 8 0 15 -4 30 -10
33 -5 3 -10 13 -10 21 0 8 4 12 10 9 6 -3 7 1 4 9 -5 14 -31 16 -170 16 l-164
0 0 -62z"/>
<path d="M347 2238 c4 -7 8 -20 9 -28 1 -8 2 -28 3 -45 l1 -30 13 25 c17 34
58 33 74 -1 7 -15 20 -33 29 -40 15 -12 16 -10 9 29 -7 42 -6 43 14 30 19 -11
24 -10 44 13 12 14 33 33 47 42 24 16 20 17 -92 17 -108 0 -117 -1 -111 -17 6
-17 5 -17 -14 0 -23 20 -38 23 -26 5z"/>
<path d="M985 2240 c-3 -6 0 -12 7 -13 7 -2 49 -16 93 -31 44 -15 91 -30 105
-32 14 -3 35 -11 48 -17 19 -9 25 -8 32 3 8 13 10 13 10 -1 0 -24 29 -76 45
-83 19 -7 19 4 -1 32 -8 12 -11 22 -7 22 14 0 43 -56 43 -83 0 -30 -33 -57
-61 -50 -10 3 -19 8 -19 12 0 4 -15 8 -32 10 -81 7 -110 5 -120 -6 -8 -10 -5
-13 11 -13 13 0 19 -4 16 -11 -4 -5 -17 -9 -28 -8 -12 1 -31 -1 -42 -5 -38
-15 -43 -15 -49 0 -9 24 -48 -2 -44 -29 3 -24 18 -26 76 -13 29 7 32 5 33 -16
1 -18 2 -19 6 -5 5 18 6 18 24 1 11 -10 19 -12 19 -6 0 20 26 13 27 -7 1 -14
-3 -18 -15 -15 -9 3 -5 -2 11 -11 15 -8 27 -17 27 -18 0 -7 -80 -5 -80 2 0 5
-11 8 -25 7 -14 0 -25 -5 -25 -10 0 -4 -7 -5 -16 -2 -9 3 -12 2 -9 -5 4 -5 1
-17 -6 -25 -10 -13 -5 -14 42 -13 30 1 64 -3 76 -10 12 -6 31 -11 42 -11 12 0
21 -4 21 -10 0 -5 4 -10 9 -10 5 0 7 10 5 23 -2 12 3 5 12 -15 9 -21 21 -38
26 -38 5 0 6 5 2 12 -4 7 -3 8 4 4 7 -4 12 -12 12 -17 0 -6 7 -17 15 -25 8 -8
12 -21 8 -29 -3 -11 -1 -13 10 -10 8 4 17 -1 20 -9 4 -11 1 -16 -10 -16 -21 0
-11 -11 13 -14 10 -2 20 -9 22 -16 3 -7 0 -10 -7 -6 -6 4 -11 2 -11 -4 0 -7 8
-9 20 -5 11 4 20 2 20 -4 0 -6 -4 -11 -10 -11 -5 0 -1 -23 11 -51 22 -57 37
-175 20 -165 -6 4 -7 -4 -1 -22 4 -18 4 -35 -2 -43 -8 -11 -9 -11 -5 2 3 10
-4 26 -18 39 -21 19 -37 61 -39 100 -1 20 -44 66 -53 57 -3 -4 -1 -7 5 -7 7 0
12 -12 12 -26 0 -17 4 -24 13 -21 7 3 13 -3 13 -14 0 -11 -4 -15 -11 -9 -14
11 -49 -15 -40 -30 5 -9 1 -10 -16 -4 -13 4 -35 8 -49 9 -14 2 -25 3 -25 4 0
1 -12 4 -28 6 -19 3 -30 -2 -38 -16 -5 -11 -15 -16 -21 -13 -7 5 -8 2 -3 -5 8
-14 -31 -61 -51 -61 -7 0 -14 -3 -16 -7 -7 -17 -103 -83 -120 -83 -37 0 -19
46 49 126 41 49 54 72 33 59 -6 -3 -7 1 -3 10 4 11 8 13 13 5 12 -20 30 15 26
51 -5 40 -23 89 -32 89 -6 0 0 -33 13 -66 4 -12 3 -15 -5 -10 -7 4 -12 1 -12
-8 0 -22 -32 -52 -119 -110 -42 -27 -82 -59 -90 -69 -8 -11 -26 -33 -41 -51
-15 -17 -45 -50 -65 -73 -21 -24 -33 -43 -29 -43 5 0 2 -5 -8 -10 -9 -6 -30
-35 -47 -65 -17 -30 -36 -55 -42 -55 -6 0 -9 6 -7 12 6 16 -20 43 -30 33 -4
-4 -1 -10 6 -12 16 -6 16 -34 0 -32 -24 3 -38 -1 -38 -10 0 -6 -13 -24 -30
-42 -27 -30 -34 -57 -8 -31 21 21 31 13 25 -20 -3 -18 -3 -28 -1 -21 3 7 11
10 19 7 10 -4 10 -11 -2 -35 -8 -17 -12 -33 -8 -37 4 -4 10 -1 12 6 3 7 15 24
27 38 l21 24 25 -21 c17 -14 21 -22 12 -26 -6 -2 -10 -9 -7 -14 4 -5 -1 -6 -9
-3 -9 3 -16 1 -16 -6 0 -6 -4 -8 -10 -5 -5 3 -10 -2 -10 -12 0 -10 -14 -33
-30 -52 -17 -18 -30 -42 -30 -52 0 -11 -7 -19 -15 -19 -17 0 -13 25 12 90 12
32 12 33 -1 16 -9 -11 -23 -40 -32 -65 -9 -25 -21 -58 -26 -73 -6 -16 -17 -28
-24 -28 -10 0 -14 -14 -14 -51 0 -34 -4 -48 -11 -43 -8 4 -9 -3 -5 -23 4 -18
1 -40 -9 -59 -8 -16 -15 -36 -15 -44 0 -8 -7 -28 -15 -43 -8 -15 -10 -25 -6
-23 5 3 8 -12 8 -33 0 -21 8 -49 17 -62 18 -26 22 -54 5 -44 -6 4 -5 -2 3 -14
7 -12 17 -21 22 -21 4 0 6 -9 3 -20 -3 -14 1 -24 15 -31 29 -16 5 -29 -53 -29
-88 0 -141 -12 -147 -32 -2 -10 -11 -18 -19 -18 -8 0 -11 -4 -8 -10 9 -15 66
-13 63 3 -2 8 14 12 55 12 31 0 57 3 57 8 0 4 5 7 11 7 5 0 7 -4 4 -10 -4 -6
10 -10 34 -10 23 0 41 -4 41 -10 0 -7 312 -10 915 -10 l915 0 0 350 0 350 -28
0 c-15 0 -32 -4 -37 -9 -11 -10 -116 -43 -122 -38 -1 2 6 13 17 25 11 12 20
28 20 37 0 8 5 15 10 15 17 0 11 28 -7 39 -10 6 -13 11 -7 11 6 0 19 -9 29
-20 25 -28 45 -25 45 5 0 31 23 42 56 27 l24 -12 -1 143 c-1 136 -2 140 -15
97 l-13 -45 2 61 2 60 -52 1 c-42 1 -56 -3 -67 -18 -13 -20 -13 -20 -19 0 -7
27 10 39 58 43 56 4 74 40 83 160 6 81 7 87 13 48 3 -25 7 172 7 438 l2 482
-629 0 c-412 0 -632 -3 -636 -10z m466 -170 c22 0 34 -8 49 -32 17 -28 20 -30
20 -12 0 19 19 36 43 38 5 1 15 12 22 26 8 14 14 19 15 13 0 -7 7 -13 15 -13
9 0 15 -9 15 -21 0 -17 5 -20 25 -17 14 3 25 1 25 -6 0 -6 6 -4 13 6 11 14 16
10 40 -37 16 -29 29 -63 30 -76 1 -13 9 -33 19 -43 10 -11 18 -28 18 -39 0
-14 5 -17 17 -13 9 4 20 1 25 -6 11 -18 27 8 29 47 1 26 3 24 12 -15 6 -25 14
-48 19 -51 5 -3 10 -26 11 -50 2 -38 5 -45 23 -47 14 -1 24 5 27 18 3 11 10
20 16 20 17 0 25 -30 13 -42 -9 -9 -9 -15 0 -25 7 -9 13 -80 15 -191 2 -97 8
-179 13 -182 5 -3 4 -40 0 -83 -6 -48 -5 -88 0 -103 6 -14 7 -37 4 -52 -4 -15
-4 -24 0 -21 6 6 56 -35 56 -46 0 -12 -50 -3 -64 11 -15 14 -16 14 -16 -2 0
-16 -1 -16 -20 1 -19 18 -20 17 -20 -3 0 -12 3 -22 8 -22 4 0 6 -23 5 -51 -1
-36 2 -52 13 -56 8 -3 14 -14 14 -25 0 -11 -5 -16 -11 -13 -6 4 -16 0 -22 -10
-14 -18 -47 -11 -47 11 0 7 -8 18 -17 23 -13 7 -14 10 -4 11 11 0 11 4 -3 19
-9 10 -14 24 -11 32 4 10 -3 14 -21 15 -33 2 -40 10 -24 29 7 9 10 19 6 22 -4
4 -11 1 -15 -6 -6 -9 -11 -10 -15 -2 -4 6 -12 8 -18 5 -7 -4 -8 -2 -4 4 4 7
13 12 21 12 11 0 11 5 -1 30 -11 21 -23 30 -40 30 -27 0 -33 -24 -9 -34 8 -3
15 -10 15 -17 0 -6 -7 -9 -15 -5 -8 3 -15 3 -15 0 0 -3 7 -12 15 -20 23 -23
18 -40 -5 -19 -11 10 -20 26 -19 34 3 36 -1 52 -12 45 -8 -5 -10 1 -7 18 5 28
-16 66 -27 49 -3 -6 -1 -11 4 -11 6 0 11 -7 11 -16 0 -13 -7 -15 -29 -11 -32
7 -45 -9 -35 -40 4 -11 3 -14 -3 -7 -6 9 -11 8 -21 -2 -10 -10 -10 -14 -1 -14
7 0 10 -3 6 -6 -9 -9 -106 39 -107 54 0 18 24 15 64 -8 l34 -21 7 22 c5 14 2
25 -6 30 -12 8 -11 12 2 22 20 15 34 57 20 57 -13 0 -47 67 -39 75 3 3 18 8
34 11 15 3 31 7 35 9 3 3 18 -4 32 -15 14 -11 28 -20 33 -20 12 0 -5 140 -21
168 -23 43 -54 79 -53 62 4 -59 -17 -69 -25 -12 -2 22 -15 61 -27 88 -13 27
-22 55 -21 62 1 6 -5 12 -14 12 -11 0 -15 6 -10 19 3 12 0 21 -11 25 -8 3 -14
12 -11 19 2 6 -3 17 -12 24 -9 6 -13 15 -9 19 4 4 14 1 23 -6 13 -10 15 -9 15
7 0 12 8 19 21 20 14 1 19 -3 15 -13 -3 -8 -1 -14 5 -14 7 0 9 11 5 28 -6 24
-5 25 7 10 8 -10 18 -13 26 -9 17 11 4 20 -99 69 -97 46 -169 101 -134 102 12
0 27 -7 34 -15 7 -8 16 -15 21 -15 5 0 6 7 3 15 -8 21 9 19 40 -6 15 -12 31
-17 38 -13 8 5 7 0 -2 -11 -14 -17 -14 -18 7 -6 19 9 26 8 41 -6 40 -40 57
-48 32 -17 -44 55 -158 114 -222 116 -33 1 -34 7 -10 34 13 13 16 26 11 44 -4
14 -7 36 -8 50 l-1 24 16 -22 c10 -14 25 -22 45 -22z m-645 -834 c-13 -19 -31
-42 -40 -51 -9 -9 -16 -24 -15 -33 0 -11 2 -12 6 -4 2 6 9 12 14 12 5 0 3 -12
-3 -26 -9 -20 -9 -27 2 -34 11 -7 10 -11 -3 -24 -14 -15 -16 -14 -20 6 -3 16
-5 13 -6 -10 -1 -29 -4 -33 -22 -27 -19 6 -21 4 -15 -18 9 -39 -2 -59 -26 -46
-23 12 -60 -2 -90 -35 -25 -27 -22 -13 11 58 43 89 194 265 228 266 1 0 -8
-15 -21 -34z m479 -461 c11 -28 25 -46 39 -50 89 -24 98 -28 80 -42 -14 -10
-15 -15 -4 -28 11 -13 10 -15 -6 -9 -15 5 -14 3 4 -10 12 -10 26 -15 31 -12 5
3 11 0 14 -7 5 -14 -30 -17 -50 -4 -8 5 -13 4 -13 -2 0 -6 5 -11 10 -11 6 0
10 -4 10 -10 0 -5 -9 -10 -19 -10 -28 0 -52 -11 -45 -21 3 -5 -6 -13 -19 -18
-14 -6 -28 -15 -32 -21 -6 -9 -10 -9 -16 1 -7 11 -9 10 -9 -3 0 -19 -28 -38
-47 -31 -7 3 -13 -3 -13 -12 0 -9 -4 -14 -9 -10 -17 10 -21 -12 -6 -25 14 -11
13 -15 -5 -27 -17 -12 -18 -18 -9 -29 9 -11 7 -14 -9 -14 -11 0 -27 -3 -36 -6
-27 -10 -8 66 34 132 42 66 70 163 70 240 0 46 13 84 30 84 4 0 16 -20 25 -45z
m-315 -45 c10 -5 28 -38 40 -74 34 -102 34 -109 0 -128 -38 -22 -38 -42 3
-114 37 -66 78 -94 109 -75 23 15 28 14 28 -4 0 -9 9 -15 24 -15 14 0 28 -4
31 -10 3 -6 -1 -7 -9 -4 -19 7 -20 0 -6 -27 7 -13 7 -19 0 -19 -5 0 -10 5 -10
10 0 15 -71 12 -89 -4 -9 -8 -29 -17 -45 -20 -41 -7 -42 -12 -6 -31 18 -9 30
-19 27 -22 -3 -2 -14 0 -25 6 -12 6 -43 11 -71 11 -30 0 -51 5 -53 12 -3 8
-34 13 -89 15 -104 4 -139 -2 -168 -28 -13 -13 -32 -19 -49 -17 -25 3 -27 6
-29 55 -1 29 6 75 16 105 17 52 19 53 62 58 24 3 53 12 64 20 56 40 95 76 95
87 0 6 8 18 18 25 16 13 71 114 92 171 11 30 13 31 40 17z m-347 -37 c-3 -21
-16 -58 -29 -82 -13 -24 -24 -50 -24 -57 0 -8 -4 -14 -10 -14 -5 0 -10 -9 -10
-20 0 -11 -4 -20 -10 -20 -5 0 -10 5 -10 10 0 6 -4 10 -10 10 -5 0 -10 -17
-10 -38 0 -21 -6 -58 -14 -83 -8 -24 -17 -61 -21 -81 -3 -21 -11 -38 -16 -38
-6 0 -8 -8 -5 -17 3 -10 1 -25 -4 -33 -7 -11 -10 0 -10 37 0 28 4 54 9 57 4 3
11 22 14 43 32 209 52 263 99 263 10 0 18 6 18 14 0 14 38 86 45 86 2 0 1 -17
-2 -37z m1151 -412 c4 -5 3 -11 -1 -13 -5 -2 -19 -17 -33 -33 -18 -22 -20 -25
-4 -12 11 9 24 14 27 10 4 -3 16 2 27 12 16 14 22 15 35 5 8 -7 15 -22 15 -34
0 -17 2 -18 10 -6 12 19 23 7 16 -18 -5 -14 -15 -18 -37 -17 -18 1 -33 -4 -36
-11 -3 -8 -9 -11 -14 -9 -5 3 -16 -3 -26 -14 -10 -12 -20 -16 -23 -11 -4 6
-15 2 -27 -9 -21 -20 -21 -20 -31 19 -8 33 -7 42 9 56 11 9 19 24 19 33 1 37
59 77 74 52z"/>
<path d="M1896 1658 c1 -24 5 -51 9 -61 4 -10 1 -36 -9 -60 -9 -24 -16 -52
-16 -64 0 -12 -3 -23 -8 -25 -4 -1 -25 -38 -47 -80 -22 -43 -44 -78 -50 -79
-5 0 4 -5 20 -10 25 -7 33 -5 47 14 9 12 18 20 20 17 28 -36 35 -58 25 -75 -7
-14 -7 -20 2 -23 6 -2 18 -10 26 -19 49 -49 77 54 69 250 -5 107 -8 125 -37
185 -39 79 -53 87 -51 30z"/>
<path d="M297 1828 c-22 -8 -26 -13 -16 -24 9 -11 5 -20 -15 -45 -14 -17 -26
-36 -25 -42 0 -8 2 -8 6 1 2 6 10 12 16 12 7 0 18 9 25 20 20 32 35 23 15 -10
-9 -16 -23 -30 -30 -30 -7 0 -13 -5 -13 -11 0 -5 -4 -7 -10 -4 -5 3 -10 0 -10
-9 0 -16 -47 -76 -61 -76 -4 0 -5 7 -2 17 5 11 3 14 -6 8 -10 -5 -12 -1 -7 16
3 13 3 19 0 12 -3 -7 -12 -9 -20 -6 -22 8 -46 -16 -38 -40 6 -19 5 -19 -8 -7
-8 8 -34 32 -57 53 l-41 38 0 -124 c0 -77 5 -141 14 -170 8 -26 12 -47 9 -47
-3 0 13 -20 36 -45 22 -24 41 -54 41 -66 0 -23 30 -24 38 0 3 8 0 11 -7 7 -7
-5 -11 2 -11 18 0 17 -9 31 -27 43 -39 25 -40 26 -42 110 -2 66 0 75 12 64 9
-7 13 -21 10 -33 -5 -18 -3 -19 14 -9 21 11 45 83 36 107 -3 8 0 14 7 14 9 0
10 -11 6 -35 -7 -37 0 -43 34 -25 16 8 28 5 60 -16 48 -32 64 -25 24 10 -19
17 -24 26 -14 26 9 0 4 6 -10 13 -28 14 -33 40 -9 45 23 4 96 -108 78 -119
-11 -6 -11 -11 -1 -21 8 -8 15 -9 22 -2 6 6 -1 42 -20 103 -17 51 -30 99 -30
106 0 8 17 22 38 32 31 15 37 23 35 46 -2 24 0 27 13 16 8 -6 17 -9 21 -5 4 3
-2 13 -13 22 -10 8 -14 13 -8 10 7 -3 14 4 17 16 8 29 3 32 -23 18 -20 -11
-21 -10 -15 9 7 23 3 24 -38 9z"/>
<path d="M855 1390 c-11 -5 -53 -23 -94 -41 -41 -17 -81 -38 -89 -45 -15 -16
-36 -19 -27 -4 3 6 -1 7 -9 4 -9 -3 -13 -11 -10 -16 4 -6 -1 -8 -14 -4 -19 6
-167 -34 -202 -54 -82 -48 -106 -61 -138 -72 -20 -7 -62 -33 -92 -59 -30 -25
-71 -57 -90 -70 -53 -36 -90 -66 -90 -73 0 -9 54 20 72 38 8 7 38 26 66 40 28
14 66 39 84 55 18 15 55 38 82 50 28 12 64 32 82 46 17 13 44 27 60 31 16 4
58 20 93 35 35 16 66 29 69 29 12 0 -15 -20 -50 -37 -20 -10 -66 -46 -102 -80
-36 -35 -69 -63 -74 -63 -4 0 -23 -21 -41 -46 -56 -74 -89 -106 -102 -98 -8 4
-9 3 -5 -4 8 -13 -31 -55 -44 -47 -5 3 -11 1 -15 -5 -3 -5 -1 -10 4 -10 6 0
11 -4 11 -10 0 -5 -6 -10 -13 -10 -6 0 -18 -13 -25 -29 -7 -16 -24 -41 -37
-55 -14 -15 -25 -34 -25 -42 0 -8 -14 -44 -31 -80 -17 -36 -29 -67 -26 -70 3
-3 16 20 30 50 14 30 31 61 37 68 11 12 42 60 66 100 6 10 13 16 16 13 2 -3 5
3 5 12 0 9 13 26 28 38 16 11 37 29 47 40 26 30 199 213 234 249 52 52 119 96
234 152 60 30 113 54 117 54 5 0 17 7 27 15 22 16 12 19 -19 5z"/>
</g>
</svg>
