<?xml version="1.0" standalone="no"?>
<!DOCTYPE svg PUBLIC "-//W3C//DTD SVG 20010904//EN"
 "http://www.w3.org/TR/2001/REC-SVG-20010904/DTD/svg10.dtd">
<svg version="1.0" xmlns="http://www.w3.org/2000/svg"
 width="225.000000pt" height="225.000000pt" viewBox="0 0 225.000000 225.000000"
 preserveAspectRatio="xMidYMid meet">
<metadata>
Created by potrace 1.15, written by Peter Selinger 2001-2017
</metadata>
<g transform="translate(0.000000,225.000000) scale(0.100000,-0.100000)"
fill="#000000" stroke="none">
<path d="M1246 2058 c-3 -13 -7 -32 -8 -43 -3 -16 -12 -21 -46 -23 -42 -3 -43
-3 -31 20 12 22 11 22 -6 8 -15 -12 -19 -12 -23 -2 -3 9 -9 7 -19 -8 -14 -20
-14 -23 1 -38 19 -19 146 -29 146 -11 0 6 -8 8 -20 4 -12 -4 -20 -2 -20 5 0 6
5 8 10 5 6 -3 10 -1 10 6 0 8 4 8 15 -1 9 -7 13 -21 10 -31 -3 -9 -1 -20 5
-24 5 -3 10 -1 10 4 0 24 17 9 28 -25 9 -30 8 -35 -4 -30 -18 7 -18 -5 -1 -29
13 -17 15 -16 25 13 9 26 8 35 -4 47 -9 8 -12 15 -7 15 12 0 28 -14 29 -25 1
-5 4 -25 8 -44 5 -27 3 -32 -10 -27 -9 4 -12 2 -8 -5 4 -7 -1 -10 -12 -7 -12
2 -23 -5 -29 -17 -7 -12 -21 -20 -37 -20 -17 1 -24 -4 -21 -12 7 -18 40 -16
51 3 7 13 14 14 27 6 17 -9 17 -10 -3 -16 -22 -7 -31 -26 -12 -26 6 0 10 5 10
10 0 7 6 7 20 0 16 -8 20 -8 20 4 0 26 20 28 29 4 12 -31 0 -41 -34 -28 -30
11 -57 -1 -34 -16 27 -17 62 -13 81 9 18 21 19 21 14 2 -2 -11 -7 -46 -11 -77
-4 -40 -11 -58 -20 -58 -9 0 -12 6 -9 15 5 11 -1 15 -20 15 -14 0 -26 4 -26 9
0 20 13 41 21 35 5 -3 9 0 9 6 0 6 -8 9 -18 6 -14 -5 -21 2 -32 29 -11 27 -16
32 -27 23 -11 -9 -22 -4 -49 23 -19 18 -30 35 -24 37 7 3 5 8 -4 16 -19 14
-32 66 -17 66 6 0 11 -10 12 -22 0 -13 3 -17 6 -10 8 19 33 15 27 -5 -5 -14
-4 -15 4 -4 7 10 11 10 17 1 4 -7 1 -16 -6 -21 -11 -7 -11 -9 2 -9 9 0 18 3
21 6 10 10 -4 44 -18 44 -13 0 -19 13 -15 33 1 5 -8 5 -20 2 -18 -6 -21 -4
-16 9 4 9 2 16 -3 16 -5 0 -10 -8 -13 -17 -4 -17 -4 -17 -12 1 -5 11 -3 21 4
25 7 4 -3 13 -24 21 -35 14 -70 53 -61 69 6 9 -54 39 -92 46 -13 2 -33 0 -45
-5 -20 -8 -20 -9 7 -9 23 -1 42 -14 78 -52 26 -28 48 -56 48 -63 -1 -6 -11 1
-23 17 -35 41 -49 35 -45 -20 3 -41 0 -48 -14 -45 -13 2 -18 -4 -18 -19 0 -17
3 -19 13 -10 14 11 27 5 27 -13 0 -6 -5 -4 -10 4 -7 11 -9 1 -8 -34 2 -34 -1
-51 -10 -54 -11 -3 -12 0 -3 17 9 17 9 20 -3 15 -26 -10 -25 -32 2 -60 15 -15
22 -24 16 -21 -21 12 -24 -46 -4 -78 19 -30 20 -38 22 -102 1 -31 18 -49 18
-19 0 24 29 27 41 4 10 -18 9 -20 -6 -14 -22 8 -49 -12 -36 -28 12 -15 19 -86
8 -86 -5 0 -1 -7 7 -16 20 -20 21 -60 1 -68 -8 -3 -15 -12 -15 -20 0 -25 -97
-18 -118 9 -25 31 -64 55 -89 55 -18 0 -23 6 -24 28 -1 15 -1 31 0 36 1 5 -1
22 -5 39 -5 22 -8 26 -15 16 -7 -9 -8 -5 -3 13 4 17 -5 58 -25 116 -29 86 -32
132 -7 132 17 0 138 -49 154 -62 7 -6 15 -8 18 -5 10 9 -6 27 -24 28 -9 0 -51
17 -92 37 -71 35 -92 60 -61 70 8 3 11 0 7 -7 -4 -6 1 -14 11 -18 10 -3 29
-15 42 -25 13 -10 29 -18 35 -18 6 0 3 5 -7 11 -28 17 -67 55 -67 68 0 6 -13
11 -30 11 -16 0 -30 -5 -30 -11 0 -5 5 -7 12 -3 7 4 8 3 4 -4 -16 -26 -66 -2
-66 31 0 8 -6 20 -13 26 -17 13 -99 43 -104 37 -2 -2 18 -12 46 -21 28 -9 51
-21 51 -26 0 -6 -9 -7 -22 -2 -13 4 -35 7 -50 7 -16 -1 -25 3 -21 9 3 6 1 7
-6 3 -15 -10 -43 13 -37 30 4 10 -5 13 -28 12 -28 -1 -33 -5 -32 -24 1 -21 2
-22 19 -6 16 14 19 14 27 2 13 -21 12 -36 -1 -23 -8 8 -30 -2 -82 -40 -87 -64
-157 -126 -157 -139 0 -6 -9 -21 -19 -34 -14 -18 -20 -21 -24 -10 -3 8 3 22
14 32 10 9 19 24 20 33 0 16 50 60 138 124 54 39 69 70 17 34 -68 -46 -185
-158 -199 -190 -56 -128 -70 -164 -80 -215 -7 -31 -21 -69 -31 -84 -10 -15
-15 -32 -12 -37 4 -5 2 -13 -4 -16 -7 -5 -8 -11 -1 -19 7 -8 5 -26 -6 -56 -14
-37 -17 -89 -17 -290 l-1 -245 25 -37 c77 -115 94 -152 70 -160 -5 -1 -11 -22
-12 -45 -1 -24 -6 -43 -11 -43 -6 0 -3 -8 5 -17 9 -10 13 -24 11 -30 -3 -8 4
-13 16 -13 13 0 21 -6 21 -16 0 -12 7 -15 26 -11 15 3 40 1 55 -3 26 -8 28 -7
19 11 -13 23 2 26 20 4 13 -16 35 -21 26 -6 -4 5 -1 11 6 13 6 2 8 10 4 16
-10 17 -26 15 -20 -3 9 -22 -9 -18 -24 5 -11 18 -10 20 12 20 13 0 29 7 36 15
17 20 27 19 35 -5 6 -18 8 -18 21 -5 19 18 31 19 37 3 4 -10 6 -10 6 0 1 6 5
12 11 12 5 0 7 -7 4 -15 -4 -8 -2 -15 2 -15 14 0 39 18 40 30 1 5 2 15 3 21 0
5 6 7 12 3 6 -3 9 -20 6 -37 -5 -36 17 -88 26 -62 4 8 2 15 -3 15 -6 0 -10 5
-10 12 0 6 7 4 18 -5 10 -10 22 -14 25 -10 10 9 57 -18 57 -34 0 -7 5 -13 10
-13 6 0 9 10 7 23 -2 12 -2 16 0 10 8 -24 23 -13 23 17 0 17 -4 30 -10 30 -5
0 -6 7 -3 17 4 11 3 14 -5 9 -7 -4 -12 -1 -12 8 0 34 20 24 31 -16 7 -24 13
-47 13 -51 1 -5 9 -14 19 -21 9 -7 17 -18 17 -25 0 -6 4 -11 8 -11 5 0 9 12 9
28 0 15 3 40 7 56 4 15 3 25 -2 22 -5 -3 -7 6 -4 20 3 15 -2 32 -13 44 -10 11
-13 20 -7 20 6 0 13 -6 15 -12 3 -7 6 -2 7 12 1 14 3 32 4 40 2 23 -14 40 -38
40 -28 0 -62 35 -77 78 -10 28 -7 44 26 127 20 52 40 97 45 100 5 3 7 12 3 20
-3 9 1 15 9 15 22 0 29 -12 14 -24 -18 -14 -33 -62 -17 -52 6 4 11 3 11 -1 0
-5 -9 -14 -20 -21 -11 -7 -20 -17 -20 -24 0 -6 9 -3 20 7 11 10 20 13 20 7 0
-5 -13 -22 -30 -35 -37 -32 -39 -44 -4 -20 26 17 27 17 20 -7 l-7 -25 15 25
c9 14 15 20 16 13 0 -7 12 -20 28 -28 15 -9 19 -14 10 -11 -14 4 -16 1 -8 -18
5 -14 4 -28 -2 -37 -8 -11 -9 -10 -4 4 9 27 -7 20 -26 -13 -9 -17 -13 -30 -8
-30 4 0 10 6 13 13 2 6 8 9 12 5 4 -4 2 -15 -5 -23 -11 -13 -11 -18 0 -28 10
-10 11 -9 5 3 -7 12 -6 13 6 3 12 -10 20 -7 42 13 31 28 33 41 12 64 -13 15
-12 19 10 40 21 19 25 21 25 7 0 -21 26 -22 34 -2 4 11 13 14 33 9 39 -9 44
-16 47 -65 4 -56 40 -89 98 -89 32 0 39 -3 34 -15 -4 -11 1 -15 19 -15 23 0
25 4 25 49 0 31 -5 53 -15 61 -19 16 -19 31 0 24 11 -5 13 -2 9 10 -4 11 -1
16 11 16 12 0 15 -5 11 -16 -5 -14 -1 -16 34 -10 l41 6 -23 -31 c-21 -28 -35
-115 -17 -104 12 8 18 -22 6 -34 -14 -14 -5 -14 27 0 14 7 23 16 20 21 -3 5 0
15 6 23 7 8 9 15 4 15 -5 0 -2 5 6 11 13 9 13 10 0 6 -8 -2 -14 -10 -13 -16 2
-6 -2 -11 -7 -11 -14 0 -13 10 5 61 9 24 14 53 11 64 -5 20 -5 20 9 1 20 -27
19 -6 -1 23 -15 21 -15 24 -1 39 13 13 19 13 31 2 9 -7 16 -9 16 -4 -1 13 -50
47 -57 40 -4 -3 -1 -6 5 -6 21 0 13 -16 -8 -17 -34 -3 -22 24 19 40 22 9 42
20 45 25 9 15 -62 12 -77 -3 -13 -12 -17 -12 -33 0 -18 14 -18 15 6 34 34 27
108 37 127 18 13 -13 13 -18 -3 -43 -19 -28 -19 -28 1 -21 16 6 15 4 -4 -12
-23 -18 -24 -20 -8 -36 12 -11 15 -24 10 -43 -4 -15 -7 -36 -7 -47 -1 -23 -23
-49 -50 -59 -10 -3 -16 -9 -14 -12 7 -6 108 25 126 39 17 14 15 28 -4 25 -10
-2 -19 2 -21 8 -5 14 32 56 42 46 4 -4 3 3 -4 15 -8 16 -8 24 1 29 6 4 8 3 4
-4 -3 -6 -2 -13 4 -17 5 -3 10 1 10 9 0 9 4 16 10 16 5 0 19 18 30 40 l21 40
-25 27 -25 27 -21 -24 c-11 -12 -20 -27 -20 -32 0 -4 -7 -8 -16 -8 -10 0 -12
4 -7 13 11 17 12 77 2 107 -9 23 -32 37 -114 67 -20 7 -20 7 -1 -13 11 -10 24
-19 29 -19 6 0 12 -5 14 -11 7 -20 -24 -23 -48 -6 -13 9 -29 17 -36 18 -15 2
-26 -40 -11 -45 6 -2 19 -12 30 -23 20 -20 45 -20 90 -3 11 4 20 -1 28 -15 11
-20 10 -21 -10 -10 -17 9 -29 9 -51 -1 -23 -9 -33 -9 -42 0 -8 8 -19 4 -42
-19 l-30 -30 -14 23 c-12 19 -12 20 0 10 11 -9 20 -6 42 11 l29 23 -31 13
c-25 10 -29 15 -21 30 18 34 10 61 -33 108 -23 26 -49 56 -57 66 -14 17 -13
18 6 12 13 -4 28 1 43 15 l22 21 27 -31 c29 -32 115 -81 141 -80 9 0 1 7 -16
15 -18 8 -33 19 -33 24 0 6 -8 10 -17 10 -10 0 -41 25 -69 55 -28 30 -48 55
-44 55 10 0 7 33 -4 41 -13 10 3 29 19 23 10 -4 12 -15 8 -35 -5 -26 -3 -29
18 -29 23 1 23 1 5 15 -11 8 -17 18 -13 22 4 3 16 -2 27 -12 32 -29 23 -1 -10
35 -22 24 -28 36 -20 44 7 7 16 7 30 -2 27 -16 26 0 -2 43 -16 24 -28 33 -40
29 -10 -3 -18 0 -18 6 0 6 4 9 9 6 5 -4 11 -2 13 2 1 5 17 12 33 15 17 3 24 4
18 1 -7 -3 -13 -10 -13 -15 0 -6 8 -5 20 1 11 6 26 8 32 4 7 -5 8 -3 3 5 -4 8
4 24 20 41 25 27 29 28 44 13 9 -9 17 -29 17 -45 1 -15 2 -41 3 -57 0 -16 8
-36 16 -45 11 -11 15 -37 15 -98 0 -46 2 -104 5 -130 4 -35 2 -48 -7 -48 -9 0
-8 -3 2 -10 21 -13 5 -23 -18 -11 -12 6 -34 11 -51 11 -16 0 -33 5 -36 10 -3
6 -25 9 -48 9 l-42 -1 40 -10 c22 -5 58 -12 80 -15 42 -6 76 -38 85 -82 11
-52 35 -30 55 49 l6 25 -20 -25 c-16 -21 -22 -23 -33 -12 -11 11 -10 12 2 7
15 -5 27 9 63 75 l19 35 -6 -35 c-3 -19 -9 -53 -12 -75 -4 -22 -10 -44 -14
-50 -18 -26 -16 -43 7 -65 l24 -23 -4 58 c-2 32 0 74 5 94 18 72 19 91 7 113
-7 13 -13 32 -14 42 -1 10 -9 24 -18 31 -10 7 -17 26 -17 42 0 22 -6 32 -20
36 -14 4 -20 14 -20 32 0 37 21 105 32 105 5 0 6 5 2 12 -5 8 0 9 15 5 18 -4
23 0 28 24 6 32 23 50 23 24 0 -9 5 -13 10 -10 6 4 17 2 25 -5 15 -12 12 -50
-4 -60 -6 -3 -8 -18 -5 -34 3 -18 1 -25 -6 -21 -6 4 -9 13 -6 21 3 9 0 11 -11
7 -9 -4 -14 -2 -10 3 3 5 -6 15 -21 22 l-26 12 27 -28 c42 -44 50 -77 32 -137
-19 -65 -19 -75 -1 -75 8 0 19 14 25 30 17 50 59 38 150 -46 30 -27 65 -59 79
-71 46 -42 44 -24 -3 23 -25 25 -45 50 -45 55 0 5 22 -13 50 -42 27 -28 49
-54 48 -57 -1 -4 4 -20 10 -35 7 -16 12 -35 12 -43 0 -8 7 -14 15 -14 8 0 15
5 15 11 0 5 -5 7 -11 3 -8 -5 -8 -1 0 14 6 11 11 35 11 52 0 47 16 70 49 70
34 0 63 -30 89 -90 10 -25 38 -83 61 -130 26 -54 41 -98 41 -122 0 -21 4 -38
10 -38 12 0 34 40 26 48 -3 3 -6 -1 -6 -8 0 -7 -3 -11 -6 -7 -3 3 1 18 9 34 9
15 21 55 27 88 7 33 16 78 21 100 11 55 11 123 -1 130 -5 3 -10 14 -10 23 0
14 2 15 10 2 5 -8 12 -11 16 -7 4 3 2 13 -4 20 -7 8 -9 16 -6 19 3 3 -8 30
-25 59 -16 30 -46 108 -66 174 -21 66 -46 135 -57 152 -11 18 -17 37 -14 42 3
5 -17 33 -45 62 -29 30 -62 68 -75 85 l-24 31 21 61 c30 88 40 93 144 72 92
-19 143 -47 171 -95 15 -24 19 -26 22 -12 7 33 -36 83 -98 115 -33 18 -60 29
-60 24 0 -4 -5 1 -11 11 -6 9 -14 15 -20 12 -5 -4 -9 -1 -9 6 0 9 -3 9 -14 0
-12 -10 -13 -8 -9 10 5 18 3 21 -11 16 -10 -4 -23 -4 -29 0 -6 4 -27 6 -47 4
-19 -1 -84 5 -145 15 -141 21 -230 21 -275 0 -84 -40 -92 -47 -86 -72 4 -14 2
-24 -4 -24 -5 0 -10 7 -10 16 0 12 -7 14 -30 9 -23 -5 -30 -3 -30 9 0 9 -8 16
-19 16 -16 0 -20 10 -26 60 -5 41 -11 60 -21 60 -7 0 -16 -10 -18 -22z m-533
-782 c19 -12 60 -48 93 -81 32 -34 76 -72 96 -85 20 -14 39 -31 41 -40 3 -8 8
-23 12 -32 13 -31 -19 -19 -40 15 -25 40 -50 42 -50 5 0 -40 -20 -56 -43 -35
-10 9 -26 17 -35 17 -14 0 -16 -6 -11 -26 9 -33 -29 -72 -51 -54 -8 7 -26 9
-40 6 -22 -6 -24 -9 -13 -26 20 -31 -1 -54 -51 -58 -41 -3 -54 -15 -27 -25 7
-3 15 -17 18 -30 4 -19 1 -24 -10 -19 -11 4 -14 1 -9 -10 4 -13 -2 -16 -29
-16 -44 0 -53 -8 -29 -26 28 -21 12 -46 -30 -46 -36 0 -47 -13 -20 -24 8 -3
15 -13 15 -21 0 -12 -6 -15 -21 -10 -16 5 -20 3 -16 -6 2 -8 10 -13 16 -11 7
1 10 -2 6 -8 -3 -5 -13 -10 -22 -10 -12 0 -13 -3 -4 -14 8 -10 9 -16 1 -21 -5
-3 -10 -17 -10 -31 0 -13 -4 -24 -10 -24 -5 0 -10 -9 -10 -20 0 -11 -6 -20
-14 -20 -8 0 -17 -7 -20 -16 -4 -9 -13 -14 -21 -10 -9 3 -15 0 -15 -9 0 -20
-14 -26 -48 -19 -33 7 -59 50 -48 79 3 9 -3 39 -14 68 -15 37 -16 46 -5 33 8
-11 15 -26 15 -33 0 -7 5 -13 11 -13 8 0 9 11 5 31 -3 17 -6 40 -6 51 0 10 -4
17 -9 13 -6 -3 -14 3 -20 12 -5 10 -13 16 -18 13 -4 -3 -9 15 -11 40 -3 40 3
55 42 114 l44 68 17 -25 c15 -24 68 -51 78 -40 3 2 -8 33 -24 68 -26 59 -28
69 -19 113 13 58 40 105 75 128 29 19 24 22 117 -72 26 -26 50 -45 53 -42 3 3
-1 23 -9 44 -21 58 -39 168 -31 202 3 16 22 47 42 68 l36 39 23 -49 c14 -32
35 -57 57 -70z"/>
<path d="M1333 525 c-13 -19 -23 -39 -23 -44 0 -4 -18 -7 -40 -5 -23 2 -58 -3
-79 -12 -34 -14 -37 -17 -35 -52 1 -20 5 -45 9 -55 4 -9 2 -24 -5 -32 -14 -17
-45 -21 -35 -5 4 6 -4 20 -17 31 l-23 20 25 -12 25 -12 -20 23 c-11 13 -14 20
-6 15 10 -6 12 -3 7 13 -4 11 -3 23 2 26 12 7 3 59 -12 68 -6 4 -18 7 -26 7
-9 0 -6 -5 8 -11 24 -12 30 -28 10 -28 -9 0 -8 -4 2 -10 13 -9 12 -12 -4 -25
-11 -8 -27 -15 -37 -15 -19 0 -42 24 -32 33 3 4 -1 7 -9 7 -9 0 -18 -11 -20
-25 -4 -17 -1 -25 9 -25 9 0 13 -6 9 -15 -3 -8 0 -14 6 -12 12 2 33 -51 24
-60 -4 -4 -12 -1 -18 5 -9 9 -9 12 3 12 12 0 12 2 -1 10 -18 11 -33 -9 -19
-26 7 -8 6 -15 -2 -20 -8 -4 -9 -3 -5 4 4 7 2 12 -3 12 -6 0 -18 -16 -26 -36
-17 -42 -18 -47 -6 -40 4 3 6 -6 3 -19 -4 -24 -4 -24 27 -9 29 15 33 14 62 -7
l31 -22 -7 24 c-3 13 -3 20 2 14 4 -5 26 -11 48 -13 21 -1 44 -7 49 -12 17
-17 27 -11 16 9 -13 25 -13 34 0 26 16 -10 11 15 -6 33 -12 12 -13 17 -4 20 7
3 15 0 19 -5 3 -5 21 -17 39 -26 33 -16 33 -16 27 6 -4 16 -4 18 3 8 5 -7 23
-14 39 -15 17 -1 37 -7 46 -14 23 -19 30 2 7 23 -21 19 -28 41 -10 30 16 -10
24 24 9 41 -17 20 -54 41 -44 24 6 -9 3 -9 -13 -1 -14 7 -19 17 -15 28 5 12 3
14 -7 8 -10 -6 -12 -4 -7 8 4 11 1 17 -8 17 -8 0 -15 5 -15 11 0 5 6 7 13 3 9
-6 9 -5 1 7 -9 11 -9 17 1 26 7 6 14 10 16 9 2 -2 22 -6 43 -9 30 -5 36 -3 28
5 -20 20 -13 28 23 28 l36 0 -28 35 c-15 19 -30 35 -33 35 -3 0 -15 -16 -27
-35z"/>
</g>
</svg>
