<?xml version="1.0" standalone="no"?>
<!DOCTYPE svg PUBLIC "-//W3C//DTD SVG 20010904//EN"
 "http://www.w3.org/TR/2001/REC-SVG-20010904/DTD/svg10.dtd">
<svg version="1.0" xmlns="http://www.w3.org/2000/svg"
 width="225.000000pt" height="225.000000pt" viewBox="0 0 225.000000 225.000000"
 preserveAspectRatio="xMidYMid meet">
<metadata>
Created by potrace 1.15, written by Peter Selinger 2001-2017
</metadata>
<g transform="translate(0.000000,225.000000) scale(0.100000,-0.100000)"
fill="#000000" stroke="none">
<path d="M1136 2112 c-4 -12 -27 -36 -52 -52 -54 -38 -58 -60 -9 -60 24 0 37
-6 45 -19 5 -11 24 -23 42 -26 157 -34 228 -192 159 -350 -10 -23 -57 -79
-109 -130 -96 -96 -121 -143 -107 -206 8 -33 48 -69 79 -69 18 0 16 3 -11 20
-31 18 -33 24 -33 72 0 53 1 53 71 120 44 42 77 82 85 105 13 36 14 37 20 14
7 -23 8 -24 15 -5 4 10 5 34 2 52 -5 30 -3 32 22 32 27 0 28 1 11 19 -22 24
-13 41 20 41 29 0 31 11 4 28 -23 14 -27 42 -7 42 8 0 22 9 32 20 18 19 17 20
-2 20 -12 0 -31 9 -44 19 l-24 19 23 24 c12 13 22 32 22 41 0 13 -5 14 -29 6
-21 -7 -36 -7 -51 1 -18 10 -19 13 -5 26 22 22 20 58 -2 49 -10 -4 -30 -10
-44 -12 -24 -4 -25 -2 -21 26 4 30 -10 43 -23 21 -3 -5 -22 -10 -42 -10 -30 0
-34 3 -27 18 13 29 16 90 6 108 -9 16 -10 15 -16 -4z"/>
<path d="M854 2079 c-154 -15 -292 -77 -391 -176 -113 -112 -195 -328 -209
-546 -6 -102 -2 -150 45 -507 24 -182 27 -444 7 -560 -8 -41 -12 -76 -11 -78
5 -6 46 112 61 175 34 147 36 452 4 671 -19 132 -7 342 20 342 4 0 10 -51 13
-112 3 -62 13 -158 22 -213 30 -188 36 -270 31 -395 -5 -124 -5 -124 9 -70 27
100 34 271 22 515 -9 187 -8 240 2 278 24 85 36 74 37 -31 0 -59 10 -142 24
-212 23 -115 32 -320 17 -380 -4 -14 2 -7 13 16 33 70 43 172 36 374 -7 176
-2 275 13 265 8 -4 46 -159 57 -230 6 -37 8 -38 14 -15 5 14 8 66 9 117 1 86
2 93 27 112 18 14 41 21 72 21 l46 0 -43 36 c-51 45 -76 92 -92 176 -14 77 4
183 45 269 14 29 24 55 22 57 -6 6 -115 -46 -158 -76 -106 -73 -203 -198 -258
-334 -36 -89 -40 -75 -5 18 51 136 129 245 228 320 81 60 149 94 275 134 145
46 145 54 -4 39z"/>
<path d="M1286 2080 c5 -4 65 -27 134 -50 180 -60 274 -122 365 -240 47 -62
120 -203 130 -255 4 -16 -9 6 -29 49 -48 107 -97 179 -172 252 -56 55 -161
120 -222 139 -23 7 -23 6 -8 -23 46 -89 61 -147 61 -237 0 -112 -26 -176 -93
-235 l-45 -40 52 0 c38 0 56 -5 71 -20 24 -24 22 -13 25 -130 1 -52 7 -106 12
-120 8 -20 11 -13 15 46 3 38 15 105 28 148 21 69 25 76 33 55 5 -14 6 -107 3
-219 -7 -204 3 -331 29 -394 9 -20 16 -36 18 -36 1 0 0 57 -2 126 -2 102 2
153 24 279 17 99 26 178 23 223 -2 54 0 68 9 60 28 -23 37 -83 33 -208 -10
-270 -5 -543 10 -615 l15 -70 6 195 c3 118 14 250 26 335 12 77 25 178 28 224
8 96 18 92 36 -17 10 -58 9 -94 -6 -209 -23 -188 -31 -476 -15 -600 11 -90 66
-291 76 -280 2 2 -1 28 -8 58 -8 35 -13 129 -13 264 1 180 5 238 30 405 38
255 41 480 7 607 -96 358 -272 506 -636 537 -32 3 -55 1 -50 -4z"/>
<path d="M927 1959 c3 -60 -1 -84 -19 -128 -13 -30 -32 -59 -43 -65 -20 -11
-35 -26 -35 -37 0 -3 19 -21 43 -39 23 -19 34 -25 25 -14 -20 23 -24 39 -6 28
8 -5 9 0 5 15 -4 19 12 38 33 39 25 1 62 17 70 31 8 13 9 12 10 -9 0 -14 -4
-31 -9 -38 -4 -7 -5 -25 -2 -40 5 -26 5 -26 11 7 3 19 11 36 19 39 10 3 13 -2
9 -22 -3 -15 -2 -29 3 -32 5 -2 4 -15 -1 -28 -5 -13 -6 -27 -3 -30 4 -3 1 -6
-6 -6 -7 0 -9 -4 -6 -10 3 -5 0 -10 -7 -10 -20 0 13 -20 35 -20 14 0 17 9 17
49 0 34 6 56 22 76 19 25 20 28 5 37 -21 11 -22 26 -3 47 7 9 16 31 19 49 6
30 5 32 -13 22 -13 -7 -20 -7 -20 -1 0 6 10 16 22 22 l22 12 -27 14 c-29 15
-34 32 -15 51 9 9 5 12 -17 11 -17 -1 -43 -4 -60 -8 -26 -5 -30 -11 -31 -39
-2 -62 -21 -57 -27 6 -8 93 -25 109 -20 21z"/>
<path d="M1095 1959 c-9 -14 36 -53 85 -75 69 -30 101 -77 102 -154 2 -90 -38
-155 -140 -226 -153 -107 -196 -169 -197 -279 0 -115 53 -210 152 -273 104
-66 182 -65 242 3 38 44 43 109 11 146 -11 13 -20 20 -19 14 3 -24 -2 -45 -11
-45 -5 0 -10 6 -10 13 0 20 -30 44 -64 53 l-28 7 18 -29 c19 -28 19 -28 -1
-20 -39 16 -55 18 -82 11 l-28 -7 25 -11 c26 -11 26 -11 -42 -22 -41 -6 -49
-23 -19 -42 15 -9 27 -7 66 13 60 30 113 31 149 3 90 -70 -62 -123 -183 -63
-65 33 -106 87 -121 159 -26 126 37 241 188 344 101 69 144 142 144 248 1 111
-56 186 -162 213 -25 7 -50 16 -57 21 -7 7 -14 6 -18 -2z"/>
<path d="M749 1561 c7 -11 37 -45 69 -76 l57 -55 -58 0 c-48 0 -62 -4 -82 -25
-31 -30 -34 -50 -6 -35 11 5 46 10 78 10 l59 0 61 68 c59 66 60 68 32 64 -20
-3 -31 -11 -35 -27 -3 -13 -14 -31 -25 -41 -18 -17 -19 -16 -19 33 l0 50 -42
6 c-22 3 -54 15 -70 27 -29 22 -30 22 -19 1z"/>
<path d="M1737 1200 c-33 -180 -40 -335 -17 -350 27 -18 30 -11 30 76 0 47 5
150 11 228 16 207 8 222 -24 46z"/>
<path d="M483 1285 c4 -33 10 -148 13 -256 l7 -196 25 11 c24 11 24 12 19 121
-5 100 -50 362 -64 375 -3 3 -3 -22 0 -55z"/>
<path d="M980 913 c-8 -3 -28 -15 -44 -26 l-28 -20 28 -13 c17 -7 22 -13 13
-13 -9 -1 -27 -10 -40 -21 l-24 -19 30 -1 30 0 -28 -18 c-61 -41 -76 -85 -24
-75 l32 6 -40 -39 -40 -39 27 -3 27 -3 -19 -32 c-25 -41 -25 -50 1 -42 18 6
19 5 10 -13 -15 -28 -14 -42 4 -42 9 0 15 -10 15 -26 0 -14 4 -23 10 -19 6 3
10 -5 10 -19 0 -16 4 -24 13 -20 7 2 17 -8 24 -25 9 -24 27 -38 97 -70 63 -29
91 -48 107 -73 l21 -33 -6 39 c-3 21 -13 47 -22 57 -25 27 -12 33 20 8 23 -18
27 -19 32 -5 4 9 4 26 1 37 -5 17 -2 20 14 16 15 -4 19 0 19 19 l0 25 -37 -28
c-31 -24 -46 -28 -103 -28 -57 0 -72 4 -102 27 -20 15 -46 49 -59 75 -47 98
-23 293 50 402 37 55 30 72 -19 54z"/>
<path d="M1010 848 c-63 -110 -89 -268 -59 -359 37 -108 137 -157 229 -111 43
21 80 75 80 115 0 26 2 28 16 16 9 -7 20 -22 24 -34 7 -15 9 -11 9 21 1 52
-33 118 -79 153 -30 23 -33 24 -26 6 4 -11 12 -42 18 -68 14 -68 -10 -132 -59
-155 -33 -16 -36 -15 -71 3 -46 25 -82 88 -89 158 -6 62 24 187 63 256 13 24
24 45 24 47 0 2 -11 4 -25 4 -19 0 -31 -11 -55 -52z"/>
</g>
</svg>
