<?xml version="1.0" standalone="no"?>
<!DOCTYPE svg PUBLIC "-//W3C//DTD SVG 20010904//EN"
 "http://www.w3.org/TR/2001/REC-SVG-20010904/DTD/svg10.dtd">
<svg version="1.0" xmlns="http://www.w3.org/2000/svg"
 width="225.000000pt" height="225.000000pt" viewBox="0 0 225.000000 225.000000"
 preserveAspectRatio="xMidYMid meet">
<metadata>
Created by potrace 1.15, written by Peter Selinger 2001-2017
</metadata>
<g transform="translate(0.000000,225.000000) scale(0.100000,-0.100000)"
fill="#000000" stroke="none">
<path d="M1190 2116 c0 -49 23 -124 48 -150 18 -21 20 -25 5 -12 -27 22 -28
18 -8 -31 8 -19 15 -38 15 -42 -1 -15 -31 48 -45 95 -22 74 -95 167 -95 122 0
-15 18 -130 26 -172 5 -21 3 -26 -6 -21 -19 12 -3 -117 28 -215 15 -47 25 -89
24 -95 -2 -5 9 2 23 18 14 15 30 27 35 27 19 0 40 -13 34 -22 -3 -5 -11 -5
-19 2 -11 9 -12 7 -9 -7 3 -12 -3 -21 -18 -28 -12 -5 -25 -21 -29 -35 -4 -14
-7 -18 -8 -9 -1 9 -10 19 -21 22 -16 4 -24 -5 -46 -54 -26 -57 -28 -59 -46
-43 -10 10 -20 15 -23 12 -8 -8 72 -68 90 -68 12 0 15 -5 11 -16 -3 -9 -6 -31
-6 -51 0 -38 -23 -43 -28 -5 -3 21 -9 22 -85 22 -81 0 -141 -11 -184 -32 l-22
-11 20 -29 c37 -51 180 -108 272 -108 28 0 44 -7 61 -25 13 -14 27 -25 32 -25
5 0 35 -14 66 -30 31 -16 85 -36 119 -44 34 -8 69 -22 77 -30 13 -12 12 -17
-8 -38 -12 -12 -29 -36 -37 -52 -8 -16 -18 -24 -22 -19 -3 6 -35 13 -71 16
-50 4 -87 17 -168 57 -88 44 -117 65 -192 140 -92 91 -92 91 -217 115 -26 5
-32 4 -28 -8 5 -10 -17 -19 -87 -36 -94 -23 -196 -60 -168 -60 8 0 34 4 58 9
37 9 47 8 68 -9 19 -15 31 -18 48 -11 26 9 39 3 49 -22 7 -19 35 -23 118 -19
55 3 123 -14 150 -37 52 -45 304 -178 356 -188 18 -3 33 -10 33 -14 0 -11 -31
-36 -80 -63 -35 -19 -53 -38 -78 -85 -18 -34 -33 -78 -35 -101 -2 -38 -17 -60
-17 -26 0 11 -7 14 -25 11 -62 -11 -78 -55 -79 -213 -1 -68 2 -123 7 -123 4 0
16 15 27 33 l20 32 0 -27 c0 -58 22 -76 42 -33 l12 26 13 -33 c12 -27 16 -30
27 -17 8 8 29 60 46 116 l33 102 52 15 c28 9 75 26 103 38 l52 23 -25 35 c-39
53 -30 48 31 -16 58 -62 84 -108 83 -146 0 -23 0 -23 -9 -2 -9 23 -28 39 -36
31 -7 -6 18 -57 28 -57 4 0 8 -17 8 -39 0 -39 30 -91 53 -91 6 0 21 -10 34
-21 l22 -22 30 32 c16 17 36 31 44 31 18 0 51 -100 37 -114 -4 -4 -6 -15 -3
-22 7 -19 -6 -17 -31 3 -17 16 -17 14 3 -15 27 -39 45 -37 49 6 4 40 11 40 42
2 32 -38 50 -38 50 0 0 33 11 38 30 15 20 -24 30 -17 30 21 0 22 -4 33 -11 29
-6 -4 -8 -13 -5 -21 3 -8 0 -14 -7 -14 -7 0 -21 24 -31 52 -11 29 -22 57 -27
62 -9 10 -1 36 12 36 5 0 17 -17 28 -37 11 -21 20 -34 21 -30 1 23 -45 89
-100 142 -75 74 -107 122 -91 138 6 6 11 18 11 27 0 11 8 16 23 16 18 -1 22 5
25 36 2 28 17 52 61 102 34 39 71 95 92 141 31 70 36 75 59 70 14 -4 33 -7 43
-8 9 -1 17 -5 17 -10 0 -4 4 -6 9 -3 5 4 11 2 13 -3 1 -5 15 -13 31 -16 23 -6
27 -4 27 13 0 11 6 22 12 24 10 4 8 19 -6 64 -24 75 -74 128 -131 138 -35 7
-43 13 -63 54 -26 54 -27 79 -7 106 21 28 19 99 -3 119 -10 10 -21 15 -24 12
-3 -3 -11 1 -18 10 -11 13 -50 22 -50 11 0 -2 7 -17 15 -32 8 -16 15 -34 15
-41 0 -21 -39 -5 -66 26 -14 17 -42 35 -64 41 -51 14 -59 44 -21 79 24 23 33
25 65 19 45 -9 70 5 74 42 1 17 -1 21 -7 12 -6 -10 -12 -5 -21 20 l-13 33 -6
-35 -7 -35 -7 33 c-5 23 -12 32 -27 32 -13 0 -28 12 -38 30 -9 16 -25 30 -35
30 -17 0 -43 47 -32 58 3 3 17 0 31 -7 15 -6 28 -10 30 -9 5 5 -30 138 -36
138 -4 0 -14 -15 -23 -32 -15 -32 -16 -32 -17 -8 0 22 -2 23 -11 8 -14 -25
-29 -22 -30 5 -1 18 -2 18 -6 4 -3 -11 -10 -16 -20 -13 -8 3 -28 6 -44 6 -19
0 -29 5 -29 15 0 26 -68 92 -184 179 -62 46 -118 91 -125 100 -16 20 -31 21
-31 2z m215 -655 c22 -10 45 -24 51 -32 12 -16 13 -67 1 -86 -13 -20 -57 -16
-58 5 -2 31 3 47 18 55 12 8 11 13 -8 33 -17 18 -33 24 -63 24 -34 -1 -38 -3
-26 -13 23 -18 25 -75 3 -99 -17 -19 -17 -20 7 -40 l25 -21 -30 6 c-27 5 -28
4 -10 -9 23 -17 10 -18 -33 -3 -39 13 -62 48 -62 94 0 48 15 74 53 90 44 19
84 18 132 -4z"/>
<path d="M1178 768 c-76 -41 -77 -41 -192 -42 -98 -1 -116 -3 -116 -17 0 -20
133 -67 215 -75 l60 -6 24 58 c14 33 40 74 58 92 19 17 33 32 31 31 -2 0 -38
-19 -80 -41z"/>
</g>
</svg>
