<?xml version="1.0" standalone="no"?>
<!DOCTYPE svg PUBLIC "-//W3C//DTD SVG 20010904//EN"
 "http://www.w3.org/TR/2001/REC-SVG-20010904/DTD/svg10.dtd">
<svg version="1.0" xmlns="http://www.w3.org/2000/svg"
 width="225.000000pt" height="225.000000pt" viewBox="0 0 225.000000 225.000000"
 preserveAspectRatio="xMidYMid meet">
<metadata>
Created by potrace 1.15, written by Peter Selinger 2001-2017
</metadata>
<g transform="translate(0.000000,225.000000) scale(0.100000,-0.100000)"
fill="#000000" stroke="none">
<path d="M1600 2138 c0 -25 -2 -27 -24 -17 -27 13 -121 -3 -152 -25 -17 -13
-16 -14 10 -9 l28 6 -37 -36 c-47 -46 -92 -62 -131 -47 -27 11 -27 10 -11 -8
9 -10 18 -29 19 -43 2 -18 -2 -25 -19 -27 -25 -4 -28 -14 -13 -43 7 -11 7 -19
1 -19 -5 0 -12 6 -14 13 -3 6 -6 3 -6 -8 -1 -12 4 -26 10 -32 8 -8 8 -17 0
-31 -6 -11 -11 -29 -11 -39 1 -17 2 -17 13 -1 11 14 13 10 13 -29 -1 -31 4
-48 13 -51 8 -3 11 0 7 7 -4 6 -3 11 2 11 5 0 15 -12 22 -26 8 -14 22 -30 32
-35 19 -10 25 -59 7 -59 -5 0 -7 -5 -4 -10 4 -6 15 -8 25 -5 13 4 19 -1 23
-22 3 -16 19 -37 36 -48 16 -11 28 -21 26 -24 -3 -2 -15 4 -27 15 -21 19 -21
19 -14 -1 6 -17 4 -17 -18 4 l-26 24 0 -28 c0 -36 -9 -27 -37 38 -12 29 -22
43 -23 33 0 -20 0 -20 -14 0 -8 10 -25 20 -38 22 -13 1 -48 5 -78 8 -30 3 -63
13 -72 22 -23 20 -23 4 0 -21 17 -19 16 -20 -7 -7 -16 8 -44 10 -88 5 -60 -6
-65 -5 -70 15 -3 13 -11 19 -19 16 -8 -3 -14 -1 -14 4 0 6 -4 10 -10 10 -14 0
-13 -43 1 -57 8 -8 -4 -15 -44 -27 -56 -16 -84 -37 -72 -56 8 -13 -37 -30 -81
-30 -37 0 -41 -6 -19 -34 8 -11 15 -27 15 -37 0 -9 6 -22 14 -28 11 -10 9 -17
-15 -41 -22 -22 -29 -38 -29 -67 l1 -38 20 38 c25 47 34 48 14 1 -8 -20 -15
-38 -15 -40 0 -4 -57 -34 -66 -35 -4 0 -11 5 -16 13 -7 10 -12 9 -24 -7 -11
-14 -14 -34 -11 -68 2 -27 1 -43 -3 -37 -5 8 -9 7 -14 -5 -10 -27 -7 -52 9
-65 12 -10 13 -16 1 -39 -19 -35 -28 -115 -12 -102 14 12 16 -103 2 -131 -6
-14 -3 -16 16 -14 13 1 30 6 37 10 10 7 11 4 2 -12 -14 -26 -14 -35 -1 -27 5
3 24 -10 41 -29 17 -20 35 -34 39 -31 4 3 29 -5 55 -16 37 -17 50 -18 59 -8 8
9 8 10 0 6 -16 -9 -87 71 -119 132 -32 63 -41 127 -25 175 11 33 15 36 50 36
42 0 92 -23 153 -72 63 -49 75 -29 68 119 -2 28 2 60 8 70 9 16 10 16 11 -7 1
-23 2 -23 10 -5 6 13 9 15 9 5 1 -8 12 7 26 35 30 59 45 76 45 52 0 -9 -7 -20
-15 -24 -8 -5 -17 -24 -20 -43 -3 -19 -2 -28 1 -20 10 22 46 60 58 60 5 0 -2
-12 -16 -28 -26 -28 -46 -68 -28 -57 6 3 10 12 10 20 0 8 8 20 18 27 9 7 26
24 37 37 l20 24 -28 -7 c-43 -10 -23 11 21 24 84 23 162 7 225 -46 48 -41 166
-94 208 -94 32 0 39 -4 47 -27 10 -27 10 -27 12 12 1 22 5 49 9 60 12 28 -4
52 -38 60 -17 3 -58 25 -93 47 -111 72 -174 99 -231 99 -58 0 -131 -14 -183
-36 -19 -8 -32 -10 -29 -5 9 15 -3 12 -36 -7 -16 -10 -31 -24 -34 -33 -3 -8
-38 -49 -78 -90 -40 -41 -82 -90 -92 -107 -19 -32 -46 -42 -72 -25 -14 9 -10
70 8 115 22 56 109 178 133 187 13 5 33 21 45 36 11 15 21 21 21 15 0 -7 8
-11 17 -9 11 2 17 13 18 32 0 19 9 35 28 50 53 39 217 32 322 -14 22 -10 63
-21 90 -24 44 -6 56 -13 101 -59 28 -29 70 -60 93 -69 23 -9 39 -12 36 -7 -6
8 10 13 42 12 6 0 10 5 8 11 -22 73 -5 103 21 40 15 -35 14 -38 -6 -58 -16
-17 -32 -21 -74 -20 -54 2 -88 15 -216 84 -54 29 -90 35 -92 15 0 -14 135 -94
197 -116 47 -16 100 -24 152 -20 36 2 86 52 86 86 l0 29 14 -29 c9 -16 13 -41
10 -59 -5 -32 -64 -136 -77 -136 -4 0 -7 -7 -7 -15 0 -11 4 -12 11 -5 18 18
50 10 124 -31 l73 -40 0 -47 c-1 -67 2 -93 10 -84 3 4 3 40 0 80 -5 63 -4 75
11 83 41 22 65 5 47 -35 -10 -20 -9 -29 2 -43 12 -15 12 -16 -3 -10 -10 3 -18
2 -18 -4 0 -12 46 -59 58 -59 5 0 16 20 24 45 13 38 13 52 2 96 -20 77 -26 82
-111 77 -40 -2 -73 -2 -73 1 0 2 9 19 21 37 18 30 19 37 7 61 -11 23 -11 36
-2 68 7 22 13 72 13 111 1 83 -15 114 -122 233 -37 40 -67 79 -67 86 0 37 67
53 127 30 45 -17 75 -14 106 13 24 21 22 33 -19 80 -29 35 -33 45 -24 62 8 16
8 20 -4 20 -20 0 -31 19 -18 32 7 7 18 5 34 -6 22 -14 133 -56 147 -56 3 0
-10 11 -29 23 -55 34 -100 70 -100 79 0 4 24 -7 53 -26 32 -20 71 -35 102 -39
l50 -6 -53 25 c-35 17 -67 44 -94 78 -52 66 -62 71 -109 57 -36 -11 -41 -10
-80 18 -48 35 -104 49 -130 32 -16 -9 -21 -6 -38 27 -20 36 -20 36 -21 10z
m-174 -185 c-12 -12 168 -81 200 -76 25 4 27 3 11 -7 -22 -14 -40 -18 -85 -19
-18 -1 -31 -4 -29 -8 3 -5 -8 -8 -23 -8 -15 0 -26 3 -24 7 6 10 -34 20 -47 12
-8 -4 -9 -3 -5 4 4 7 2 12 -4 12 -16 0 -60 47 -60 64 0 9 12 16 33 19 17 2 34
5 36 5 2 1 1 -1 -3 -5z m253 -32 c36 14 137 -4 125 -22 -3 -5 -10 -7 -15 -3
-6 3 -17 3 -25 0 -13 -5 -11 -12 11 -39 32 -38 58 -55 49 -33 -3 7 -1 17 5 21
6 3 11 2 11 -3 0 -5 9 -19 20 -32 21 -24 27 -50 11 -50 -21 0 -41 13 -41 26 0
15 -42 29 -62 21 -7 -3 -3 -6 10 -6 12 -1 22 -6 22 -13 0 -6 3 -8 7 -5 5 6 33
-36 33 -49 0 -8 -39 -4 -44 5 -3 5 -25 13 -49 19 -31 8 -47 19 -55 37 -11 24
-42 35 -42 15 0 -5 -7 -10 -15 -10 -28 0 -9 28 20 30 13 0 41 37 39 50 -1 8
-3 18 -3 22 -1 5 -36 3 -36 -2 0 -1 -15 -3 -32 -5 -18 -1 -33 1 -33 5 0 12 45
28 54 20 5 -5 20 -4 35 1z"/>
<path d="M1005 1334 c-103 -54 -187 -133 -225 -209 -45 -93 -23 -112 38 -32
69 91 179 194 228 214 28 12 44 24 44 36 0 24 -27 21 -85 -9z"/>
<path d="M1063 1053 c-22 -15 -34 -41 -13 -28 24 15 7 -17 -31 -56 -38 -39
-41 -46 -36 -84 10 -67 5 -69 -153 -79 -65 -4 -90 -13 -90 -31 0 -21 19 -28
36 -15 12 10 19 7 40 -16 15 -16 47 -51 73 -78 42 -45 41 -55 -2 -18 -29 25
-32 4 -4 -26 33 -34 109 -77 157 -87 30 -7 32 -9 15 -15 -17 -6 -14 -9 16 -15
20 -4 47 -5 60 -2 17 3 12 5 -13 6 -21 0 -38 4 -38 9 0 4 43 3 96 -2 83 -8
121 -6 296 19 216 30 279 28 373 -14 l40 -17 -26 -17 c-23 -15 -30 -16 -66 -3
-88 31 -190 39 -348 27 -82 -7 -179 -13 -215 -15 -36 -2 12 -2 105 1 354 9
432 1 512 -48 66 -41 69 -99 6 -120 -58 -19 -311 -6 -487 25 -82 15 -151 24
-154 21 -3 -3 5 -5 17 -5 12 0 20 -3 18 -7 -3 -5 11 -8 31 -9 21 0 82 -8 137
-18 55 -9 160 -20 233 -23 97 -4 132 -9 132 -19 0 -7 3 -19 6 -28 5 -14 -4
-16 -58 -16 -35 0 -90 7 -122 15 -33 9 -61 13 -64 10 -3 -3 -11 0 -18 6 -16
13 -34 4 -34 -18 0 -11 6 -14 25 -9 14 4 25 3 25 -2 0 -13 174 -45 226 -40 37
3 53 -1 66 -14 17 -17 14 -18 -69 -18 -98 0 -264 22 -333 45 -78 25 -451 117
-456 112 -2 -2 78 -25 178 -50 101 -26 225 -58 277 -72 242 -64 480 -61 607 9
71 40 89 70 89 151 -2 230 -244 342 -666 307 -104 -9 -139 -8 -200 5 -116 24
-159 56 -110 83 15 7 32 4 73 -15 66 -31 89 -31 125 -2 34 28 77 47 104 47 11
0 38 17 62 39 51 46 66 54 140 71 67 15 69 32 6 41 -76 11 -119 -3 -222 -75
-71 -49 -102 -66 -117 -61 -13 4 -35 37 -61 91 -22 47 -47 88 -56 91 -20 8
-78 -13 -125 -44 -24 -16 -44 -23 -55 -19 -16 7 -16 9 4 24 19 16 68 100 61
107 -2 1 -13 -4 -25 -12z m960 -583 c37 -44 60 -122 52 -176 -3 -25 -13 -48
-20 -51 -24 -9 -110 26 -139 56 -24 25 -26 32 -16 51 6 12 9 31 7 42 -4 13 2
22 18 30 13 6 31 26 41 44 10 19 22 34 25 34 4 0 18 -13 32 -30z"/>
<path d="M538 449 c-31 -4 -73 -15 -93 -24 -45 -18 -106 -20 -124 -2 -11 10
-13 9 -9 -3 2 -8 -8 -25 -24 -38 -35 -30 -70 -107 -66 -147 2 -24 8 -30 28
-30 14 0 41 -11 60 -23 19 -12 47 -22 62 -22 17 0 33 -8 40 -20 16 -25 28 -26
28 -2 0 15 8 19 38 20 52 2 71 28 71 98 l0 56 -17 -33 c-9 -18 -28 -39 -42
-48 -25 -15 -25 -15 -7 5 9 11 17 28 17 38 0 16 -1 16 -16 2 -37 -38 -98 -27
-110 18 -11 46 -1 60 61 86 89 36 217 33 389 -9 71 -17 131 -29 133 -27 3 2
-48 16 -111 31 -82 20 -116 32 -116 42 0 18 16 15 205 -37 77 -22 158 -42 180
-45 22 -3 69 -12 105 -20 105 -22 129 -25 135 -15 9 15 -23 26 -130 45 -153
27 -403 93 -357 94 21 1 286 -53 322 -65 10 -3 12 -2 5 5 -10 10 -149 42 -295
66 -91 16 -269 18 -362 4z"/>
</g>
</svg>
