<?xml version="1.0" standalone="no"?>
<!DOCTYPE svg PUBLIC "-//W3C//DTD SVG 20010904//EN"
 "http://www.w3.org/TR/2001/REC-SVG-20010904/DTD/svg10.dtd">
<svg version="1.0" xmlns="http://www.w3.org/2000/svg"
 width="225.000000pt" height="225.000000pt" viewBox="0 0 225.000000 225.000000"
 preserveAspectRatio="xMidYMid meet">
<metadata>
Created by potrace 1.15, written by Peter Selinger 2001-2017
</metadata>
<g transform="translate(0.000000,225.000000) scale(0.100000,-0.100000)"
fill="#000000" stroke="none">
<path d="M1015 2115 c-36 -30 -65 -35 -44 -7 13 15 12 16 -4 3 -9 -8 -20 -11
-24 -7 -3 3 -12 -3 -20 -14 -20 -28 -50 -43 -50 -25 0 8 4 12 8 10 3 -3 13 3
20 13 13 15 12 16 -3 3 -15 -11 -18 -11 -19 0 0 8 -6 3 -12 -11 -12 -26 -26
-40 -41 -40 -5 0 -1 10 10 21 19 22 19 22 -4 10 -22 -12 -23 -11 -18 11 l6 23
-11 -22 c-7 -13 -16 -23 -21 -23 -5 0 -6 6 -3 13 4 6 -1 3 -9 -8 -9 -11 -23
-25 -32 -31 -13 -10 -13 -12 1 -18 9 -3 13 -2 10 4 -3 5 4 8 15 7 11 -1 22 -9
26 -19 3 -10 11 -15 19 -11 8 3 12 9 9 14 -3 5 -10 6 -16 3 -7 -4 -8 -2 -4 4
7 13 47 1 70 -20 11 -10 9 -16 -11 -31 -13 -10 -30 -16 -38 -13 -8 3 -17 1
-20 -5 -4 -5 -10 -7 -15 -4 -5 3 -20 0 -32 -6 -20 -10 -22 -10 -13 2 6 8 1 5
-10 -8 -25 -28 -39 -30 -32 -4 3 13 0 18 -8 15 -7 -3 -20 2 -29 11 -18 18 -17
19 -20 -57 0 -28 3 -43 8 -38 6 6 15 3 23 -8 8 -9 11 -11 7 -3 -4 9 -2 12 7 9
8 -3 13 -13 13 -22 -1 -9 4 -16 12 -16 8 0 14 7 14 15 0 8 -5 15 -11 15 -5 0
-7 5 -4 10 3 6 1 10 -6 10 -7 0 -9 3 -6 6 4 4 12 2 19 -3 21 -17 71 -26 62
-12 -4 8 -3 9 4 5 7 -4 13 -2 13 3 1 6 2 16 3 21 0 6 8 15 16 20 13 9 13 11 0
20 -12 7 -10 9 8 7 26 -2 28 -10 6 -31 -20 -20 -11 -20 27 -1 17 9 27 21 23
27 -4 7 -3 8 4 4 8 -5 12 2 12 20 0 23 2 25 16 13 9 -7 37 -14 62 -15 58 -1
57 -1 43 -17 -6 -8 -8 -17 -4 -20 12 -13 -12 -6 -30 8 -11 7 -26 11 -35 8 -15
-4 -15 -3 -2 6 9 7 10 11 3 11 -21 0 -24 -18 -6 -30 15 -9 13 -10 -12 -7 -16
2 -24 2 -17 0 7 -3 10 -9 7 -14 -9 -14 9 -11 31 6 25 19 40 19 24 0 -10 -12
-8 -13 10 -10 27 5 52 24 45 35 -3 4 7 8 20 8 29 0 58 20 49 34 -4 6 3 8 17 3
16 -4 20 -3 11 3 -11 7 -10 10 3 16 26 10 42 7 25 -5 -12 -8 -11 -9 5 -5 59
15 80 17 65 7 -8 -6 -10 -11 -4 -11 6 0 14 3 18 7 10 11 36 12 36 2 0 -5 -8
-9 -17 -9 -15 0 -15 -2 -4 -9 8 -5 11 -16 7 -26 -3 -10 -1 -24 6 -32 9 -11 9
-17 -3 -25 -11 -8 -11 -9 3 -5 21 7 31 -3 17 -19 -7 -8 -7 -14 1 -19 15 -9 12
-25 -6 -25 -8 0 -13 4 -10 8 2 4 -7 8 -22 9 -15 1 -21 -1 -14 -4 17 -7 15 -23
-3 -23 -9 0 -12 -6 -8 -16 4 -12 0 -15 -17 -12 -30 4 -35 19 -12 43 27 30 52
68 52 80 -1 5 -7 -2 -15 -16 -8 -15 -37 -41 -64 -58 -53 -34 -58 -58 -19 -85
18 -13 18 -14 -3 -19 -25 -7 -39 -1 -39 15 0 6 5 7 13 2 7 -5 1 1 -13 13 -16
15 -20 23 -11 23 8 0 12 3 8 6 -3 3 -13 2 -22 -4 -16 -8 -16 -10 -1 -15 20 -8
21 -23 1 -31 -10 -4 -19 2 -25 17 -5 12 -9 16 -9 9 -1 -7 -5 -11 -10 -8 -16
10 -40 -5 -34 -21 4 -11 8 -11 13 -3 5 7 16 9 29 5 25 -8 19 -25 -9 -25 -10 0
-22 -5 -26 -12 -4 -6 -3 -8 4 -4 6 3 14 1 17 -5 5 -7 -1 -9 -16 -7 -16 2 -24
9 -23 21 1 9 -2 17 -7 17 -22 0 -3 -50 20 -51 9 0 -3 -9 -25 -19 -23 -10 -45
-23 -48 -29 -9 -14 -26 -14 -26 -1 0 6 6 10 14 10 8 0 17 7 20 16 3 8 9 13 14
10 4 -2 8 4 8 15 0 10 -4 19 -8 19 -4 0 -8 -7 -8 -15 0 -19 -34 -20 -49 -1
-10 12 -8 17 8 25 14 8 21 8 24 -2 4 -7 6 -6 6 4 1 9 13 20 27 23 15 4 24 10
20 13 -8 8 -156 -66 -156 -78 0 -6 -4 -8 -9 -5 -11 7 -27 -14 -27 -33 1 -8 7
-15 14 -17 7 -1 8 0 2 3 -5 2 -7 9 -4 15 7 10 54 -29 54 -45 0 -5 -10 -7 -23
-4 -12 4 -29 2 -37 -4 -13 -9 -13 -10 0 -8 32 3 51 -1 45 -11 -3 -6 -17 -8
-31 -6 -14 3 -22 1 -19 -5 4 -5 -1 -12 -9 -15 -14 -5 -14 -9 1 -28 13 -17 20
-20 29 -12 15 14 8 27 -11 19 -8 -3 -15 0 -15 6 0 6 7 11 15 11 25 0 29 1 43
12 6 6 12 7 12 3 0 -4 -8 -14 -17 -22 -17 -14 -17 -14 0 -9 11 4 17 2 15 -5
-2 -6 -8 -11 -13 -11 -6 -1 -15 -8 -21 -15 -12 -18 -60 -13 -56 5 2 13 -13 13
-105 -4 -38 -7 -56 -48 -48 -110 3 -23 1 -31 -3 -21 -4 10 -12 18 -17 17 -5
-1 -11 4 -13 12 -3 10 -2 10 6 -1 7 -9 12 -10 16 -2 4 6 3 11 -3 11 -6 0 -7 7
-4 17 4 10 2 14 -4 10 -6 -4 -14 0 -17 9 -5 13 -9 14 -21 4 -8 -7 -15 -8 -15
-2 0 17 27 35 32 21 2 -7 13 -13 24 -15 14 -2 12 2 -11 19 -32 23 -40 24 -40
5 0 -7 -4 -13 -10 -13 -16 0 -35 -15 -35 -28 0 -7 5 -4 11 5 9 16 11 16 30 -3
11 -11 25 -17 31 -13 8 5 9 1 4 -11 -4 -11 0 -25 10 -36 15 -17 16 -19 1 -19
-9 0 -21 8 -26 18 -10 16 -10 16 -11 -1 0 -9 11 -22 25 -29 13 -6 22 -15 19
-19 -3 -5 2 -6 10 -3 9 4 16 1 16 -6 0 -8 -9 -11 -26 -7 -18 3 -24 1 -20 -9 3
-8 1 -14 -5 -14 -5 0 -22 -12 -37 -26 l-27 -26 25 13 c53 26 60 29 75 29 8 0
15 5 15 12 0 7 7 5 18 -4 18 -17 93 -41 101 -33 2 3 10 0 18 -7 10 -8 17 -8
25 0 19 19 30 14 23 -9 -5 -15 -4 -19 4 -15 6 4 11 3 11 -2 0 -6 -11 -13 -25
-16 -14 -4 -25 -13 -25 -22 0 -9 -5 -12 -12 -8 -10 6 -10 5 -1 -8 7 -8 9 -19
5 -23 -4 -5 -2 -5 5 -1 7 4 13 -3 16 -16 4 -19 5 -18 4 4 -2 30 28 68 55 68
22 0 23 -11 3 -53 -14 -28 -14 -29 -1 -13 8 10 17 24 20 30 3 7 11 3 21 -9 15
-19 15 -49 -1 -103 -3 -9 2 -4 12 12 12 21 15 41 10 74 -5 39 -4 43 9 32 13
-11 14 -10 9 6 -6 15 -4 17 6 7 11 -10 11 -17 1 -37 -7 -13 -11 -30 -8 -38 4
-9 6 -7 6 5 1 23 13 22 29 -3 9 -15 22 -20 50 -19 l37 1 -31 7 c-17 4 -36 11
-42 15 -17 10 -15 53 3 60 12 4 14 0 9 -19 -4 -16 -2 -25 6 -25 6 0 8 5 5 10
-4 6 -1 17 5 26 16 18 34 5 57 -40 9 -17 18 -26 20 -20 3 8 18 10 42 7 39 -5
81 11 130 48 13 10 27 16 32 13 5 -3 9 0 9 5 0 16 -4 14 -65 -20 -62 -35 -112
-40 -150 -15 -31 21 -33 46 -2 46 12 0 39 9 60 20 20 11 52 21 69 21 24 1 27
3 11 6 -24 5 -30 18 -14 27 5 4 11 0 14 -6 3 -10 10 -8 26 6 16 15 21 16 21 5
0 -8 -6 -21 -12 -28 -11 -11 -9 -11 9 0 11 7 19 18 16 26 -11 28 98 41 131 14
16 -13 87 -31 81 -20 -4 5 -1 9 6 9 7 0 9 -10 7 -25 -3 -16 -1 -25 7 -25 8 0
10 9 7 25 -3 21 -1 24 13 19 11 -5 13 -9 5 -14 -6 -3 -8 -14 -4 -23 3 -10 1
-23 -5 -31 -9 -11 -6 -12 16 -8 19 3 25 1 18 -5 -5 -6 -30 -13 -53 -17 -40 -6
-43 -5 -28 9 22 22 20 28 -4 13 -21 -14 -23 -19 -20 -56 1 -13 -4 -30 -11 -38
-15 -18 -10 -23 27 -26 34 -3 68 -28 37 -28 -11 0 -24 5 -31 12 -9 9 -15 9
-24 -1 -11 -11 -10 -12 2 -6 11 6 12 5 5 -3 -8 -8 -21 -9 -43 -3 -25 8 -32 7
-32 -4 0 -11 -6 -12 -26 -5 -31 12 -37 12 -30 1 4 -5 -3 -7 -14 -4 -11 3 -20
0 -20 -6 0 -6 -13 -11 -30 -11 -32 0 -40 14 -15 24 8 3 15 11 15 17 0 8 -4 8
-15 -1 -22 -18 -36 -4 -25 26 14 35 12 42 -5 20 -8 -11 -15 -30 -15 -43 0 -29
-21 -30 -100 -3 -55 19 -63 19 -90 5 -16 -8 -32 -20 -35 -26 -4 -6 7 -4 23 5
38 19 54 20 29 2 -15 -12 -11 -13 30 -9 l48 4 -32 -15 c-35 -16 -156 -13 -231
6 -53 13 -66 4 -18 -12 20 -6 36 -16 36 -21 0 -10 -66 -15 -139 -10 -24 1 -57
-3 -73 -10 -36 -15 -30 -23 7 -9 19 7 32 7 38 1 7 -7 1 -14 -17 -21 -16 -6
-33 -24 -41 -45 -20 -47 -18 -58 3 -15 13 26 28 38 67 52 58 21 65 22 65 8 0
-6 -14 -19 -31 -28 -17 -9 -39 -24 -48 -32 -9 -8 -12 -12 -7 -8 6 5 16 8 23 8
9 0 6 -15 -13 -51 -23 -46 -25 -58 -19 -123 6 -63 5 -74 -15 -98 -24 -31 -21
-37 5 -11 14 14 18 14 26 2 7 -12 9 -12 9 1 0 10 11 3 31 -18 43 -46 100 -72
173 -79 62 -6 179 6 143 15 -14 3 -18 10 -14 28 2 13 -1 25 -6 27 -7 2 -7 6 1
11 8 5 14 -3 18 -23 4 -17 10 -28 15 -25 5 3 5 12 0 22 -7 13 -3 21 14 34 22
17 23 17 18 -2 -3 -12 0 -20 6 -20 7 0 9 4 6 10 -3 6 1 7 10 4 17 -7 14 -30
-4 -27 -6 2 -11 -4 -11 -13 0 -11 5 -14 16 -10 9 3 20 6 25 6 5 0 6 12 3 26
-5 19 -4 25 5 20 6 -4 11 -14 11 -22 0 -8 4 -13 9 -10 12 8 79 -68 86 -97 4
-14 1 -44 -6 -68 -7 -24 -12 -55 -11 -69 1 -23 1 -23 -8 -5 l-9 20 -1 -20 c-1
-19 -1 -19 -11 -2 -6 10 -8 26 -4 35 5 14 4 15 -6 4 -18 -17 -31 -15 -27 5 4
22 40 24 50 3 4 -8 6 0 3 19 -2 19 -14 44 -26 55 l-22 21 22 -29 c24 -33 20
-47 -7 -23 -10 10 -22 14 -27 10 -4 -5 -5 -3 -1 4 4 7 -2 17 -15 23 -15 8 -19
9 -15 1 9 -15 2 -14 -42 4 -36 16 -168 15 -193 -1 -6 -4 -30 -8 -53 -10 l-41
-2 28 14 c15 8 32 12 37 9 6 -3 10 1 10 11 0 14 -8 15 -64 9 -62 -6 -68 -5
-138 32 -40 22 -86 47 -103 58 -24 15 -22 12 10 -19 l40 -37 -45 27 c-25 15
-54 34 -65 43 -20 16 -20 16 -1 -6 23 -27 16 -29 -22 -7 -21 13 -19 10 8 -15
41 -36 35 -39 -23 -11 l-42 20 29 -22 c47 -37 72 -60 57 -52 -8 4 -33 11 -55
15 l-41 7 27 -21 c15 -12 37 -30 50 -39 l23 -18 -30 10 c-29 10 -30 10 -9 -7
11 -10 31 -26 45 -36 24 -17 24 -17 0 -6 -16 7 -26 8 -33 1 -7 -7 -19 -7 -35
-1 -41 15 -15 -11 31 -31 l41 -19 -60 -2 -60 -1 65 -13 65 -13 -45 -2 c-37 -3
-40 -4 -15 -8 l30 -4 -40 -13 c-37 -11 -35 -12 45 -8 58 2 79 0 65 -6 -19 -9
-18 -10 5 -11 22 0 20 -3 -15 -20 -22 -11 -31 -18 -20 -15 10 3 40 8 65 11
l45 4 -55 -15 c-81 -23 -82 -26 -10 -21 l65 4 -42 -19 c-24 -10 -43 -20 -43
-23 0 -2 19 1 43 8 23 6 69 9 102 6 52 -4 56 -6 31 -13 -15 -4 -26 -10 -23
-14 3 -3 19 1 34 9 16 8 47 13 68 12 32 -2 28 0 -20 11 l-60 14 60 -5 c33 -3
67 -9 75 -13 8 -4 29 -5 45 -1 29 6 29 6 -13 14 -29 5 -42 12 -38 21 2 7 -1
12 -7 12 -7 0 -32 1 -57 3 -42 2 -43 3 -15 10 28 7 27 8 -15 10 l-45 3 35 7
35 7 -35 2 -35 2 30 13 c28 12 29 13 10 24 -13 7 -15 11 -6 12 8 0 22 -7 32
-16 14 -12 25 -14 46 -7 33 11 82 8 95 -5 6 -6 -4 -12 -26 -16 -61 -12 -56
-29 8 -24 31 3 56 1 56 -4 0 -4 -10 -8 -22 -9 -23 0 -23 0 1 -10 16 -6 35 -6
58 2 50 16 54 2 6 -18 -23 -10 -46 -26 -52 -36 -11 -17 -10 -17 18 -2 17 8 36
15 43 15 7 0 24 9 38 20 43 33 45 22 4 -16 -21 -20 -31 -31 -21 -24 9 7 17 10
17 6 0 -4 11 1 25 10 13 8 31 14 40 12 15 -3 14 -7 -6 -33 l-23 -30 32 29 c17
16 30 32 29 36 -2 8 50 60 60 60 3 0 3 -7 -1 -15 -8 -23 12 -18 24 6 7 11 14
18 17 16 11 -11 -19 -46 -59 -70 -24 -14 -54 -38 -68 -54 l-25 -28 25 21 c69
57 112 70 86 27 -12 -20 -7 -17 18 11 19 21 41 57 49 79 7 22 19 43 25 45 8 2
10 -3 5 -15 -4 -10 7 -2 24 17 l31 35 -5 -30 -5 -30 21 30 c11 17 21 35 21 42
0 6 4 14 9 17 5 4 7 -4 5 -16 -2 -13 4 -6 14 14 9 21 21 38 26 38 15 0 -5 -74
-36 -130 l-30 -55 27 25 28 25 -6 -24 c-4 -17 -3 -21 5 -13 12 12 29 99 29
145 0 15 5 25 10 22 15 -10 10 7 -8 27 -9 10 -13 21 -9 26 12 11 35 -28 53
-87 15 -52 14 -120 -2 -191 -4 -21 -3 -21 9 5 25 52 29 119 11 181 -9 31 -13
59 -10 63 4 3 18 -7 31 -22 25 -30 31 -28 14 3 -6 11 -30 33 -55 50 -45 31
-45 31 -30 60 9 18 11 31 5 35 -14 9 -12 55 3 55 6 0 1 6 -13 13 -14 8 -24 18
-23 24 1 6 -12 17 -30 24 -18 7 -39 18 -48 26 -22 18 -82 36 -73 21 5 -8 -1
-9 -17 -4 -58 17 -65 18 -40 3 20 -12 21 -15 7 -20 -10 -4 -15 -3 -11 3 3 6
-3 10 -14 10 -10 0 -21 6 -24 13 -4 9 -7 9 -17 0 -11 -10 -10 -14 3 -19 9 -3
14 -10 11 -16 -3 -5 -13 0 -21 11 -11 17 -18 19 -33 11 -23 -12 -33 -13 -26
-1 7 12 -34 2 -52 -12 -19 -15 -32 9 -32 59 0 45 28 92 48 80 20 -12 13 -51
-13 -76 -14 -13 -25 -31 -25 -39 1 -13 3 -12 12 3 6 11 23 29 37 42 23 20 24
24 13 49 -16 35 -8 59 23 73 32 15 40 0 13 -24 -19 -17 -21 -17 -15 -1 9 24 0
21 -14 -4 -8 -15 -8 -19 0 -15 7 5 11 -2 11 -18 0 -14 5 -28 11 -31 6 -4 9 -1
8 6 -5 23 12 59 27 59 8 0 14 -7 14 -16 0 -10 -5 -14 -15 -10 -12 4 -13 2 -5
-13 5 -11 15 -21 22 -24 9 -3 5 -13 -12 -32 l-25 -28 34 18 c25 12 47 16 78
11 47 -6 82 4 122 35 l26 21 -37 -6 c-30 -5 -39 -2 -47 13 -8 14 -7 22 6 32
14 13 16 11 11 -13 -3 -15 -1 -25 3 -22 5 3 9 12 9 20 0 8 5 14 10 14 6 0 10
-5 10 -11 0 -5 4 -8 9 -4 6 3 8 14 6 25 -2 11 0 22 6 25 5 4 9 2 9 -4 0 -6 7
-8 15 -5 9 4 15 0 15 -7 0 -11 3 -11 10 1 8 13 11 13 19 1 5 -7 14 -10 21 -6
8 5 10 -3 6 -30 -4 -21 -9 -42 -13 -49 -14 -21 -11 -83 3 -83 8 0 14 4 14 9 0
4 -4 8 -9 8 -13 0 -8 22 10 51 23 36 29 58 19 64 -6 4 -10 11 -10 17 0 7 5 6
14 -1 23 -19 38 17 20 49 -17 32 -17 40 1 40 10 0 15 -10 15 -26 0 -22 2 -24
15 -14 12 10 12 15 -2 36 -14 22 -14 24 1 24 9 0 16 -4 16 -9 0 -5 7 -8 15 -7
18 3 55 36 55 50 0 6 -5 4 -10 -4 -8 -13 -10 -13 -10 2 0 9 -3 23 -6 32 -4 12
0 16 16 16 17 0 21 -4 15 -17 -5 -15 -4 -16 7 -5 10 10 10 16 -1 34 -10 15
-10 22 -1 28 7 5 9 20 4 45 -4 22 -10 32 -14 25 -5 -8 -9 -5 -13 9 -3 11 -2
20 2 19 31 -4 32 5 3 31 -32 30 -46 55 -17 31 9 -7 18 -11 20 -8 7 6 -37 54
-56 60 -8 3 -11 8 -7 12 3 4 17 2 30 -5 23 -12 23 -12 4 10 -11 11 -26 21 -35
21 -9 1 -29 7 -46 15 l-30 15 35 -5 c25 -3 18 1 -24 15 -33 11 -67 18 -77 15
-9 -3 -20 -1 -24 5 -3 6 3 10 14 10 12 0 21 4 21 8 0 5 -24 5 -52 1 -65 -8
-72 -4 -27 15 41 18 14 21 -41 5 -39 -12 -90 -6 -90 10 0 13 88 41 128 41 22
0 45 -9 64 -25 16 -14 35 -25 41 -24 7 0 2 7 -10 16 -51 35 -14 44 54 14 31
-15 53 -37 90 -91 40 -60 57 -76 101 -95 66 -30 68 -23 2 10 -47 24 -70 49
-70 76 0 7 9 9 23 6 21 -6 21 -6 3 8 -11 8 -27 15 -36 15 -8 0 -21 10 -29 23
-13 21 -13 21 5 5 29 -25 69 -31 124 -18 59 14 79 4 81 -39 2 -23 2 -23 6 -4
7 36 -14 63 -49 63 l-31 0 19 22 19 22 -32 -23 c-70 -48 -106 -39 -166 41 -39
52 -89 67 -154 44 -26 -10 -65 -22 -87 -27 -21 -5 -68 -25 -105 -44 -80 -42
-95 -44 -85 -12 9 30 5 27 68 34 73 8 80 18 11 18 -52 -1 -52 -1 -30 17 15 11
40 18 68 18 25 0 48 3 51 8 2 4 -14 6 -37 4 -54 -5 -38 13 19 23 31 5 44 2 54
-9 7 -10 27 -15 49 -15 34 2 34 2 6 6 -42 6 -53 20 -12 15 24 -3 37 2 48 15
13 17 13 17 -4 4 -14 -11 -25 -12 -58 -2 -23 7 -58 10 -80 6 -34 -6 -38 -4
-33 10 4 9 23 27 43 40 43 30 30 33 -17 5 -18 -11 -41 -35 -52 -53 -10 -17
-40 -49 -65 -70 -25 -21 -45 -46 -45 -56 0 -18 -29 -63 -30 -45 0 5 5 15 12
22 8 8 8 12 1 12 -6 0 -16 -6 -22 -14 -14 -17 -49 -27 -56 -16 -3 5 2 16 11
24 24 24 3 19 -23 -6 -13 -12 -25 -19 -29 -16 -7 7 47 58 61 58 6 0 16 -5 23
-12 8 -8 12 -9 12 -1 0 6 -6 13 -12 16 -21 7 32 47 62 47 15 0 33 7 40 15 15
17 7 19 -21 5 -10 -6 -19 -8 -19 -4 0 11 45 43 61 44 9 0 23 8 30 18 13 15 12
16 -3 4 -9 -8 -22 -11 -28 -7 -8 5 2 21 27 47 29 31 32 37 12 24 -15 -9 -45
-38 -67 -65 -44 -52 -162 -138 -162 -118 0 7 -10 0 -23 -15 -24 -28 -81 -46
-92 -29 -3 6 1 11 9 11 9 0 16 5 16 11 0 5 -4 7 -10 4 -5 -3 -10 -2 -10 4 0
14 31 29 76 37 23 3 55 20 77 39 26 23 32 32 18 28 -11 -3 -27 -14 -37 -24
-21 -24 -34 -24 -35 -1 0 14 -2 13 -9 -4 -5 -13 -20 -24 -37 -26 -15 -3 -36
-9 -46 -13 -28 -12 -11 17 27 45 19 14 32 29 28 34 -3 5 0 6 5 3 15 -9 114 33
107 45 -4 6 -10 6 -17 -1 -14 -14 -37 -14 -37 -1 0 6 9 10 19 10 11 0 23 5 26
10 9 15 25 12 25 -5 0 -8 2 -15 4 -15 12 0 156 70 156 76 0 3 -7 3 -16 0 -9
-3 -12 -2 -9 5 4 5 14 7 24 4 11 -3 33 8 59 31 33 28 41 41 37 58 -5 15 -4 17
3 7 11 -15 24 -1 19 21 -2 7 -2 10 0 5 9 -15 23 5 23 34 0 16 3 28 8 28 18 -3
26 2 14 10 -7 4 -15 23 -17 42 -3 19 -1 30 3 24 4 -5 16 -17 26 -25 18 -14 19
-14 8 7 -7 12 -17 25 -23 28 -6 4 -7 11 0 18 7 9 -4 12 -42 12 -34 0 -51 -4
-50 -12 1 -6 -4 -14 -12 -17 -8 -3 -13 0 -11 7 1 7 1 9 -1 4 -3 -4 -10 -4 -15
-1 -7 4 -8 2 -4 -4 4 -7 1 -12 -8 -12 -26 0 -7 27 27 38 27 10 16 11 -63 8
-54 -2 -86 0 -75 5 29 11 154 11 194 -1 42 -12 55 -5 17 9 -37 15 -33 34 6 29
28 -4 29 -4 13 8 -10 7 -22 11 -27 8 -5 -3 -23 -2 -40 1 l-32 7 24 13 c22 12
20 13 -25 8 -39 -3 -47 -2 -35 7 11 8 0 10 -50 6 l-65 -5 25 19 25 19 -40 -14
c-48 -17 -89 -19 -80 -5 4 6 -8 2 -27 -10 -41 -25 -61 -26 -30 -1 12 11 22 22
22 25 0 12 -15 5 -45 -19z m76 -1247 l0 -23 9 22 c6 15 15 20 29 16 12 -3 21
-10 21 -15 0 -5 -4 -6 -10 -3 -5 3 -10 2 -10 -3 0 -5 -16 -17 -35 -27 -19 -11
-32 -21 -30 -24 3 -2 -3 -13 -12 -24 -14 -15 -18 -35 -17 -88 1 -45 -2 -66 -9
-62 -6 4 -8 0 -4 -10 3 -10 2 -17 -3 -17 -6 0 -10 5 -10 12 0 13 -14 2 -16
-13 -1 -5 -2 -12 -3 -15 0 -4 -8 -1 -16 6 -8 7 -13 16 -10 20 4 7 -13 7 -32 1
-9 -3 -17 6 -15 14 2 5 0 7 -3 3 -4 -4 -16 3 -26 15 l-18 22 -1 -27 c0 -16 -4
-28 -8 -28 -20 0 -20 14 -2 40 24 34 25 40 3 41 -10 0 -13 3 -6 5 8 4 4 19
-13 51 -27 52 -28 53 -14 53 10 0 45 -60 42 -72 -4 -14 4 -9 29 19 13 14 17
23 9 18 -9 -5 -12 -4 -7 1 5 5 14 9 20 10 7 0 20 2 30 2 14 2 16 8 12 33 -3
17 0 37 6 45 14 17 42 18 36 2 -2 -7 -8 -12 -13 -11 -5 1 -8 -13 -8 -30 1 -18
-3 -40 -8 -49 -5 -11 -5 -18 0 -18 6 0 12 9 15 20 3 14 14 20 34 21 23 1 24 2
6 6 -27 5 -29 20 -7 51 20 28 32 28 29 0 -1 -13 0 -15 2 -5 2 9 9 17 14 17 6
0 7 5 4 10 -3 6 -1 10 4 10 6 0 11 -10 12 -22z m221 -384 c23 -19 48 -41 53
-49 9 -11 14 -10 30 1 17 12 17 14 2 15 -37 3 -40 4 -45 18 -6 19 38 5 59 -19
9 -11 19 -17 22 -14 3 3 11 -4 17 -17 11 -20 10 -21 -9 -16 -21 5 -39 -23 -26
-43 4 -7 -2 -7 -19 0 -17 6 -27 6 -32 -2 -4 -7 -3 -8 4 -4 7 4 12 2 12 -4 0
-6 5 -8 10 -5 6 3 10 2 10 -3 0 -17 -13 -21 -33 -10 -17 9 -19 8 -14 -6 5 -13
3 -15 -12 -7 -10 6 -22 7 -27 3 -5 -4 -6 -3 -2 2 4 5 3 17 -2 26 -7 13 -6 20
5 23 10 4 12 1 8 -10 -4 -11 -2 -14 5 -9 7 4 12 14 12 22 0 8 9 14 19 14 11 0
22 4 25 9 4 5 -4 7 -16 3 -16 -4 -19 -2 -13 9 5 8 -4 3 -19 -11 -23 -21 -29
-22 -36 -10 -5 8 -10 19 -10 24 0 4 -16 30 -36 57 l-36 49 25 0 c14 0 44 -16
69 -36z"/>
</g>
</svg>
