<?xml version="1.0" standalone="no"?>
<!DOCTYPE svg PUBLIC "-//W3C//DTD SVG 20010904//EN"
 "http://www.w3.org/TR/2001/REC-SVG-20010904/DTD/svg10.dtd">
<svg version="1.0" xmlns="http://www.w3.org/2000/svg"
 width="225.000000pt" height="225.000000pt" viewBox="0 0 225.000000 225.000000"
 preserveAspectRatio="xMidYMid meet">
<metadata>
Created by potrace 1.15, written by Peter Selinger 2001-2017
</metadata>
<g transform="translate(0.000000,225.000000) scale(0.100000,-0.100000)"
fill="#000000" stroke="none">
<path d="M1441 1836 c-7 -8 -9 -21 -5 -27 4 -7 3 -9 -4 -5 -6 3 -26 -12 -45
-35 l-36 -41 -3 38 c-3 36 -5 33 -23 -39 -16 -67 -21 -76 -31 -62 -7 9 -15 33
-19 54 -3 20 -11 43 -16 51 -16 23 -1 -69 17 -104 21 -44 9 -44 -33 0 -41 44
-31 20 16 -40 17 -21 31 -45 31 -52 0 -7 9 -18 20 -24 14 -7 20 -7 20 0 0 5
-4 10 -10 10 -5 0 -10 4 -10 9 0 6 9 9 20 8 11 -1 20 -7 20 -13 0 -24 -12 -43
-25 -38 -19 8 -29 -28 -10 -38 8 -5 15 -18 15 -29 0 -18 4 -17 33 13 19 18 32
35 31 37 -7 9 36 41 83 61 28 12 60 31 70 43 l18 21 -27 -17 c-30 -19 -42 -22
-34 -8 3 4 -6 13 -20 20 -14 6 -23 7 -19 2 3 -5 1 -12 -4 -15 -5 -4 -12 -2
-16 4 -3 6 10 29 29 52 43 49 48 72 9 37 -16 -14 -37 -32 -47 -40 -18 -13 -19
-13 -7 9 7 12 17 20 23 16 7 -4 8 -3 4 5 -4 6 3 26 15 44 20 28 21 30 4 17
-11 -8 -30 -23 -42 -34 -13 -11 -23 -14 -23 -8 0 6 4 14 10 17 10 6 43 106 36
112 -2 2 -9 -3 -15 -11z"/>
<path d="M1061 1729 c-60 -65 -76 -79 -88 -79 -8 0 -12 -4 -9 -9 10 -15 -46
-29 -74 -19 -14 5 -49 6 -80 2 -53 -7 -54 -8 -20 -14 45 -8 22 -16 -70 -25
-67 -7 -170 -32 -170 -42 0 -3 18 -3 40 0 43 6 55 -7 16 -17 -38 -9 -193 -83
-200 -95 -5 -8 0 -8 16 -2 13 5 58 14 101 21 86 14 107 7 107 -36 0 -31 -64
-78 -195 -143 -55 -27 -113 -64 -130 -82 -26 -28 -27 -30 -7 -19 55 28 131 49
135 37 3 -8 9 -7 18 3 8 9 23 22 34 30 11 8 -5 -12 -35 -44 -30 -32 -68 -64
-85 -72 -16 -8 -22 -9 -11 -2 69 47 106 97 45 61 -58 -34 -139 -130 -174 -205
-31 -70 -73 -224 -62 -234 2 -3 19 20 36 50 44 78 144 191 196 221 86 51 103
13 41 -90 -40 -68 -88 -190 -84 -213 2 -9 20 13 42 50 49 85 133 188 151 188
18 0 18 -8 0 -40 -8 -14 -14 -41 -14 -60 -1 -34 0 -33 34 30 38 70 108 145
129 137 8 -3 21 15 36 51 29 70 89 160 112 168 29 9 41 -6 35 -43 l-6 -35 26
26 c46 46 89 25 81 -39 -3 -23 -1 -32 6 -25 21 21 66 11 84 -17 11 -19 27 -29
45 -30 25 -2 27 1 20 20 -4 12 -8 35 -8 50 -1 15 -8 33 -15 40 -10 10 -12 8
-6 -7 5 -16 4 -17 -9 -6 -17 14 -21 35 -5 25 14 -8 13 12 -2 38 -7 12 -13 29
-14 37 0 8 -7 31 -15 50 -7 19 -12 38 -11 42 1 4 -5 36 -13 70 -8 35 -15 80
-15 100 0 36 24 113 41 132 12 13 39 -13 39 -37 0 -13 3 -18 10 -11 10 10 -10
134 -22 134 -5 0 -17 -9 -27 -21z"/>
<path d="M1608 1669 c-20 -11 -25 -92 -8 -119 8 -12 10 -9 10 13 0 39 17 67
40 67 41 0 46 -113 9 -196 -15 -32 -31 -72 -35 -88 -6 -19 -20 -32 -44 -41
-19 -7 -57 -22 -85 -33 -55 -22 -95 -16 -95 15 0 10 25 58 54 108 49 80 82
166 69 179 -3 2 -26 -8 -51 -23 -32 -18 -54 -40 -69 -69 -16 -32 -23 -39 -26
-25 -4 14 -5 13 -6 -5 -1 -15 -38 -59 -110 -130 -101 -99 -110 -111 -116 -154
-12 -83 31 -154 82 -133 10 4 36 8 58 10 22 2 53 8 68 14 27 10 27 11 12 40
-8 17 -15 45 -14 63 0 30 1 29 13 -15 7 -26 20 -55 29 -65 21 -23 21 -28 0
-28 -65 -3 -152 -31 -192 -64 -25 -19 -41 -29 -37 -21 7 10 2 12 -25 6 -40 -8
-42 -10 -59 -52 -11 -29 -10 -36 6 -60 l18 -28 13 33 c7 17 20 32 28 32 9 0
27 7 40 16 25 16 25 16 25 -16 0 -17 -5 -41 -11 -53 -8 -17 -5 -16 15 6 20 21
26 39 26 72 0 24 6 47 13 52 6 4 48 8 92 8 83 0 143 22 132 48 -19 46 -20 52
-3 29 12 -15 24 -20 40 -16 15 3 28 -2 41 -16 17 -19 19 -19 37 -4 10 10 18
26 18 36 0 11 18 38 40 61 49 50 70 111 77 230 3 48 9 90 13 92 4 3 11 -19 14
-48 7 -56 -2 -115 -29 -182 l-16 -40 20 25 c11 14 21 32 22 40 0 10 2 11 5 3
3 -7 -6 -29 -20 -50 -27 -40 -33 -59 -15 -47 6 3 3 -5 -6 -20 -23 -34 -24 -33
-15 9 10 45 5 44 -20 -4 -21 -42 -44 -65 -34 -34 5 15 4 15 -4 3 -6 -8 -8 -18
-6 -22 3 -5 -9 -27 -27 -50 -29 -36 -30 -39 -9 -28 13 7 46 33 73 59 37 34 47
39 37 21 -22 -43 -117 -174 -144 -199 -14 -13 -23 -27 -20 -32 2 -4 -19 -31
-48 -59 -29 -29 -43 -47 -32 -41 12 6 47 35 78 66 31 30 60 55 64 55 9 0 -32
-41 -97 -95 -30 -25 -60 -44 -67 -41 -7 3 -18 -3 -26 -12 -12 -16 -11 -16 7
-2 20 15 20 14 1 -8 -20 -23 -32 -30 -21 -12 10 15 -1 12 -63 -19 -31 -16 -73
-32 -92 -36 -27 -6 -31 -9 -17 -14 13 -5 -13 -23 -99 -66 -109 -56 -204 -124
-204 -147 0 -5 12 -1 28 10 128 91 369 161 410 120 9 -9 12 -9 12 3 0 8 -5 20
-12 27 -8 8 -8 12 -1 12 6 0 16 -14 22 -31 9 -25 8 -35 -5 -53 -16 -21 -16
-21 -9 4 7 21 -1 16 -48 -27 -31 -28 -76 -58 -99 -66 -58 -21 -20 -21 50 -1
80 23 123 47 195 107 34 29 69 57 77 61 23 13 -59 -60 -108 -96 l-44 -33 37
-7 c34 -7 41 -5 76 27 22 19 42 35 45 35 12 0 -92 -89 -123 -107 -40 -21 -43
-36 -6 -22 51 19 89 48 154 116 35 37 68 66 72 65 4 -1 3 6 -2 16 -8 14 -6 19
6 19 12 0 14 -8 10 -34 l-6 -34 31 22 c37 26 83 96 106 162 21 60 36 60 28 0
l-5 -48 25 53 c15 30 31 84 36 120 14 95 35 192 48 226 16 42 28 23 44 -65
l13 -74 12 56 c8 40 9 68 2 100 -13 57 -13 62 1 53 8 -5 9 5 5 34 -3 27 -1 40
5 36 31 -19 -60 233 -109 305 -45 64 -102 108 -152 117 -60 10 -70 14 -76 35
-7 21 -39 25 -67 8z"/>
<path d="M1420 978 c-19 -4 -62 -6 -95 -2 l-60 5 33 -33 c17 -19 32 -41 32
-50 0 -9 -15 -49 -34 -88 -36 -74 -37 -103 -4 -124 16 -10 57 3 90 28 17 12
17 16 2 44 -31 63 28 101 65 42 18 -30 18 -30 36 -10 10 11 14 20 10 20 -4 0
0 9 10 20 10 11 23 17 29 13 6 -3 8 -3 4 2 -4 4 -3 14 3 22 9 10 8 13 -3 13
-19 0 -53 37 -70 76 -12 29 -15 30 -48 22z"/>
<path d="M1026 940 c-43 -29 -69 -40 -96 -40 -34 0 -38 -3 -44 -31 -3 -17 -9
-28 -14 -25 -4 2 -8 -3 -8 -12 -1 -9 -5 -26 -9 -37 -5 -15 -3 -13 11 5 24 33
34 40 63 40 22 0 23 -1 8 -24 -9 -12 -18 -41 -21 -62 l-6 -39 11 35 c12 41 53
82 74 74 20 -8 19 -39 -2 -60 -17 -17 -17 -17 7 -11 14 4 28 7 31 7 13 0 18
72 6 90 -9 16 -7 23 11 43 17 18 48 87 39 87 -1 0 -28 -18 -61 -40z"/>
<path d="M1856 713 c-10 -26 -50 -83 -58 -83 -4 0 -3 12 2 26 20 51 9 48 -21
-6 -35 -65 -55 -86 -116 -130 -45 -32 -45 -32 -28 -6 32 48 11 36 -47 -29
l-57 -63 47 -6 c83 -11 212 35 269 96 26 28 53 89 53 120 0 33 -20 98 -29 98
-5 0 -12 -8 -15 -17z"/>
<path d="M840 681 c0 -25 3 -25 -50 -6 -50 18 -154 21 -130 4 12 -8 12 -12 2
-16 -7 -3 -25 -15 -39 -27 -20 -18 -26 -31 -25 -60 2 -47 18 -70 78 -107 32
-19 39 -22 21 -7 -93 75 -103 95 -68 140 21 27 79 48 131 48 18 0 71 -17 119
-39 47 -21 109 -46 137 -55 50 -16 52 -16 88 5 29 17 34 24 25 35 -15 18 -23
18 -15 -1 6 -17 -14 -21 -29 -6 -6 6 -32 19 -58 30 l-48 21 16 -22 c8 -13 15
-26 15 -30 0 -15 -82 33 -126 74 -39 36 -44 38 -44 19z"/>
</g>
</svg>
