<?xml version="1.0" standalone="no"?>
<!DOCTYPE svg PUBLIC "-//W3C//DTD SVG 20010904//EN"
 "http://www.w3.org/TR/2001/REC-SVG-20010904/DTD/svg10.dtd">
<svg version="1.0" xmlns="http://www.w3.org/2000/svg"
 width="225.000000pt" height="225.000000pt" viewBox="0 0 225.000000 225.000000"
 preserveAspectRatio="xMidYMid meet">
<metadata>
Created by potrace 1.15, written by Peter Selinger 2001-2017
</metadata>
<g transform="translate(0.000000,225.000000) scale(0.100000,-0.100000)"
fill="#000000" stroke="none">
<path d="M801 2053 c10 -20 19 -45 19 -55 0 -9 18 -38 40 -63 45 -52 72 -99
63 -108 -3 -4 -1 -12 5 -19 6 -7 10 -17 10 -23 0 -5 9 -12 19 -16 10 -4 14 -8
10 -8 -4 -1 -3 -11 3 -23 11 -23 11 -23 -9 1 -16 18 -21 19 -21 7 0 -27 -42
-28 -46 -1 l-3 20 16 -20 c14 -18 15 -18 9 -2 -3 10 -6 23 -6 29 0 6 -8 4 -18
-5 -20 -18 -64 -21 -97 -7 -18 8 -18 9 -2 9 10 1 15 5 12 11 -3 6 1 7 9 4 9
-3 14 -9 12 -13 -3 -4 7 -8 20 -9 19 -1 25 2 22 15 -2 9 -9 18 -17 21 -9 3
-11 0 -6 -9 6 -11 5 -12 -6 -1 -7 6 -20 12 -30 12 -22 0 -69 48 -69 70 0 16
-62 80 -77 80 -4 0 11 -19 32 -42 22 -24 33 -37 26 -30 -20 16 -32 15 -25 -3
9 -23 -4 -18 -17 6 -9 17 -8 20 2 14 7 -5 10 -4 5 3 -4 6 -13 9 -21 5 -17 -6
-65 22 -65 37 0 6 10 6 28 0 22 -8 24 -8 11 2 -8 7 -18 21 -22 32 -7 18 -6 18
18 2 27 -18 35 -7 10 14 -8 7 -13 15 -11 19 2 3 -3 22 -10 41 l-14 35 6 -32
c7 -38 2 -40 -40 -14 -33 20 -92 40 -67 23 11 -8 11 -11 0 -16 -8 -3 -4 -3 8
-1 12 3 24 2 27 -3 3 -5 -6 -9 -19 -9 -14 0 -28 3 -31 8 -2 4 -16 4 -29 -1
-14 -5 -40 -7 -57 -4 -25 4 -29 3 -18 -5 22 -15 -5 -14 -31 2 -17 9 -23 9 -26
0 -3 -8 -14 -11 -26 -8 -17 4 -27 -2 -42 -25 -20 -31 -69 -63 -79 -52 -10 10
-6 48 7 62 10 12 9 12 -6 1 -21 -17 -22 -54 -1 -75 18 -19 25 -20 22 -5 -2 6
13 12 34 13 26 2 35 -1 31 -10 -6 -15 -32 -26 -44 -18 -14 8 -59 -24 -59 -42
0 -14 2 -13 22 0 27 19 39 20 36 4 -2 -9 7 -12 25 -10 36 4 48 -25 21 -47 -31
-25 -54 -63 -54 -89 0 -13 -4 -20 -10 -17 -23 14 -9 57 30 95 44 43 44 48 0
25 -57 -30 -77 -88 -42 -123 28 -28 32 -47 15 -71 -16 -24 -10 -42 8 -24 7 7
11 36 11 65 -1 29 4 63 11 75 10 18 12 9 13 -60 0 -48 7 -100 17 -126 8 -24
10 -38 4 -32 -6 6 -21 11 -33 11 -13 0 -26 5 -29 10 -3 6 1 10 9 10 9 0 16 9
16 20 0 24 -8 25 -40 3 -24 -16 -24 -16 -11 0 8 10 9 17 3 17 -6 0 -22 -14
-36 -32 -14 -18 -28 -30 -31 -26 -4 3 3 16 14 27 16 16 17 21 6 21 -18 0 -38
-36 -42 -79 -2 -19 -8 -43 -14 -53 -8 -14 -6 -26 6 -44 8 -13 20 -24 25 -24 5
0 9 -8 8 -17 -3 -35 2 -54 12 -48 8 5 7 11 -1 21 -9 11 -8 18 5 33 10 10 25
18 34 16 9 -1 11 0 3 2 -12 4 -12 6 0 14 11 7 11 9 -3 9 -9 0 -19 8 -22 18 -3
9 -4 5 -2 -10 4 -31 -14 -42 -39 -24 -14 10 -16 21 -10 65 6 47 10 53 41 66
51 21 80 7 88 -45 7 -46 2 -60 -22 -60 -10 0 -13 -3 -7 -8 28 -20 38 -42 25
-57 -11 -13 -10 -14 5 -9 12 5 16 3 14 -5 -3 -7 -8 -11 -11 -9 -4 2 -14 -6
-22 -17 l-15 -20 -1 20 c-1 16 -4 14 -12 -7 -10 -30 -27 -35 -46 -16 -8 8 -12
9 -12 1 0 -6 5 -13 11 -15 8 -3 6 -15 -6 -38 -12 -22 -16 -47 -12 -76 4 -42
-5 -66 -56 -137 -24 -33 -15 -67 18 -67 27 0 41 -15 25 -25 -6 -4 -10 -17 -9
-28 2 -12 -3 -33 -10 -46 -7 -12 -11 -31 -8 -41 2 -9 0 -26 -6 -36 -9 -17 -9
-17 6 -5 19 15 67 8 67 -10 0 -6 -8 -8 -18 -5 -16 6 -16 5 1 -8 21 -16 31
-113 13 -135 -6 -8 -11 -21 -12 -30 -4 -65 -5 -66 -24 -11 -11 30 -17 42 -14
25 3 -16 8 -46 11 -65 3 -19 10 -40 15 -47 12 -15 17 -73 6 -73 -4 0 -10 12
-14 28 -10 47 -12 48 -13 8 -1 -35 5 -45 45 -83 46 -42 49 -58 6 -27 -12 8
-22 11 -22 6 0 -16 76 -63 91 -57 8 3 41 -4 74 -15 42 -15 85 -21 143 -21 99
0 146 12 230 56 34 18 62 28 62 22 0 -8 3 -8 11 0 15 15 39 5 39 -16 0 -9 -14
-37 -31 -62 l-31 -44 41 42 c30 31 41 50 41 73 l0 31 32 -17 c102 -53 255 -80
364 -65 102 15 195 46 255 86 48 33 53 34 69 20 16 -14 18 -14 23 0 4 8 4 21
1 28 -3 8 3 20 12 28 16 13 17 12 12 -8 -5 -20 -4 -21 14 -12 14 7 19 18 16
34 -3 13 -2 29 2 36 11 16 30 2 30 -22 0 -25 27 -25 35 1 8 26 -1 40 -27 40
-17 0 -18 2 -8 15 7 8 21 15 31 15 10 0 33 14 51 30 l33 31 -39 -26 c-21 -14
-42 -25 -45 -25 -4 0 10 35 31 79 41 84 68 187 68 264 0 31 4 47 13 47 8 0 7
4 -3 10 -8 5 -10 10 -4 10 5 0 19 -7 30 -15 18 -15 18 -15 0 -8 -14 5 -17 3
-11 -7 5 -9 4 -11 -3 -6 -8 5 -12 0 -12 -13 0 -11 5 -23 12 -27 6 -4 8 -3 4 4
-11 17 12 24 36 10 13 -7 26 -11 30 -10 14 4 31 -29 21 -39 -8 -8 -11 -6 -10
7 3 27 -31 19 -66 -15 -26 -25 -77 -158 -56 -145 15 9 10 -13 -6 -26 -8 -7
-15 -17 -15 -22 0 -6 7 -5 15 2 9 8 15 8 15 2 0 -6 -11 -19 -25 -30 -14 -11
-25 -23 -25 -28 0 -11 50 37 62 60 8 14 7 17 -3 11 -9 -6 -10 -3 -5 11 5 10 9
37 10 59 3 43 30 105 46 105 6 0 10 -13 10 -28 0 -29 16 -52 35 -52 5 0 2 5
-7 11 -11 6 -18 22 -18 40 0 25 4 29 23 27 12 -2 28 -7 34 -11 9 -6 11 -3 7 8
-4 8 -1 22 6 30 10 12 10 15 -3 15 -25 0 -49 31 -42 54 14 47 11 77 -7 87 -12
6 -18 6 -18 -1 0 -5 5 -10 10 -10 6 0 10 -4 10 -10 0 -5 -8 -6 -17 -3 -15 6
-16 4 -5 -9 10 -13 10 -17 -2 -21 -9 -4 -16 3 -19 18 -2 15 0 22 6 18 6 -4 8
0 4 10 -3 9 -1 18 6 21 7 2 5 5 -4 5 -9 1 -23 9 -30 19 -11 14 -11 15 1 5 8
-7 20 -13 27 -13 8 0 23 -9 35 -20 24 -22 43 -26 53 -10 9 15 61 12 75 -5 6
-8 9 -23 5 -35 -4 -11 -2 -20 4 -20 26 0 8 -31 -26 -45 -29 -12 -38 -13 -44
-3 -4 7 -11 9 -14 6 -4 -4 3 -17 15 -30 13 -13 20 -18 16 -11 -6 12 42 33 76
33 11 0 16 5 13 10 -4 6 -1 17 5 25 6 8 9 19 5 26 -5 8 -1 9 14 4 26 -8 27 2
4 28 -17 19 -17 19 5 13 13 -5 22 -3 22 3 0 6 9 11 21 11 36 0 59 19 59 49 0
42 -11 45 -34 8 -16 -25 -21 -28 -24 -14 -2 9 -12 17 -23 17 -10 0 -19 5 -19
11 0 5 -5 7 -11 3 -8 -5 -8 -8 0 -13 19 -12 -25 -44 -51 -38 -12 4 -29 1 -37
-6 -14 -11 -14 -10 -2 6 11 13 11 17 1 17 -8 0 -22 8 -32 17 -18 16 -18 16
-12 -1 5 -14 3 -17 -7 -14 -8 3 -13 14 -11 25 2 15 -4 22 -23 27 -14 4 -25 11
-25 16 0 6 13 4 30 -5 33 -17 66 -20 75 -5 3 5 0 7 -9 4 -8 -3 -30 3 -49 13
l-34 18 25 25 25 25 -16 -27 c-20 -31 -6 -42 40 -29 23 7 25 10 11 16 -9 4
-22 4 -28 0 -5 -3 -10 1 -10 9 0 9 5 16 11 16 5 0 7 5 4 10 -6 10 -59 5 -78
-7 -6 -3 -7 -1 -3 5 4 7 12 12 18 12 15 0 78 43 78 53 0 4 -6 7 -14 7 -8 0
-18 4 -21 10 -3 6 1 7 12 4 10 -3 5 2 -11 11 -15 9 -48 32 -73 51 -24 19 -54
34 -65 34 -27 0 -18 24 11 28 17 3 20 7 11 17 -9 10 -6 15 9 20 12 3 21 12 21
18 0 15 35 47 51 47 5 0 7 5 4 10 -9 15 23 24 39 11 10 -8 16 -8 26 3 10 13 8
16 -13 21 -44 12 -19 76 38 95 66 22 102 96 90 187 -5 40 -14 63 -35 86 l-29
32 19 -53 c24 -62 25 -120 6 -167 -21 -49 -86 -107 -86 -77 0 5 16 27 36 51
35 41 36 44 26 84 -9 34 -10 36 -7 8 4 -26 -1 -44 -21 -73 -15 -21 -29 -36
-31 -34 -7 6 18 50 33 59 8 4 14 15 14 23 0 8 -4 13 -8 10 -5 -3 -7 17 -4 44
7 80 -53 185 -117 205 -16 5 -21 4 -17 -4 9 -14 -48 -15 -72 -2 -17 9 -91 -14
-80 -25 3 -2 17 1 31 7 14 7 34 8 44 4 10 -4 28 -7 41 -6 32 3 52 -16 52 -51
0 -21 12 -44 40 -75 22 -25 40 -55 40 -66 0 -18 -1 -18 -20 4 l-20 24 15 -38
c12 -30 13 -46 5 -78 -6 -22 -9 -53 -5 -68 3 -16 0 -34 -10 -46 -14 -19 -15
-19 -6 6 5 15 7 29 4 32 -3 3 -6 41 -7 85 -1 68 -4 82 -27 109 -25 30 -26 30
-35 9 -5 -13 -18 -21 -32 -21 -15 0 -30 -10 -38 -25 l-15 -25 7 25 c4 14 13
34 20 45 8 11 14 29 13 40 0 18 -1 19 -8 2 -6 -17 -8 -16 -19 7 -15 32 -55 49
-96 40 -17 -4 -39 -8 -49 -9 -10 -1 -22 -6 -28 -12 -7 -7 5 -8 40 -1 38 7 58
6 78 -4 32 -15 49 -63 38 -105 l-7 -28 -11 30 c-17 51 -47 77 -82 70 -16 -3
-45 -7 -63 -9 -18 -1 -41 -10 -50 -20 -16 -16 -16 -17 2 -10 11 4 21 2 26 -6
6 -10 12 -11 22 -3 7 6 28 14 45 18 27 5 37 2 58 -21 33 -35 60 -134 37 -134
-11 0 -42 38 -42 51 0 8 -6 7 -16 -2 -14 -12 -16 -11 -13 6 2 11 15 25 27 31
13 6 20 14 15 17 -16 10 -50 -21 -58 -50 -3 -15 -12 -31 -18 -35 -9 -6 -9 -8
0 -8 6 0 14 4 17 9 10 15 47 -1 80 -34 26 -26 36 -30 61 -24 17 3 26 7 20 9
-11 2 23 18 41 19 6 1 11 -18 12 -41 1 -23 7 -47 12 -52 14 -14 12 -53 -4 -73
-34 -42 -263 -275 -278 -284 -10 -6 -27 -4 -47 4 -25 11 -28 16 -18 26 10 10
8 11 -7 5 -15 -6 -17 -4 -11 6 6 10 3 12 -13 8 -12 -4 -22 -2 -22 3 0 5 5 9
10 9 6 0 10 5 10 11 0 6 -9 9 -19 6 -23 -6 -18 18 5 27 8 3 14 11 14 17 0 8
-4 8 -15 -1 -19 -16 -19 -1 0 24 13 17 19 18 56 7 49 -15 76 -1 114 58 13 22
29 42 35 46 5 3 15 16 21 28 11 19 8 18 -20 -6 -18 -15 -37 -25 -42 -22 -5 4
-24 2 -43 -4 -45 -12 -52 -3 -22 28 38 40 37 63 -1 72 -32 6 -46 -4 -20 -14 9
-4 8 -8 -3 -16 -11 -8 -16 -7 -18 3 -4 20 -30 28 -39 13 -11 -18 -13 -38 -2
-31 5 3 7 9 4 14 -3 5 -1 11 5 15 15 10 24 -23 10 -40 -6 -8 -9 -19 -6 -24 9
-13 -86 -2 -99 11 -7 7 -1 9 17 4 23 -5 25 -3 21 15 -4 14 -8 17 -13 8 -5 -6
-15 -9 -24 -6 -9 4 -16 2 -16 -3 0 -5 -13 -7 -29 -4 -16 3 -37 2 -46 -3 -14
-9 -12 -11 15 -16 18 -4 37 -4 43 0 5 3 7 1 3 -5 -3 -6 7 -15 26 -21 18 -6 45
-19 59 -29 27 -17 27 -17 -50 -17 -131 -1 -235 -65 -293 -183 -29 -59 -33 -76
-32 -147 0 -62 6 -97 28 -155 85 -228 107 -332 87 -406 -34 -127 -175 -205
-366 -203 l-70 1 30 21 c17 12 46 36 65 53 34 31 34 32 8 29 -14 -2 -38 3 -53
11 -34 18 -40 18 -26 1 6 -8 8 -17 4 -20 -3 -4 -2 -7 4 -7 5 0 10 -7 10 -15 0
-8 -4 -15 -9 -15 -5 0 -7 -4 -4 -9 3 -5 -3 -11 -14 -14 -13 -3 -24 1 -30 13
-13 24 -13 30 0 30 6 0 9 -3 9 -7 -4 -27 1 -35 16 -23 18 15 20 35 3 24 -7 -4
-8 -3 -4 4 4 7 1 12 -10 12 -13 0 -15 6 -9 37 4 21 11 40 16 41 5 2 6 9 3 14
-4 7 -2 8 5 4 8 -6 9 -12 2 -20 -13 -16 -4 -26 21 -26 11 0 17 -4 14 -8 -3 -5
0 -9 7 -10 7 -1 37 -4 67 -7 180 -19 262 192 117 299 -40 29 -134 29 -174 0
-55 -41 -75 -83 -71 -150 3 -64 -12 -100 -38 -90 -7 3 -16 1 -19 -4 -3 -4 1
-10 7 -12 8 -3 4 -9 -10 -17 -17 -9 -27 -9 -36 -2 -7 6 -16 8 -19 4 -13 -12
-7 23 5 36 11 11 9 12 -8 3 -12 -7 -24 -18 -28 -27 -3 -8 -10 -15 -15 -15 -19
0 14 61 36 66 13 4 23 13 23 20 0 12 -4 12 -20 4 -23 -13 -40 -6 -40 16 0 11
-6 13 -20 9 -15 -5 -20 -2 -20 11 0 16 -1 16 -18 1 -10 -10 -28 -17 -39 -17
-22 0 -73 -36 -73 -51 0 -17 44 -9 67 13 20 19 23 20 17 4 -7 -17 -5 -17 25
-1 18 9 35 14 39 11 3 -3 0 -6 -7 -6 -6 0 -29 -19 -50 -42 -31 -33 -48 -43
-82 -47 -44 -6 -53 -26 -12 -26 17 1 19 -2 11 -12 -6 -7 -30 -13 -55 -13 -24
0 -54 -5 -65 -11 -26 -14 -38 2 -38 54 0 46 29 78 108 119 31 17 58 40 67 59
22 41 13 46 -27 16 -18 -14 -67 -40 -108 -59 -84 -39 -113 -66 -134 -123 -15
-40 -18 -35 -18 25 0 42 3 50 33 85 17 19 26 35 19 35 -6 0 -8 5 -5 10 3 6 -3
10 -15 10 -32 0 -23 42 11 51 22 5 29 2 37 -15 7 -15 6 -29 -1 -42 -10 -18
-10 -18 12 1 17 15 21 26 17 50 -4 20 -1 38 8 50 15 20 15 20 10 0 -7 -29 12
-75 32 -75 13 0 15 6 9 27 -3 15 -12 31 -18 35 -8 5 -6 8 6 8 10 0 22 -11 26
-24 12 -31 42 -42 58 -21 16 23 7 42 -23 49 -29 8 -31 27 -5 50 19 17 19 17
14 -5 -5 -16 -3 -20 6 -15 8 6 11 25 8 57 -3 27 -1 46 4 43 5 -3 14 5 19 18 9
19 9 17 5 -14 -6 -38 7 -53 19 -22 13 34 5 63 -21 83 l-28 21 40 -16 c45 -18
56 -30 47 -52 -3 -9 -1 -13 5 -9 6 4 13 -15 17 -49 3 -31 11 -64 16 -74 11
-20 70 -54 70 -40 0 13 -26 30 -36 22 -4 -4 -3 1 5 10 8 11 10 31 6 61 -6 36
-4 45 10 51 9 3 20 4 24 2 4 -3 7 8 6 24 0 21 -3 26 -12 18 -7 -5 -16 -7 -22
-4 -16 10 -39 -47 -29 -73 11 -31 -1 -49 -19 -26 -17 24 -17 63 2 98 13 25 13
30 0 44 -8 8 -15 18 -15 22 0 15 27 31 42 26 11 -4 17 2 21 22 3 15 2 32 -3
37 -4 4 -7 0 -7 -10 3 -28 -37 -25 -41 2 -2 16 5 26 29 38 41 21 56 20 68 -2
5 -10 19 -18 32 -19 16 -2 19 1 10 10 -6 6 -11 19 -11 28 0 9 -11 24 -25 33
-31 21 -31 35 0 72 27 32 30 40 15 49 -6 3 -7 -1 -4 -9 8 -20 -22 -32 -40 -16
-13 10 -14 3 -9 -44 l6 -55 -38 -18 c-36 -17 -37 -17 -51 2 -9 12 -14 47 -15
104 0 70 -5 96 -24 136 -13 28 -24 46 -25 42 0 -4 -10 1 -21 12 -26 24 -32 91
-9 99 8 3 12 1 8 -3 -9 -10 10 -35 26 -35 6 0 4 5 -4 10 -8 5 -10 10 -3 10 15
0 59 -53 85 -103 l21 -41 -22 -14 c-22 -15 -28 -32 -10 -32 5 0 7 5 3 11 -4 7
0 9 13 5 17 -5 20 -2 21 25 1 51 9 44 16 -15 7 -56 2 -81 -15 -71 -5 4 -9 1
-9 -6 0 -6 -8 -9 -20 -6 -11 3 -18 1 -14 -4 3 -5 13 -9 22 -10 12 0 11 -3 -5
-9 -19 -8 -23 -17 -22 -52 0 -33 2 -38 9 -23 8 18 9 17 9 -8 1 -31 21 -28 21
3 0 10 5 20 11 22 6 2 15 28 21 58 13 71 24 90 52 90 12 0 33 11 46 25 l23 24
25 -19 c47 -38 150 -13 167 39 3 12 13 21 21 21 8 0 13 4 10 9 -4 5 3 7 14 4
23 -6 26 -19 8 -26 -8 -3 -6 -6 5 -6 9 -1 17 -5 17 -11 0 -11 30 -13 54 -4 9
3 16 14 16 23 0 9 5 23 11 31 9 13 10 12 5 -3 -5 -14 -1 -16 22 -11 36 9 43
14 37 25 -3 5 0 6 8 3 18 -7 67 54 67 84 0 11 5 24 10 27 17 11 12 62 -7 70
-17 7 -17 8 0 14 16 6 16 9 -8 29 -26 22 -35 17 -12 -7 10 -12 8 -13 -8 -6
-11 4 -39 10 -62 12 -51 7 -67 23 -65 68 1 19 -3 35 -9 35 -6 0 -9 7 -5 15 3
9 -3 30 -14 48 -11 17 -20 26 -20 18 0 -11 -4 -9 -14 4 -9 13 -11 25 -5 36 10
19 7 79 -4 79 -4 0 -6 -15 -5 -32 3 -27 0 -32 -15 -30 -9 2 -17 -1 -16 -5 5
-28 -4 -22 -21 12 -11 22 -19 34 -20 28 0 -25 -35 22 -48 64 -7 22 -18 46 -26
52 -10 8 -8 -1 5 -26z m-354 -47 c-4 -10 -1 -13 8 -10 8 4 15 -3 17 -18 2 -17
10 -24 32 -26 26 -3 28 -2 17 12 -14 16 -12 18 27 19 23 0 52 -13 52 -25 0 -5
-4 -7 -10 -3 -5 3 -5 -7 1 -25 6 -17 20 -35 30 -41 10 -5 19 -16 19 -24 0 -19
-16 -19 -24 0 -3 8 -11 15 -18 14 -10 0 -10 -2 0 -6 6 -2 12 -15 12 -29 0 -16
9 -28 30 -39 42 -22 40 -45 -5 -41 -20 1 -41 8 -48 16 -13 14 -10 13 36 -5 27
-11 20 10 -8 23 -13 6 -27 23 -31 37 -3 14 -13 25 -21 25 -8 0 -11 5 -8 10 4
6 11 7 17 4 7 -4 8 2 2 17 -4 13 -7 30 -7 37 0 6 -7 12 -14 12 -8 0 -11 5 -7
12 5 7 3 8 -5 4 -7 -5 -10 -14 -7 -22 4 -11 2 -11 -13 -2 -14 8 -30 9 -62 0
-41 -11 -42 -11 -8 -7 22 2 45 -3 58 -11 27 -19 28 -38 1 -24 -20 11 -20 10 1
-26 17 -30 17 -36 4 -30 -9 3 -13 2 -10 -4 3 -6 15 -10 25 -10 31 0 34 -20 3
-21 -27 0 -27 -1 -6 -11 12 -6 24 -17 27 -24 10 -27 -74 26 -94 59 -17 28 -24
31 -62 29 -24 -2 -55 -5 -70 -8 -23 -5 -28 -2 -28 15 0 22 14 28 25 11 3 -6
15 -5 31 2 19 9 30 9 45 0 23 -15 32 -15 24 -2 -3 6 1 7 9 4 11 -4 16 0 16 11
0 13 -7 16 -29 13 -17 -2 -28 -1 -26 2 2 4 -2 16 -10 26 -12 16 -17 17 -35 6
-28 -17 -47 -4 -21 15 11 7 26 13 33 12 41 -5 67 2 62 16 -4 10 -20 15 -48 16
-36 0 -38 1 -17 10 13 5 32 7 42 4 11 -4 19 -2 19 4 0 6 7 11 16 11 10 0 14
-6 11 -14z m294 -277 c18 6 35 9 37 6 3 -3 0 -5 -7 -5 -7 0 -10 -4 -6 -9 3 -5
-4 -16 -15 -24 -22 -16 -19 -35 11 -75 19 -24 28 -19 23 12 -5 36 8 39 22 6 8
-18 12 -36 9 -40 -3 -4 3 -14 13 -21 15 -13 16 -12 3 4 -12 15 -11 17 3 17 9
0 16 -5 16 -11 0 -5 4 -8 8 -5 13 8 29 -7 36 -36 3 -16 4 -28 1 -28 -13 0 -62
30 -74 44 -8 9 -22 16 -33 16 -10 0 -21 6 -24 14 -3 8 -13 17 -21 20 -13 5
-14 4 -3 -9 10 -12 10 -15 -2 -15 -8 0 -20 6 -27 13 -11 10 -12 9 -6 -3 4 -8
-1 -6 -12 5 -11 11 -19 27 -18 35 1 8 -5 18 -14 22 -10 4 -1 7 22 7 42 1 46
10 15 37 -19 17 -21 17 -15 2 8 -23 -6 -30 -28 -14 -14 10 -15 15 -5 21 9 5
11 4 6 -3 -4 -7 -3 -12 2 -12 13 0 24 29 15 43 -3 7 3 4 15 -7 18 -15 26 -17
53 -7z m-325 -38 c-4 -5 12 -7 36 -4 29 4 39 3 34 -5 -5 -8 2 -10 23 -6 24 5
32 2 38 -12 4 -10 2 -19 -5 -22 -7 -2 -17 -12 -22 -22 -9 -17 -7 -17 20 -7 20
8 36 8 46 2 24 -16 19 -29 -18 -42 -26 -9 -28 -12 -10 -12 12 -1 22 -7 22 -16
0 -12 5 -13 24 -3 54 24 74 -15 30 -59 l-26 -26 31 5 c29 4 31 2 31 -25 0 -31
-5 -30 -48 11 -7 6 -18 12 -24 12 -6 0 -9 3 -5 6 11 12 -69 91 -87 86 -6 -2
-8 0 -4 3 4 4 -2 25 -12 46 -11 21 -20 47 -20 59 0 24 -15 27 -24 4 -3 -8 -2
-13 3 -10 4 3 8 -8 9 -24 1 -35 -34 -62 -49 -39 -5 8 -9 10 -9 4 0 -19 -40 55
-40 75 0 17 8 21 53 29 5 0 6 -3 3 -8z m-36 -256 c0 -22 -9 -37 -31 -56 -19
-15 -29 -31 -25 -38 10 -16 42 3 60 37 12 20 15 23 16 9 0 -34 -20 -56 -61
-67 -23 -6 -47 -9 -54 -6 -18 7 -50 -18 -41 -32 8 -13 86 -13 86 -1 0 5 10 13
23 19 19 9 20 9 6 -2 -9 -7 -19 -23 -23 -35 -8 -26 -36 -38 -47 -21 -7 10 -11
10 -21 0 -16 -16 -28 -15 -28 4 0 9 -5 12 -11 8 -8 -5 -10 1 -7 17 4 24 4 25
-27 9 -18 -8 -28 -16 -24 -18 5 -2 4 -13 -2 -24 -6 -11 -8 -26 -5 -34 8 -21
37 -17 43 6 6 21 27 27 38 11 3 -5 -2 -17 -11 -25 -14 -14 -14 -16 0 -16 10 0
13 -6 10 -15 -4 -8 -1 -15 5 -15 6 0 13 11 17 25 6 25 39 55 59 55 5 -1 1 -8
-10 -18 -12 -9 -24 -26 -28 -36 -6 -16 -5 -17 8 -6 9 8 15 8 15 2 0 -6 -4 -14
-10 -17 -5 -3 -10 -11 -10 -16 0 -12 40 -2 55 14 7 7 6 7 -4 2 -9 -5 -12 -4
-7 3 4 6 12 9 19 6 7 -2 25 15 41 41 16 25 35 50 42 56 7 6 12 23 10 37 -2 15
-1 19 1 10 2 -10 9 -18 14 -18 15 0 -39 -99 -71 -130 -16 -15 -26 -30 -23 -33
2 -3 -6 -11 -19 -17 -12 -7 -36 -24 -52 -39 -22 -19 -27 -22 -23 -8 4 11 3 16
-3 12 -6 -4 -10 6 -11 22 0 15 -3 22 -6 16 -7 -19 -33 -16 -33 3 0 13 -3 14
-15 4 -20 -16 -50 -4 -63 26 -17 35 -15 66 5 94 10 14 17 26 15 28 -10 10 7
24 66 55 73 39 105 67 121 110 11 28 2 69 -18 82 -6 3 -11 13 -11 22 0 9 13
-4 30 -28 16 -24 30 -57 30 -74z m1047 -117 c20 -31 41 -47 73 -59 42 -16 45
-19 48 -58 5 -64 -22 -109 -82 -137 -74 -34 -123 -29 -174 19 -103 95 -44 266
95 276 6 1 24 -18 40 -41z m-1189 -234 c12 -8 22 -21 22 -29 0 -8 10 -21 22
-29 18 -13 19 -16 5 -16 -9 0 -17 6 -17 13 -1 14 -39 -53 -40 -70 0 -7 9 -9
23 -6 12 3 19 2 15 -2 -10 -11 -79 -8 -91 4 -5 5 -17 7 -26 4 -11 -3 -9 2 6
15 12 11 20 22 16 25 -3 3 2 13 11 22 9 9 16 14 16 10 0 -3 5 -3 11 1 7 4 8 9
0 17 -7 7 -14 7 -24 -2 -8 -6 -23 -8 -32 -4 -15 5 -17 2 -13 -15 4 -12 2 -20
-3 -16 -5 3 -9 13 -10 22 0 11 -3 12 -6 5 -2 -7 -14 -12 -26 -12 -17 1 -18 2
-4 6 9 2 17 8 17 12 0 5 9 20 21 35 24 30 72 35 107 10z"/>
</g>
</svg>
