<?xml version="1.0" standalone="no"?>
<!DOCTYPE svg PUBLIC "-//W3C//DTD SVG 20010904//EN"
 "http://www.w3.org/TR/2001/REC-SVG-20010904/DTD/svg10.dtd">
<svg version="1.0" xmlns="http://www.w3.org/2000/svg"
 width="225.000000pt" height="225.000000pt" viewBox="0 0 225.000000 225.000000"
 preserveAspectRatio="xMidYMid meet">
<metadata>
Created by potrace 1.15, written by Peter Selinger 2001-2017
</metadata>
<g transform="translate(0.000000,225.000000) scale(0.100000,-0.100000)"
fill="#000000" stroke="none">
<path d="M1450 1700 c-60 -60 -68 -74 -51 -84 5 -3 14 7 21 23 6 16 21 38 32
48 l21 18 -18 -35 c-10 -19 -26 -47 -37 -62 -11 -16 -17 -32 -14 -36 3 -5 -1
-9 -9 -9 -18 0 -19 9 -3 25 9 9 8 16 -5 30 -19 20 -23 77 -7 87 6 3 10 11 10
17 0 17 -34 -17 -71 -72 -19 -28 -37 -50 -41 -50 -4 0 -11 15 -16 33 -8 31 -9
31 -16 8 -6 -16 -4 -27 5 -33 11 -8 10 -9 -3 -4 -14 4 -18 0 -18 -23 0 -18 -5
-28 -15 -28 -11 0 -12 4 -4 13 6 7 8 22 4 33 -3 10 -1 22 5 26 5 3 10 12 10
18 -1 15 -39 -34 -40 -50 0 -19 -21 -27 -31 -12 -7 11 -9 11 -9 1 0 -7 7 -15
15 -18 21 -8 19 -21 -5 -29 -11 -4 -17 -11 -14 -17 5 -7 2 -8 -5 -3 -7 4 -10
17 -7 30 3 13 2 27 -4 30 -5 3 -10 -1 -10 -9 0 -9 -5 -16 -11 -16 -5 0 -7 -4
-4 -10 10 -16 -5 -33 -19 -21 -9 8 -12 6 -12 -9 1 -10 -3 -18 -9 -17 -5 1 -8
10 -7 20 2 9 -4 20 -12 23 -18 7 -22 34 -6 34 6 0 10 9 10 19 0 11 5 23 10 26
6 3 10 18 9 33 l-1 27 -7 -25 c-5 -14 -18 -44 -30 -67 -12 -24 -17 -43 -12
-43 6 0 15 -9 21 -20 9 -16 8 -18 -5 -14 -18 7 -21 -12 -2 -20 9 -3 8 -8 -4
-18 -9 -7 -19 -22 -21 -33 -4 -17 -7 -16 -17 10 -26 68 -31 71 -25 16 4 -35 3
-51 -4 -47 -6 3 -8 15 -5 26 3 11 1 20 -5 20 -10 0 -9 -37 3 -80 7 -24 7 -24
-7 -6 -9 12 -21 17 -32 13 -10 -4 -16 -1 -16 8 0 8 5 15 10 15 6 0 9 27 9 63
-2 60 -2 61 -8 17 -8 -53 -27 -91 -44 -87 -7 1 -13 -10 -15 -25 -2 -16 1 -28
7 -28 6 0 11 7 11 17 0 13 4 12 20 -7 17 -20 22 -21 37 -9 15 11 16 11 6 -1
-7 -8 -13 -22 -13 -32 0 -16 -3 -17 -22 -7 -13 7 -26 17 -30 23 -5 8 -8 7 -8
-2 0 -7 7 -15 15 -18 8 -4 15 -10 15 -15 0 -4 -7 -6 -15 -3 -11 5 -17 -3 -21
-26 -4 -17 -15 -37 -25 -43 -11 -7 -19 -18 -19 -25 0 -9 8 -7 27 5 26 17 27
17 20 -1 -6 -16 -2 -15 25 7 18 14 32 30 31 35 -1 5 4 9 10 9 7 0 12 -15 13
-33 0 -18 -2 -32 -5 -31 -3 0 -32 -16 -64 -37 l-58 -37 25 -20 c37 -29 32 -42
-13 -37 -29 2 -42 -1 -50 -14 -6 -10 -15 -18 -21 -18 -5 0 2 17 16 37 20 31
22 38 10 45 -17 9 -48 0 -41 -13 3 -4 12 -6 20 -2 18 6 20 -8 3 -25 -15 -15
-31 -16 -22 -1 5 9 -1 10 -20 5 -16 -4 -26 -2 -26 4 0 6 -5 8 -11 4 -7 -4 -2
-12 14 -22 14 -9 30 -26 36 -39 13 -29 28 -29 52 0 10 12 18 18 18 12 0 -18
-34 -49 -77 -72 -47 -24 -52 -23 -22 4 22 21 18 65 -6 56 -8 -3 -11 -10 -8
-15 4 -6 1 -8 -7 -6 -8 3 -26 2 -40 -2 -19 -6 -26 -4 -26 7 0 7 7 12 16 11 9
-2 25 4 35 14 15 14 17 20 7 32 -8 10 -9 16 -2 21 6 3 16 15 21 26 9 17 7 19
-16 19 -18 0 -25 -4 -21 -14 3 -8 -1 -20 -9 -26 -9 -8 -14 -9 -14 -2 0 6 6 13
13 15 7 3 5 6 -6 6 -9 1 -33 -16 -52 -36 -36 -38 -43 -53 -25 -53 7 0 7 -6 0
-19 -11 -22 2 -72 14 -53 4 7 12 10 17 6 6 -3 20 2 31 13 21 18 21 18 10 -3
-10 -19 -9 -23 13 -28 14 -4 25 -11 25 -17 0 -6 -4 -7 -10 -4 -5 3 -10 2 -10
-4 0 -15 41 -35 49 -23 3 5 20 8 38 7 23 -2 30 1 26 11 -4 10 4 14 28 15 19 1
26 3 17 6 -22 5 -23 22 -3 29 8 4 13 10 10 15 -3 4 3 13 13 18 11 6 27 22 37
37 9 14 12 23 6 20 -18 -11 -13 10 6 25 11 10 14 10 9 2 -16 -28 12 -10 54 33
54 55 107 82 178 89 30 3 60 9 69 13 28 16 139 -32 182 -79 l26 -28 0 32 c0
18 -6 38 -13 45 -7 8 -10 18 -6 23 3 5 -2 12 -10 15 -9 3 -13 10 -10 15 3 5
10 7 15 4 5 -4 5 3 0 16 -5 16 -17 23 -37 24 -16 1 -42 7 -57 13 -39 17 -46
15 -40 -8 5 -17 8 -18 21 -8 13 11 14 11 7 -1 -5 -9 -4 -12 2 -8 5 3 27 2 48
-4 26 -8 34 -13 25 -19 -7 -5 -22 -6 -32 -4 -42 9 -54 13 -70 19 -12 5 -20 2
-24 -9 -3 -9 -11 -16 -17 -16 -6 0 -7 3 -4 7 4 3 2 12 -5 20 -8 11 -7 12 6 7
9 -3 16 -1 16 5 0 6 -5 11 -10 11 -6 0 -15 11 -21 24 -10 22 -13 23 -30 8 -10
-8 -16 -19 -13 -24 3 -4 -2 -5 -10 -2 -9 3 -13 11 -9 17 3 5 1 7 -5 3 -6 -3
-13 -2 -17 4 -3 6 -17 8 -31 6 -13 -3 -24 0 -24 6 0 5 6 8 14 5 10 -4 12 3 10
24 -2 16 1 29 7 29 6 0 1 9 -12 21 -13 11 -19 18 -14 15 6 -2 17 -1 25 5 10 6
11 9 3 9 -9 0 -7 6 5 18 11 12 20 14 25 8 4 -7 11 -6 18 4 9 13 10 12 5 -2 -3
-12 0 -18 10 -18 11 0 14 5 10 16 -4 12 -2 15 9 10 15 -5 19 4 16 34 -1 11 3
10 14 -4 8 -11 15 -16 15 -11 0 5 7 0 15 -11 13 -18 14 -18 15 -1 0 14 5 17
21 12 16 -6 20 -4 13 6 -6 12 -5 12 9 0 19 -15 22 -22 8 -18 -5 1 -8 -2 -8 -8
1 -5 10 -9 20 -8 9 2 17 -2 17 -7 0 -6 -6 -10 -12 -10 -7 -1 -26 -12 -43 -26
-17 -15 -22 -24 -12 -20 15 5 16 3 7 -14 -9 -18 -18 -20 -61 -16 -31 4 -48 2
-44 -4 4 -6 11 -8 16 -5 5 4 12 0 15 -9 3 -8 12 -12 20 -9 8 3 25 -2 38 -10
21 -14 26 -14 53 3 17 10 35 24 39 32 6 9 11 0 16 -27 l6 -40 -3 45 c-1 25 -6
55 -10 68 -5 14 -3 22 4 22 7 0 9 -4 6 -10 -3 -5 -1 -10 4 -10 6 0 11 -6 11
-14 0 -8 7 -17 16 -20 22 -8 22 -9 22 19 0 24 -1 24 -15 8 -14 -17 -14 -17 -9
0 4 13 -4 24 -30 39 -37 22 -58 57 -48 82 3 8 12 12 19 10 7 -3 16 -1 20 5 8
14 25 14 25 0 0 -5 -4 -7 -10 -4 -5 3 -10 1 -10 -4 0 -14 47 -14 55 -1 7 12
53 5 98 -15 16 -7 16 -9 -4 -26 -31 -27 -8 -24 27 3 15 13 24 16 19 9 -6 -11
-3 -13 11 -9 16 4 19 -1 22 -36 1 -22 4 -41 5 -43 2 -1 50 -12 107 -23 102
-20 221 -28 257 -16 10 3 40 10 66 15 46 8 51 7 83 -21 19 -17 34 -25 34 -20
0 6 -6 15 -12 19 -7 4 -13 15 -13 23 0 8 -6 14 -13 12 -6 -1 -12 2 -12 7 0 12
-59 7 -85 -6 -34 -17 -166 -6 -173 15 -2 6 -11 8 -20 5 -9 -3 -14 -3 -10 1 10
11 42 14 53 5 6 -4 20 -6 30 -5 11 2 25 -1 31 -5 7 -6 16 -4 24 6 7 8 17 12
23 8 17 -10 47 -11 47 -1 0 4 11 8 23 8 16 0 24 6 24 18 0 27 -16 31 -54 12
-42 -20 -116 -18 -181 6 -34 13 -43 20 -39 35 4 16 1 18 -21 13 -15 -4 -29 -8
-31 -10 -2 -2 -17 4 -33 12 -24 12 -29 20 -24 39 l6 23 -37 -19 c-43 -22 -64
-24 -81 -7 -19 19 -14 41 19 81 17 20 28 37 26 37 -2 0 -26 -12 -51 -26 -34
-19 -51 -23 -58 -16 -13 13 6 66 35 100 12 12 15 22 9 22 -7 0 -39 -27 -72
-60z"/>
<path d="M662 1452 c9 -24 19 -31 49 -36 21 -3 41 -11 45 -17 9 -15 -17 -30
-32 -18 -9 7 -14 4 -19 -10 -3 -12 -11 -21 -17 -21 -6 0 -6 6 2 15 11 13 10
15 -6 9 -18 -5 -18 -5 -2 8 15 13 14 15 -10 24 -39 14 -57 7 -78 -31 -10 -19
-21 -32 -26 -29 -4 3 -6 -6 -6 -18 1 -13 -2 -35 -6 -49 -7 -25 -11 -26 -57
-24 -27 2 -52 -1 -54 -6 -3 -4 -16 -3 -30 3 -14 6 -35 7 -52 2 -15 -4 -36 -7
-45 -7 -9 0 -19 -8 -21 -18 -6 -21 -3 -21 65 -10 26 4 45 4 42 0 -2 -4 0 -11
6 -14 6 -4 10 -3 9 2 -4 22 4 28 41 30 22 0 37 -3 34 -8 -3 -5 -12 -9 -20 -9
-19 0 -18 -17 1 -28 14 -7 13 -12 -7 -33 -35 -38 -133 -188 -157 -241 -12 -27
-26 -48 -32 -48 -5 0 -3 14 6 30 9 17 11 30 6 30 -5 0 -11 -5 -13 -12 -3 -7
-7 -5 -11 6 -4 9 -3 15 2 12 5 -3 14 1 21 9 7 8 9 15 5 15 -4 0 13 22 37 48
24 27 62 76 84 110 23 34 45 58 49 54 4 -4 6 0 3 8 -3 9 -15 14 -32 13 -33 -3
-187 -94 -179 -107 3 -5 1 -6 -5 -2 -6 3 -22 -5 -36 -19 -14 -14 -32 -25 -41
-25 -9 0 -13 -5 -9 -11 4 -8 0 -8 -15 0 -17 9 -21 9 -19 -1 2 -7 -5 -12 -14
-12 -10 1 -18 -2 -18 -8 0 -5 -3 -7 -7 -5 -5 3 -14 -1 -20 -9 -11 -11 -4 -18
37 -38 33 -17 52 -21 56 -14 4 6 3 8 -3 5 -5 -4 -25 5 -43 18 -33 24 -33 25
-9 26 13 1 28 1 32 0 5 -1 5 4 1 10 -4 7 -2 10 7 7 17 -6 75 22 105 50 11 11
35 27 53 36 17 9 30 20 27 24 -2 4 9 7 26 8 16 1 26 -2 21 -5 -4 -3 -9 -13
-11 -21 -2 -8 -14 -25 -28 -38 -13 -14 -24 -30 -24 -37 0 -6 -11 -22 -25 -35
-13 -12 -22 -28 -19 -34 3 -6 -1 -3 -10 8 -14 17 -15 17 -12 -10 4 -37 -2 -54
-21 -54 -8 0 -11 4 -8 10 4 6 -1 7 -11 3 -10 -4 -15 -2 -11 3 3 6 -3 11 -15
11 -13 1 -1 -12 35 -37 30 -22 57 -50 61 -62 5 -19 11 -10 30 45 20 60 34 80
107 154 101 101 118 113 126 84 6 -23 23 -29 24 -8 1 31 8 70 13 74 3 3 2 13
-3 22 -5 9 -11 28 -15 43 -6 25 -2 29 41 49 39 18 58 20 111 15 51 -5 62 -4
56 6 -14 22 -12 59 3 65 11 4 10 10 -6 25 -12 10 -21 23 -21 29 0 6 -5 7 -12
3 -8 -5 -9 -2 -5 9 8 22 -2 22 -20 0 -14 -17 -14 -17 -9 0 4 11 2 16 -5 12 -6
-4 -19 1 -29 10 -19 17 -19 16 -8 -13z"/>
<path d="M1368 1043 c-17 -41 -22 -129 -7 -139 5 -3 9 2 9 10 0 30 22 28 56
-5 19 -18 34 -37 34 -42 0 -4 19 -36 43 -70 42 -60 80 -145 106 -237 22 -75
23 -77 31 -41 9 38 50 76 95 89 39 12 161 -3 191 -23 39 -25 28 -8 -38 59 -35
35 -88 90 -118 122 -30 32 -70 71 -88 86 -29 23 -172 151 -206 183 -35 34 -60
44 -75 32 -12 -9 -13 -9 -7 1 4 6 3 12 -1 12 -5 0 -16 -17 -25 -37z"/>
<path d="M1450 1077 c0 -3 22 -18 50 -33 27 -15 47 -30 45 -34 -7 -11 65 -52
80 -46 13 5 35 -12 35 -26 0 -4 -5 -8 -11 -8 -5 0 -7 4 -4 10 3 6 -1 7 -10 4
-20 -8 -21 -7 46 -43 29 -16 53 -34 52 -40 -2 -6 5 -7 14 -4 10 4 14 2 10 -4
-4 -6 1 -17 11 -24 15 -13 16 -12 3 4 -15 19 -2 24 17 5 9 -9 15 -9 23 -1 7 7
7 13 0 17 -5 4 -8 14 -5 24 5 13 4 14 -4 3 -6 -8 -15 -10 -22 -6 -9 6 -11 4
-5 -5 5 -8 3 -11 -6 -8 -8 3 -13 11 -11 17 1 7 -2 10 -7 6 -12 -7 -76 24 -67
32 3 4 0 13 -7 21 -10 13 -8 14 18 9 l30 -7 -28 15 c-23 13 -30 35 -11 35 3 0
3 -4 0 -9 -8 -12 50 -35 65 -25 8 4 10 3 5 -4 -7 -11 6 -17 28 -13 5 1 21 -2
37 -8 45 -16 41 0 -8 25 -25 14 -48 22 -51 19 -3 -2 -11 0 -19 6 -7 6 -13 8
-13 4 0 -4 -6 -2 -13 4 -17 13 -141 61 -187 72 -19 4 -45 11 -57 14 -13 4 -23
5 -23 2z"/>
</g>
</svg>
